<?xml version="1.0" encoding="utf-8"?>
<!-- Generator: Adobe Illustrator 19.0.0, SVG Export Plug-In . SVG Version: 6.00 Build 0)  -->
<svg version="1.1" xmlns="http://www.w3.org/2000/svg" xmlns:xlink="http://www.w3.org/1999/xlink" x="0px" y="0px"
	 viewBox="0 0 750 500" enable-background="new 0 0 750 500" xml:space="preserve">
<g id="Background_Complete">
	<g id="XMLID_1_">
		<path id="XMLID_2_" fill="#B24F9A" d="M475,200.8v44.1c0,7.7,6.5,14.1,14.4,14.1h158.1c8,0,14.4-6.5,14.4-14.4v-37.3l19.7-20.7
			l-192.2-0.6C481.4,186.1,475,192.5,475,200.8z"/>
		<g id="XMLID_3_">
			<polygon fill="#E0E0E0" points="638.7,212.8 495.2,212.1 495.2,207.7 638.7,208.4 			"/>
		</g>
		<g id="XMLID_4_">
			<polygon fill="#E0E0E0" points="638.7,227.3 495.2,226.6 495.2,222.2 638.7,222.9 			"/>
		</g>
		<g id="XMLID_5_">
			<polygon fill="#E0E0E0" points="638.7,241.4 581.9,241.2 581.9,236.8 638.7,237 			"/>
		</g>
	</g>
	<g id="XMLID_6_">
		<g id="XMLID_7_">
			<g id="XMLID_8_">
				<g id="XMLID_9_">
					<path fill="#B24F9A" d="M205.5,425.6c22.1-15.4,27.1-44.1,26.3-69.9c-0.1-4.3,0.3-8.8-1.7-12.6c-2-3.8-6.8-6.4-10.7-4.5
						c-3.2,1.5-4.6,5.2-6.4,8.3c-2.4,4.1-5.9,7.5-10.1,9.6c-2.7,1.4-6.1,2.3-8.8,0.8c-3.7-2-4.1-7.2-4.1-11.5c0.1-8,0.1-16,0.1-23.9
						c0-4.3,0-8.6-1.3-12.7c-1.3-4.1-4.3-7.8-8.3-9c-4.1-1.1-9.1,1.2-10,5.4c-0.4,1.7,0,3.6-0.1,5.3c-0.1,1.8-0.9,3.7-2.6,4.2
						c-1.7,0.5-3.4-0.7-4.7-2c-4.4-4.3-7.4-9.9-10.2-15.4s-5.5-11.2-9.5-15.9c-4-4.7-9.6-8.4-15.7-8.8c-6.1-0.3-12.7,3.4-14.2,9.5
						c-1.6,6,2,12.2,5.8,17c5.7,7.2,12.4,13.7,19.9,19c1.3,1,2.8,2,3.3,3.6c0.9,2.9-1.8,5.7-4.6,6.6c-3.2,1.1-6.7,0.7-10,1.1
						c-3.3,0.4-7,1.9-8.2,5c-1.8,4.4,1.9,9,5.5,12c7.2,6,15.4,10.8,24.2,14c3.1,1.2,6.5,2.2,9,4.4c2.5,2.2,4.1,6.1,2.5,9.1
						c-1.5,3-5.5,4-8.8,3.4c-3.3-0.6-6.2-2.4-9.4-3.6c-5.9-2.2-13.5-1.8-17.2,3.3c-2.5,3.3-2.7,8-1.4,12c1.3,4,3.8,7.4,6.5,10.6
						c9.4,11.1,21.5,20,35.1,24.7C179.3,429.3,191.9,430.6,205.5,425.6"/>
				</g>
			</g>
		</g>
		<g id="XMLID_10_">
			<g id="XMLID_11_">
				<g id="XMLID_12_">
					<g id="XMLID_13_">
						<path fill="#E0E0E0" d="M205.8,444.7c-0.9-10.2-3.2-22.3-7-35.3c-3.8-13-9.1-26.9-15.2-41.3c-1.5-3.6-3.1-7.1-4.5-10.6
							c-1.5-3.5-3-6.9-4.7-10.2c-3.3-6.6-7-12.7-10.6-18.3c-3.7-5.7-7.4-10.9-10.8-15.8c-3.5-4.9-6.8-9.4-10.1-13.3
							c-6.4-7.9-12.3-13.7-16.6-17.5c-2.1-1.9-3.8-3.3-5-4.3c-0.6-0.5-1-0.8-1.3-1.1c-0.3-0.2-0.5-0.4-0.5-0.3c0,0,0.1,0.1,0.4,0.4
							c0.3,0.3,0.7,0.7,1.3,1.1c1.1,1,2.8,2.5,4.9,4.4c4.2,3.9,10,9.7,16.3,17.6c3.2,4,6.5,8.5,10,13.3c3.5,4.9,7.1,10.1,10.8,15.8
							c3.6,5.7,7.3,11.7,10.6,18.3c1.6,3.3,3.1,6.7,4.6,10.2c1.5,3.5,3,7,4.5,10.6c6.1,14.3,11.4,28.2,15.2,41.2
							c3.8,12.9,6.1,24.9,7.1,35.1"/>
					</g>
				</g>
			</g>
		</g>
		<g id="XMLID_14_">
			<g id="XMLID_15_">
				<g id="XMLID_16_">
					<g id="XMLID_17_">
						<path fill="#E0E0E0" d="M174.2,347.3c0.1,0,0.2-0.6,0.4-1.8c0.2-1.2,0.5-2.9,0.8-5c0.6-4.3,1.2-10.2,1.9-16.7
							c0.7-6.5,1.4-12.4,2.1-16.6c0.3-2.1,0.6-3.8,0.8-5c0.2-1.2,0.3-1.8,0.2-1.9c-0.1,0-0.2,0.6-0.5,1.8c-0.3,1.2-0.7,2.9-1.1,5
							c-0.8,4.2-1.6,10.1-2.3,16.7c-0.6,6.4-1.2,12.3-1.7,16.7c-0.2,2-0.4,3.7-0.5,5.1C174.2,346.6,174.1,347.3,174.2,347.3z"/>
					</g>
				</g>
			</g>
		</g>
		<g id="XMLID_18_">
			<g id="XMLID_19_">
				<g id="XMLID_20_">
					<g id="XMLID_21_">
						<path fill="#E0E0E0" d="M119.2,337c0,0.1,0.8,0.1,2.2,0.3c1.4,0.1,3.5,0.3,6,0.6c5,0.5,12,1.5,19.6,3c7.6,1.4,14.4,3,19.3,4.3
							c2.5,0.6,4.4,1.2,5.8,1.6c1.4,0.4,2.1,0.6,2.1,0.5c0-0.1-0.7-0.3-2.1-0.8c-1.3-0.5-3.3-1.1-5.7-1.8
							c-4.9-1.4-11.7-3.1-19.3-4.6c-7.6-1.4-14.6-2.3-19.7-2.7c-2.5-0.2-4.6-0.3-6-0.3C119.9,337,119.2,337,119.2,337z"/>
					</g>
				</g>
			</g>
		</g>
		<g id="XMLID_22_">
			<g id="XMLID_23_">
				<g id="XMLID_24_">
					<g id="XMLID_25_">
						<path fill="#E0E0E0" d="M198.1,408.4c0,0,0.2-0.2,0.4-0.7c0.3-0.5,0.6-1.2,0.9-2c0.8-1.7,1.9-4.3,3.2-7.4
							c2.7-6.3,6-15.1,9.7-24.9c3.6-9.8,6.9-18.6,9.4-25c1.2-3.1,2.3-5.6,3-7.5c0.3-0.8,0.6-1.5,0.8-2c0.2-0.5,0.3-0.7,0.2-0.7
							c0,0-0.2,0.2-0.4,0.7c-0.3,0.5-0.6,1.2-0.9,2c-0.8,1.7-1.9,4.3-3.2,7.4c-2.7,6.3-6,15.1-9.7,24.9c-3.6,9.8-6.9,18.6-9.4,25
							c-1.2,3.1-2.3,5.6-3,7.5c-0.3,0.8-0.6,1.5-0.8,2C198.2,408.2,198.1,408.4,198.1,408.4z"/>
					</g>
				</g>
			</g>
		</g>
		<g id="XMLID_26_">
			<g id="XMLID_27_">
				<g id="XMLID_28_">
					<g id="XMLID_29_">
						<path fill="#E0E0E0" d="M125,384.9c0,0,0.2,0.1,0.7,0.3c0.6,0.2,1.3,0.4,2.1,0.7c2,0.6,4.6,1.5,7.8,2.5
							c6.6,2.1,15.7,5.2,25.8,8.6c10,3.4,19.2,6.4,25.8,8.4c3.3,1,6,1.8,7.9,2.3c0.9,0.2,1.6,0.4,2.2,0.6c0.5,0.1,0.8,0.2,0.8,0.1
							c0,0-0.2-0.1-0.7-0.3c-0.6-0.2-1.3-0.4-2.1-0.7c-2-0.6-4.6-1.5-7.8-2.5c-6.6-2.1-15.7-5.2-25.8-8.6c-10-3.4-19.2-6.4-25.8-8.4
							c-3.3-1-6-1.8-7.9-2.3c-0.9-0.2-1.6-0.4-2.2-0.6C125.3,384.9,125,384.8,125,384.9z"/>
					</g>
				</g>
			</g>
		</g>
	</g>
	<g id="XMLID_30_">
		<path id="XMLID_31_" fill="#C57BB3" d="M256.5,155.2v34.2c0,6.2-5,11.2-11.2,11.2H122.8c-6.2,0-11.2-5-11.2-11.2v-28.9l-15.3-16
			l148.9-0.5C251.5,144,256.5,149,256.5,155.2z"/>
		<g id="XMLID_32_">
			<polygon fill="#FAFAFA" points="129.6,164.7 240.8,164.2 240.8,160.8 129.6,161.3 			"/>
		</g>
		<g id="XMLID_33_">
			<polygon fill="#FAFAFA" points="129.6,176 240.8,175.4 240.8,172 129.6,172.5 			"/>
		</g>
		<g id="XMLID_34_">
			<polygon fill="#FAFAFA" points="129.6,186.9 173.6,186.7 173.6,183.3 129.6,183.5 			"/>
		</g>
	</g>
</g>
<g id="Background_Simple" display="none">
	<path id="XMLID_35_" display="inline" fill="#F5F5F5" d="M610.1,121.8c24,68.6,3.3,148.5-44.8,202.9
		C517.1,379.1,445,409.1,372.5,414c-51.7,3.5-120.4-5.7-163.5-34.5c-43.1-28.8-73.1-71.1-62.7-125.6c3.7-19.2,16.1-45,30.9-57.8
		c23.7-20.5,59-16.7,89.9-11.7c30.9,5,66.2,8.8,90-11.5c18.2-15.6,23.9-41,35.2-62.2c19.2-36.1,57.5-61.2,98.2-64.5
		c5.7-0.5,11.3-0.5,17-0.1c44,2.9,82.4,30.7,100.5,70.9L610.1,121.8z"/>
</g>
<g id="Floor">
	<g id="XMLID_36_">
		<path id="XMLID_37_" fill="#263238" d="M669.2,464.8c0,0.1-129,0.3-288.1,0.3c-159.2,0-288.2-0.1-288.2-0.3
			c0-0.1,129-0.3,288.2-0.3C540.2,464.6,669.2,464.7,669.2,464.8z"/>
	</g>
</g>
<g id="Device">
	<g id="XMLID_38_">
		<g id="XMLID_39_">
			<g id="XMLID_40_">
				<g id="XMLID_41_">
					<path fill="#263238" d="M566.9,218.3v235c0,6.4-5.2,11.5-11.5,11.5H208c-6.4,0-11.5-5.2-11.5-11.5v-235
						c0-6.4,5.2-11.5,11.5-11.5h347.3C561.7,206.7,566.9,211.9,566.9,218.3z"/>
				</g>
				<g id="XMLID_42_">
					<rect x="221.8" y="214.9" fill="#FFFFFF" width="309.3" height="241.8"/>
				</g>
				<g id="XMLID_43_">
					<circle fill="#455A64" cx="548.2" cy="335.8" r="9.9"/>
				</g>
				<g id="XMLID_44_">
					<path fill="#455A64" d="M211.2,298.1v75.3c0,0.7-0.5,1.2-1.2,1.2h-1.7c-0.7,0-1.2-0.5-1.2-1.2v-75.3c0-0.7,0.5-1.2,1.2-1.2h1.7
						C210.7,296.9,211.2,297.4,211.2,298.1z"/>
				</g>
			</g>
		</g>
		<g id="XMLID_45_">
			<circle fill="#9F2381" cx="288.7" cy="343" r="25"/>
			<circle opacity="0.3" fill="#FFFFFF" cx="288.7" cy="343" r="25"/>
			<g id="XMLID_46_">
				
					<ellipse transform="matrix(-8.221515e-002 -0.9966 0.9966 -8.221515e-002 -34.7877 646.3978)" fill="#263238" cx="280.2" cy="339.2" rx="2.5" ry="1.7"/>
			</g>
			<g id="XMLID_47_">
				
					<ellipse transform="matrix(4.095137e-002 -0.9992 0.9992 4.095137e-002 -54.9027 620.5927)" fill="#263238" cx="295.8" cy="338.9" rx="2.5" ry="1.7"/>
			</g>
			<g id="XMLID_48_">
				<ellipse id="XMLID_49_" fill="#263238" cx="288.2" cy="348" rx="10.4" ry="0.5"/>
			</g>
			<g id="XMLID_50_">
				<path id="XMLID_51_" fill="#263238" d="M281.9,333.9c-0.1,0.3-1.2,0.3-2.6,0.5c-1.4,0.2-2.5,0.6-2.7,0.3
					c-0.2-0.2,0.9-1.1,2.5-1.4C280.8,333.1,282,333.6,281.9,333.9z"/>
			</g>
			<g id="XMLID_52_">
				<path id="XMLID_53_" fill="#263238" d="M300.4,335.1c-0.2,0.2-1.3-0.3-2.7-0.7c-1.4-0.4-2.6-0.6-2.6-0.9c0-0.3,1.3-0.6,2.9-0.1
					C299.7,333.8,300.6,334.9,300.4,335.1z"/>
			</g>
		</g>
		<g id="XMLID_54_">
			<circle fill="#B24F9A" cx="469.6" cy="341" r="25.9"/>
			<circle opacity="0.3" cx="469.6" cy="341" r="25.9"/>
			<g id="XMLID_55_">
				
					<ellipse transform="matrix(-8.223242e-002 -0.9966 0.9966 -8.223242e-002 162.8785 824.0018)" fill="#263238" cx="460.8" cy="337" rx="2.6" ry="1.8"/>
			</g>
			<g id="XMLID_56_">
				
					<ellipse transform="matrix(4.094621e-002 -0.9992 0.9992 4.094621e-002 121.0762 799.4829)" fill="#263238" cx="477" cy="336.7" rx="2.6" ry="1.8"/>
			</g>
			<g id="XMLID_57_">
				<path id="XMLID_58_" fill="#263238" d="M479.9,346.1c-0.1,0.1-1.2-0.6-3-1.6c-1.8-0.9-4.6-2-7.7-1.9c-3.1,0.1-5.9,1.1-7.7,2
					c-1.9,0.9-3,1.6-3.1,1.5c-0.1-0.1,0.9-1,2.7-2.1c1.8-1.1,4.7-2.3,8.1-2.4c3.4-0.1,6.3,1.2,8.1,2.3
					C479.1,345,480,346,479.9,346.1z"/>
			</g>
			<g id="XMLID_59_">
				<path id="XMLID_60_" fill="#263238" d="M462.6,331.5c0.1,0.1-0.1,0.4-0.5,0.8c-0.4,0.4-1.1,0.8-2,0.9c-0.9,0.2-1.7,0-2.2-0.2
					c-0.5-0.2-0.8-0.5-0.7-0.7c0.1-0.3,1.4,0.1,2.8-0.1C461.3,331.9,462.4,331.2,462.6,331.5z"/>
			</g>
			<g id="XMLID_61_">
				<path id="XMLID_62_" fill="#263238" d="M481.8,332.7c0,0.1-0.2,0.4-0.8,0.6c-0.6,0.2-1.4,0.2-2.3-0.1c-0.9-0.3-1.5-0.8-1.9-1.3
					c-0.4-0.4-0.5-0.8-0.4-0.9c0.2-0.2,1.3,0.7,2.7,1.1C480.4,332.7,481.7,332.4,481.8,332.7z"/>
			</g>
		</g>
		<g id="XMLID_63_">
			<g id="XMLID_64_">
				<polygon fill="#E0E0E0" points="419.9,412.9 425.9,409.9 431.8,413.1 430.8,406.5 435.7,402 429.1,400.8 426.3,394.8 
					423.2,400.7 416.5,401.5 421.2,406.3 				"/>
			</g>
			<g id="XMLID_65_">
				<polygon fill="#E8505B" points="395.5,412.9 401.5,409.9 407.3,413.1 406.3,406.5 411.2,402 404.6,400.8 401.8,394.8 
					398.7,400.7 392.1,401.5 396.7,406.3 				"/>
			</g>
			<g id="XMLID_66_">
				<polygon fill="#E8505B" points="371,412.9 377,409.9 382.8,413.1 381.9,406.5 386.8,402 380.2,400.8 377.3,394.8 374.2,400.7 
					367.6,401.5 372.3,406.3 				"/>
			</g>
			<g id="XMLID_67_">
				<polygon fill="#E8505B" points="346.5,412.9 352.5,409.9 358.3,413.1 357.4,406.5 362.3,402 355.7,400.8 352.9,394.8 
					349.7,400.7 343.1,401.5 347.8,406.3 				"/>
			</g>
			<g id="XMLID_68_">
				<polygon fill="#E8505B" points="322,412.9 328,409.9 333.9,413.1 332.9,406.5 337.8,402 331.2,400.8 328.4,394.8 325.3,400.7 
					318.6,401.5 323.3,406.3 				"/>
			</g>
		</g>
		<g id="XMLID_69_">
			<path id="XMLID_70_" fill="#263238" d="M436,265.5c0,0.1-26.9,0.3-60,0.3c-33.1,0-60-0.1-60-0.3c0-0.1,26.9-0.3,60-0.3
				C409.1,265.2,436,265.4,436,265.5z"/>
		</g>
		<g id="XMLID_71_">
			<path id="XMLID_72_" fill="#263238" d="M406.5,258.3c0,0.1-13.3,0.3-29.6,0.3c-16.4,0-29.6-0.1-29.6-0.3c0-0.1,13.3-0.3,29.6-0.3
				C393.2,258,406.5,258.2,406.5,258.3z"/>
		</g>
		<g id="XMLID_73_">
			<g id="XMLID_74_">
				<g id="XMLID_75_">
					<circle fill="#B24F9A" cx="381.1" cy="335" r="34.1"/>
					<g id="XMLID_76_">
						
							<ellipse transform="matrix(-8.222429e-002 -0.9966 0.9966 -8.222429e-002 71.3652 725.2835)" fill="#263238" cx="369.6" cy="329.8" rx="3.4" ry="2.3"/>
					</g>
					<g id="XMLID_77_">
						
							<ellipse transform="matrix(4.094790e-002 -0.9992 0.9992 4.094790e-002 45.8394 706.4432)" fill="#263238" cx="390.9" cy="329.3" rx="3.4" ry="2.3"/>
					</g>
					<g id="XMLID_78_">
						<path id="XMLID_79_" fill="#263238" d="M394.8,337.2c0.1,0.1-0.2,0.4-0.8,1c-0.5,0.6-1.4,1.4-2.6,2.3
							c-1.2,0.8-2.7,1.8-4.5,2.5c-1.8,0.7-4,1.1-6.3,1c-2.3-0.1-4.4-0.7-6.2-1.4c-1.8-0.7-3.3-1.6-4.5-2.4c-2.4-1.6-3.7-2.9-3.6-3
							c0.1-0.1,1.6,0.9,4,2.3c1.3,0.7,2.7,1.5,4.5,2.1c1.7,0.6,3.7,1.2,5.9,1.3c2.1,0.1,4.1-0.3,5.9-0.8c1.8-0.6,3.2-1.4,4.4-2.2
							c1.2-0.8,2.1-1.5,2.7-2C394.3,337.4,394.7,337.1,394.8,337.2z"/>
					</g>
					<g id="XMLID_80_">
						<path id="XMLID_81_" fill="#263238" d="M370.9,318.7c-0.1,0.3-1.7,0.2-3.6,0.5c-1.9,0.3-3.5,0.9-3.6,0.6
							c-0.2-0.2,1.3-1.3,3.4-1.7C369.3,317.8,371,318.5,370.9,318.7z"/>
					</g>
					<g id="XMLID_82_">
						<path id="XMLID_83_" fill="#263238" d="M398.4,320.3c-0.2,0.2-1.6-0.6-3.6-1.2c-1.9-0.6-3.6-0.7-3.6-1c0-0.3,1.8-0.7,3.9,0
							C397.3,318.8,398.6,320.1,398.4,320.3z"/>
					</g>
				</g>
				<g id="XMLID_84_">
					<path id="XMLID_85_" fill="#263238" d="M366.9,334.7c0.1,0,0.3,0.3,0.4,1c0,0.6-0.2,1.5-0.7,2.4c-0.6,0.8-1.4,1.3-2,1.5
						c-0.6,0.2-1,0.1-1,0c0-0.3,1.3-0.7,2.2-2.1C366.6,336.1,366.6,334.8,366.9,334.7z"/>
				</g>
				<g id="XMLID_86_">
					<path id="XMLID_87_" fill="#263238" d="M397.7,337.8c0,0.1-0.3,0.3-0.8,0.4c-0.5,0-1.3-0.1-1.9-0.6c-0.7-0.5-1-1.2-1.1-1.7
						c-0.1-0.5,0-0.9,0.1-0.9c0.3,0,0.6,1,1.6,1.7C396.5,337.5,397.6,337.5,397.7,337.8z"/>
				</g>
			</g>
			<g id="XMLID_88_">
				<path id="XMLID_89_" fill="#E8505B" d="M422.9,334.7c0,0,0-0.2-0.1-0.7c0-0.5-0.1-1.1-0.1-2c0-0.4-0.1-0.9-0.1-1.5
					c-0.1-0.5-0.2-1.1-0.3-1.8c-0.1-0.6-0.2-1.3-0.3-2.1c-0.1-0.7-0.4-1.5-0.6-2.3c-0.7-3.3-2.3-7.1-4.7-11.2
					c-2.4-4.1-6-8.4-10.7-12c-0.6-0.4-1.2-0.9-1.8-1.4c-0.6-0.4-1.3-0.8-2-1.2c-0.7-0.4-1.3-0.9-2.1-1.2c-0.7-0.3-1.5-0.7-2.2-1.1
					c-0.4-0.2-0.7-0.4-1.1-0.5c-0.4-0.1-0.8-0.3-1.2-0.4c-0.8-0.3-1.6-0.6-2.4-0.9c-0.8-0.3-1.7-0.4-2.5-0.7
					c-0.8-0.2-1.7-0.5-2.6-0.6c-1.7-0.2-3.5-0.6-5.3-0.6c-0.9,0-1.8-0.1-2.7-0.1c-0.9,0-1.9,0.1-2.8,0.1c-0.5,0-0.9,0-1.4,0.1
					l-1.4,0.2c-0.9,0.2-1.9,0.3-2.8,0.5c-1.9,0.5-3.8,0.9-5.6,1.6c-1.9,0.6-3.7,1.5-5.5,2.4c-0.9,0.5-1.7,1-2.6,1.6
					c-0.4,0.3-0.9,0.5-1.3,0.8l-1.2,0.9c-1.7,1.2-3.2,2.6-4.8,4.1c-0.7,0.8-1.4,1.6-2.1,2.4l-0.5,0.6l-0.5,0.6l-1,1.3l-1,1.3
					l-0.8,1.4l-0.8,1.4l-0.4,0.7l-0.4,0.7c-0.5,1-1,2-1.4,3c-0.4,1-0.8,2.1-1.1,3.1c-1.4,4.2-2.1,8.7-2.2,13.3
					c0.1,4.6,0.8,9.1,2.2,13.3c0.4,1,0.8,2.1,1.1,3.1c0.5,1,1,2,1.4,3l0.4,0.7l0.4,0.7l0.8,1.4l0.8,1.4l1,1.3l1,1.3l0.5,0.6l0.5,0.6
					c0.7,0.8,1.4,1.6,2.1,2.4c1.6,1.4,3.1,2.9,4.8,4.1l1.2,0.9c0.4,0.3,0.9,0.5,1.3,0.8c0.9,0.5,1.7,1.1,2.6,1.6
					c1.8,0.9,3.6,1.8,5.5,2.4c1.8,0.8,3.8,1.1,5.6,1.6c0.9,0.2,1.9,0.3,2.8,0.5l1.4,0.2c0.5,0.1,0.9,0.1,1.4,0.1
					c0.9,0,1.9,0.1,2.8,0.1c0.9,0,1.8-0.1,2.7-0.1c1.8,0,3.6-0.4,5.3-0.6c0.9-0.1,1.7-0.4,2.6-0.6c0.8-0.2,1.7-0.4,2.5-0.7
					c0.8-0.3,1.6-0.6,2.4-0.9c0.4-0.1,0.8-0.3,1.2-0.4c0.4-0.2,0.7-0.4,1.1-0.5c0.7-0.4,1.5-0.7,2.2-1.1c0.7-0.3,1.4-0.8,2.1-1.2
					c0.7-0.4,1.3-0.8,2-1.2c0.6-0.5,1.2-0.9,1.8-1.4c4.8-3.6,8.3-7.9,10.7-12c2.4-4.1,3.9-8,4.7-11.2c0.2-0.8,0.5-1.6,0.6-2.3
					c0.1-0.7,0.2-1.4,0.3-2.1c0.1-0.6,0.2-1.2,0.3-1.8c0-0.5,0.1-1,0.1-1.5c0.1-0.9,0.1-1.5,0.1-2
					C422.8,334.9,422.9,334.7,422.9,334.7s0,0.2,0,0.7c0,0.5,0,1.1-0.1,2c0,0.4,0,0.9-0.1,1.5c0,0.5-0.2,1.1-0.2,1.8
					c-0.1,0.6-0.2,1.3-0.3,2.1c-0.1,0.7-0.3,1.5-0.5,2.3c-0.7,3.3-2.2,7.2-4.6,11.3c-2.4,4.1-5.9,8.4-10.8,12.1
					c-0.6,0.5-1.2,0.9-1.8,1.4c-0.6,0.4-1.3,0.8-2,1.2c-0.7,0.4-1.3,0.9-2.1,1.2c-0.7,0.4-1.5,0.7-2.2,1.1c-0.4,0.2-0.7,0.4-1.1,0.5
					c-0.4,0.1-0.8,0.3-1.2,0.4c-0.8,0.3-1.6,0.6-2.4,0.9c-0.8,0.3-1.7,0.4-2.5,0.7c-0.9,0.2-1.7,0.5-2.6,0.6
					c-1.8,0.3-3.5,0.6-5.4,0.6c-0.9,0-1.8,0.1-2.8,0.1c-0.9,0-1.9-0.1-2.8-0.1c-0.5,0-1,0-1.4-0.1l-1.4-0.2
					c-0.9-0.2-1.9-0.3-2.9-0.5c-1.9-0.5-3.8-0.9-5.7-1.7c-1.9-0.6-3.7-1.6-5.6-2.4c-0.9-0.5-1.8-1.1-2.7-1.6
					c-0.4-0.3-0.9-0.5-1.3-0.8l-1.3-0.9c-1.7-1.2-3.3-2.7-4.8-4.1c-0.7-0.8-1.4-1.6-2.2-2.4l-0.5-0.6l-0.5-0.6l-1-1.3l-1-1.3
					l-0.9-1.4l-0.9-1.4l-0.4-0.7l-0.4-0.7c-0.5-1-1-2-1.5-3c-0.4-1-0.8-2.1-1.2-3.2c-1.4-4.3-2.1-8.8-2.2-13.5
					c0.1-4.6,0.8-9.2,2.2-13.5c0.4-1.1,0.8-2.1,1.2-3.2c0.5-1,1-2,1.4-3l0.4-0.7l0.4-0.7l0.9-1.4l0.9-1.4l1-1.3l1-1.3l0.5-0.6
					l0.5-0.6c0.7-0.8,1.5-1.6,2.2-2.4c1.6-1.4,3.1-2.9,4.8-4.1l1.3-0.9c0.4-0.3,0.9-0.6,1.3-0.8c0.9-0.5,1.8-1.1,2.7-1.6
					c1.9-0.9,3.7-1.8,5.6-2.4c1.9-0.8,3.8-1.2,5.7-1.7c1-0.2,1.9-0.3,2.9-0.5l1.4-0.2c0.5-0.1,1-0.1,1.4-0.1c0.9,0,1.9-0.1,2.8-0.1
					c0.9,0,1.9,0.1,2.8,0.1c1.8,0,3.6,0.4,5.4,0.6c0.9,0.1,1.7,0.4,2.6,0.6c0.8,0.2,1.7,0.4,2.5,0.7c0.8,0.3,1.6,0.6,2.4,0.9
					c0.4,0.1,0.8,0.3,1.2,0.4c0.4,0.2,0.8,0.4,1.1,0.5c0.7,0.4,1.5,0.7,2.2,1.1c0.7,0.3,1.4,0.8,2.1,1.2c0.7,0.4,1.4,0.8,2,1.2
					c0.6,0.5,1.2,0.9,1.8,1.4c4.8,3.7,8.3,8,10.8,12.1c2.4,4.1,3.9,8,4.6,11.3c0.2,0.8,0.5,1.6,0.5,2.3c0.1,0.7,0.2,1.4,0.3,2.1
					c0.1,0.6,0.2,1.2,0.2,1.8c0,0.5,0,1,0.1,1.5c0,0.9,0.1,1.5,0.1,2C422.9,334.5,422.9,334.7,422.9,334.7z"/>
			</g>
		</g>
		<rect x="221.8" y="214.9" fill="#E0E0E0" width="309.3" height="15.4"/>
		<circle id="XMLID_90_" fill="#FFFFFF" cx="229.7" cy="222.1" r="2.1"/>
		<circle id="XMLID_91_" fill="#FFFFFF" cx="236.6" cy="222.1" r="2.1"/>
		<circle id="XMLID_92_" fill="#FFFFFF" cx="243.6" cy="222.1" r="2.1"/>
		<g id="XMLID_93_">
			<path id="XMLID_94_" fill="#E0E0E0" d="M497,277.7c0,0.1-53.7,0.3-119.9,0.3c-66.2,0-119.9-0.1-119.9-0.3
				c0-0.1,53.7-0.3,119.9-0.3C443.4,277.4,497,277.5,497,277.7z"/>
		</g>
		<g id="XMLID_95_">
			<path id="XMLID_96_" fill="#E0E0E0" d="M497,283.6c0,0.1-53.7,0.3-119.9,0.3c-66.2,0-119.9-0.1-119.9-0.3
				c0-0.1,53.7-0.3,119.9-0.3C443.4,283.4,497,283.5,497,283.6z"/>
		</g>
	</g>
</g>
<g id="Character">
	<g>
		<g id="XMLID_98_">
			<g id="XMLID_99_">
				<g id="XMLID_100_">
					<path id="XMLID_101_" fill="#455A64" d="M339.7,208.3c0,0-2.1-4.8-2.5-5.8c-1.1-2.9-8-22.1-6.3-25c7.7-13.5,13.6-23,28.8-23
						l26.7-0.2c0,0,25.3-5.2,43.2,52.4L339.7,208.3z"/>
					<path id="XMLID_102_" fill="#455A64" d="M283.3,213.2l35-7.5l41.1-21.6l0.2-29.5c-6.2-1.7-18,2.6-39.3,13.4l-31.6,16.3
						C277.9,189.8,275.3,204,283.3,213.2L283.3,213.2z"/>
				</g>
				<g id="XMLID_103_">
					<g id="XMLID_104_">
						<g id="XMLID_105_">
							<path fill="#B77153" d="M362.1,270.3c-0.5-1.7-0.2-2.7,2.3-1.9c5.3,1.8,10.1,1.2,11.3,0.2c1.2-1,0.1-3-1.6-2.9
								c-1.4,0.1-3.8-0.3-5.6-0.8c-1.5-0.4-2.9-0.9-4.2-1.8c-1.1-0.7-2.1-1.4-2.9-2c0,0-4.9-3.6-6.5-6.4l-16.9,7.2l2.7,8.5
								c0,0,0.9,5,5.7,6.6c4.8,1.6,12.5,1,12.5,1c1.4-0.9,6.8,6.9,8.5,9.7c1.6,2.7,3.6,3.1,4.2,1.4c0.4-1.2-4.4-9.8-6.1-12.5
								C364.5,275.2,362.7,272.3,362.1,270.3"/>
						</g>
						<g id="XMLID_106_">
							<path id="XMLID_107_" fill="#995037" d="M350.6,278c0,0.1-0.4,0-1-0.2c-0.6-0.3-1.3-0.9-1.8-1.7c-0.5-0.9-0.6-1.8-0.5-2.4
								c0.1-0.6,0.3-1,0.3-1c0.2,0-0.2,1.6,0.7,3.1C349.2,277.4,350.7,277.9,350.6,278z"/>
						</g>
						<g id="XMLID_108_">
							<path id="XMLID_109_" fill="#995037" d="M356,278.2c0,0.1-0.4,0-0.9-0.3c-0.5-0.3-1.2-0.9-1.6-1.7c-0.4-0.8-0.6-1.7-0.5-2.3
								c0.1-0.6,0.2-1,0.3-0.9c0.2,0-0.1,1.5,0.7,3C354.7,277.6,356,278.1,356,278.2z"/>
						</g>
					</g>
					<g id="XMLID_110_">
						<path fill="#455A64" d="M282.3,212c0,0,53.6,61.6,53.6,60.6c-0.1-1,24-19,24-19L307.3,191L282.3,212z"/>
						<g id="XMLID_111_">
							<path id="XMLID_112_" fill="#263238" d="M314.8,199.9c0,0,0.1,0.1,0.4,0.4c0.3,0.3,0.6,0.7,1,1.1c0.9,1,2.1,2.4,3.6,4.2
								c3,3.5,7.2,8.4,11.7,13.9c4.6,5.4,8.7,10.4,11.6,14c1.4,1.8,2.6,3.2,3.5,4.3c0.4,0.5,0.7,0.9,0.9,1.2
								c0.2,0.3,0.3,0.4,0.3,0.4c0,0-0.1-0.1-0.4-0.4c-0.3-0.3-0.6-0.7-1-1.1c-0.9-1-2.1-2.4-3.6-4.2c-3-3.5-7.2-8.4-11.7-13.9
								c-4.6-5.4-8.7-10.4-11.6-14c-1.4-1.8-2.6-3.2-3.5-4.3c-0.4-0.5-0.7-0.9-0.9-1.2C314.9,200.1,314.8,199.9,314.8,199.9z"/>
						</g>
					</g>
				</g>
				<g id="XMLID_113_">
					<path id="XMLID_114_" fill="#263238" d="M409.7,207c-0.1,0,0.6-1.5,0.6-3.9c0-1.2-0.2-2.7-0.7-4.2c-0.5-1.5-1.5-3.1-2.8-4.4
						c-1.3-1.4-2.7-2.5-3.8-3.8c-1.1-1.2-2-2.5-2.4-3.7c-0.5-1.2-0.5-2.3-0.4-3c0.1-0.7,0.3-1.1,0.3-1.1c0.1,0-0.5,1.6,0.5,3.9
						c0.5,1.1,1.3,2.4,2.4,3.5c1.1,1.2,2.5,2.4,3.9,3.8c1.3,1.4,2.4,3,2.9,4.6c0.5,1.6,0.7,3.1,0.6,4.4c-0.1,1.3-0.3,2.3-0.6,2.9
						C409.9,206.7,409.7,207,409.7,207z"/>
				</g>
				<g id="XMLID_115_">
					<path id="XMLID_116_" fill="#263238" d="M337.4,159.6c0,0,0.3-0.1,0.8-0.4c0.5-0.2,1.3-0.5,2.3-0.8c1-0.3,2.3-0.6,3.8-0.8
						c1.5-0.1,3.3-0.1,5.2,0.5c1.9,0.6,3.7,1.7,5.3,3.4c1.6,1.7,2.6,4,3.2,6.5c0.5,2.5,0.8,5.2,0.5,8c-0.3,2.8-1.2,5.6-3,8
						c-1.7,2.4-4.1,4.2-6.4,5.7c-2.3,1.5-4.7,2.7-6.9,3.9c-4.5,2.3-8.5,4.5-11.9,6.3c-3.4,1.7-6.1,3.2-8,4.2
						c-0.9,0.5-1.7,0.8-2.2,1.1c-0.5,0.2-0.8,0.4-0.8,0.4c0,0,0.2-0.2,0.7-0.5c0.5-0.3,1.3-0.7,2.2-1.2c1.9-1,4.6-2.5,8-4.3
						c3.4-1.8,7.4-4,11.8-6.3c2.2-1.2,4.6-2.4,6.9-3.9c2.3-1.5,4.6-3.2,6.3-5.6c1.7-2.3,2.6-5.1,2.9-7.8c0.3-2.7,0-5.4-0.5-7.8
						c-0.5-2.4-1.5-4.7-3-6.3c-1.5-1.6-3.3-2.8-5.1-3.3c-1.8-0.6-3.5-0.6-5-0.5c-1.5,0.1-2.8,0.4-3.8,0.7c-1,0.3-1.8,0.6-2.3,0.7
						C337.7,159.5,337.4,159.6,337.4,159.6z"/>
				</g>
				<g id="XMLID_117_">
					<path id="XMLID_118_" fill="#263238" d="M320.7,205.6c-0.2,0-0.6-3.5-3-7.1c-2.3-3.6-5.4-5.5-5.3-5.7c0-0.1,0.8,0.3,2,1.2
						c1.1,0.9,2.6,2.3,3.8,4.1c1.2,1.9,1.9,3.7,2.2,5.1C320.8,204.7,320.8,205.6,320.7,205.6z"/>
				</g>
				<g id="XMLID_119_">
					<path id="XMLID_120_" fill="#FAFAFA" d="M399.5,198.9c0,0-0.4,0.2-1.1,0.3c-0.8,0.2-1.9,0.3-3.4,0.1c-1.5-0.1-3.3-0.6-5.1-1.7
						c-1.8-1.1-3.6-2.8-4.7-5.3c-1.1-2.4-1.5-5.5-0.6-8.5c0.5-1.5,1.4-3,2.8-3.9c0.7-0.5,1.7-0.7,2.6-0.5c0.9,0.2,1.7,0.8,2.2,1.5
						c2,3,2.4,7,1.2,10.7c-0.6,1.8-1.6,3.6-3,5c-1.4,1.4-3.2,2.4-5.2,2.9c-3.9,1-8.3,0.1-11.1-2.6c-2.8-2.7-3.9-6.7-3.3-10.2
						c0.3-1.8,1-3.4,2-4.7c0.5-0.6,1.2-1.2,2-1.5c0.8-0.3,1.7-0.3,2.5,0c1.5,0.7,2.4,2.2,2.6,3.6c0.2,1.5-0.3,2.9-0.8,4.1
						c-1.2,2.4-2.7,4.3-4.3,5.7c-1.5,1.4-3.1,2.4-4.4,3.1c-1.3,0.7-2.4,1.1-3.1,1.3c-0.4,0.1-0.7,0.2-0.8,0.2
						c-0.2,0-0.3,0.1-0.3,0.1c0,0,0.1,0,0.3-0.1c0.2-0.1,0.5-0.1,0.8-0.3c0.7-0.3,1.8-0.7,3.1-1.4c1.3-0.7,2.8-1.7,4.3-3.1
						c1.5-1.4,3-3.3,4.1-5.6c0.5-1.2,0.9-2.5,0.7-3.9c-0.2-1.3-1-2.7-2.4-3.3c-0.7-0.3-1.4-0.3-2.1,0c-0.7,0.3-1.3,0.8-1.8,1.4
						c-1,1.3-1.7,2.8-1.9,4.5c-0.5,3.3,0.5,7.2,3.2,9.7c2.7,2.6,6.9,3.5,10.6,2.5c1.9-0.5,3.6-1.5,5-2.8c1.4-1.3,2.3-3,2.9-4.8
						c0.6-1.8,0.8-3.6,0.6-5.4c-0.1-0.9-0.3-1.7-0.6-2.6c-0.3-0.8-0.6-1.6-1.1-2.3c-0.5-0.7-1.2-1.2-1.9-1.3c-0.8-0.2-1.6,0-2.2,0.5
						c-1.3,0.8-2.2,2.2-2.6,3.6c-0.9,2.9-0.5,5.9,0.6,8.2c1,2.4,2.7,4.1,4.5,5.2c1.8,1.1,3.5,1.5,5,1.7
						C398,199.4,399.5,198.8,399.5,198.9z"/>
				</g>
				<g id="XMLID_121_">
					<g id="XMLID_122_">
						<path id="XMLID_123_" fill="#995037" d="M403.6,138.9c-1.1-1.4-2-3-2.4-4.8c-0.1-0.6-0.2-1.2-0.1-1.7c0.2-0.6,0.7-1,1.3-1
							c0.6,0.1,1,0.6,1.3,1.1c0.9,1.5,1.9,3,2.5,4.7c0.2,0.5,0.3,0.9,0.3,1.4c0,0.5-0.3,1-0.7,1.2c-0.5,0.2-1.1,0.1-1.5-0.2
							c-0.4-0.3-0.7-0.8-1-1.2"/>
						<path id="XMLID_124_" fill="#995037" d="M406.2,137.8c-0.9-1.8-1.8-3.7-2.6-5.5c-0.3-0.5-0.5-1.1-0.5-1.7s0.3-1.3,0.9-1.5
							c0.5-0.2,1.1,0,1.5,0.4c0.4,0.4,0.6,0.8,0.9,1.3c0.4,0.8,0.8,1.6,1.2,2.4c0.3,0.7,0.7,1.3,0.8,2.1c0.1,0.7,0,1.5-0.4,2.1
							c-0.5,0.6-1.3,0.8-2,0.5"/>
						<path id="XMLID_125_" fill="#B77153" d="M394.4,154.9c0,0-3.7-4.8-4-7.3c-0.3-2.5,2.8-7,9.4-8c3.5-0.5,5.6-1.5,6.8-2.3
							c0.8-0.6,1.2-1.6,0.8-2.6c-0.9-2.1-2.4-6-2.3-6.5c0.3-1.3,1.2-1.3,3.5,2c2.3,3.3,4.9,6.7,4.4,8.3c-0.5,1.5-8.6,6.3-8.6,6.3
							l2.2,3.6L394.4,154.9z"/>
					</g>
					<path id="XMLID_126_" fill="#455A64" d="M416.3,203.9l-25.4-49.7l16.3-9.2l34.3,54.4c0,0,1.8,3.5,4.3,7.5h-28.8"/>
				</g>
			</g>
			<g id="XMLID_127_">
				<path id="XMLID_128_" fill="#263238" d="M407,145.1c0,0-0.1,0.1-0.3,0.2c-0.2,0.1-0.5,0.3-0.9,0.5c-0.8,0.5-1.9,1.1-3.3,1.9
					c-2.9,1.7-6.9,4-11.8,6.7l0.1-0.3c2.5,5,5.7,10.9,8.9,17.2c4.8,9.4,9,17.9,11.9,24.2c1.5,3.1,2.6,5.7,3.4,7.4
					c0.4,0.8,0.7,1.5,0.9,2c0.2,0.5,0.3,0.7,0.3,0.7c0,0-0.1-0.2-0.4-0.7c-0.2-0.5-0.6-1.2-1-2c-0.9-1.8-2.1-4.3-3.6-7.3
					c-3-6.2-7.2-14.7-12-24.1c-3.2-6.3-6.4-12.2-8.8-17.2l-0.1-0.2l0.2-0.1c4.9-2.7,9-4.9,11.9-6.6c1.4-0.8,2.5-1.4,3.3-1.8
					c0.4-0.2,0.7-0.3,0.9-0.5C406.8,145.1,407,145.1,407,145.1z"/>
			</g>
			<g id="XMLID_129_">
				<path id="XMLID_130_" fill="#263238" d="M339.7,208.3c-0.1,0.1-1.5-2.4-2.7-5.6c-1.2-3.3-1.6-6-1.5-6.1c0.2,0,0.8,2.7,2,5.9
					C338.6,205.8,339.8,208.3,339.7,208.3z"/>
			</g>
		</g>
		<g id="XMLID_131_">
			<path id="XMLID_132_" fill="#263238" d="M395.6,135.1c4,1.6,8.9,0.2,11.6-3.2c2.6-3.4,2.7-8.5,0.3-12c5.7-1.4,9.3-8.1,8.1-13.9
				c-1.2-5.8-6.3-10.3-12.1-11.6c-2.2-0.5-4.6-0.5-6.7,0.2c-2.1,0.7-4.1,2.2-5,4.3"/>
			<g id="XMLID_133_">
				<path id="XMLID_134_" fill="#E8505B" d="M394.8,122.1c0,0.1-0.7,0.2-2,0.8c-1.2,0.6-2.8,1.9-3.8,4.1c-0.5,1.1-0.8,2.4-0.7,3.8
					c0.1,1.4,0.5,2.9,1.4,4.2c0.4,0.7,1,1.3,1.6,1.8c0.6,0.5,1.3,1,2.1,1.3c1.6,0.7,3.4,0.9,5.2,0.5c1.8-0.4,3.4-1.4,4.5-2.7
					c0.6-0.6,1-1.4,1.3-2.1c0.3-0.8,0.6-1.5,0.6-2.3c0.2-1.6-0.1-3.1-0.6-4.4c-0.5-1.3-1.4-2.4-2.3-3.1c-1.9-1.6-3.9-2-5.2-2.1
					C395.5,122,394.8,122.2,394.8,122.1c0,0,0.2-0.1,0.5-0.1c0.4-0.1,0.9-0.2,1.6-0.2c1.4,0,3.5,0.4,5.5,2c1,0.8,1.9,1.9,2.5,3.2
					c0.6,1.4,0.9,3,0.7,4.6c-0.1,0.8-0.3,1.7-0.7,2.5c-0.3,0.8-0.8,1.6-1.4,2.3c-1.2,1.4-2.9,2.4-4.8,2.9c-1.9,0.4-3.9,0.2-5.5-0.5
					c-0.8-0.4-1.6-0.8-2.3-1.4c-0.7-0.6-1.2-1.2-1.7-1.9c-0.9-1.4-1.3-3-1.4-4.5c-0.1-1.5,0.3-2.9,0.8-4c1.1-2.3,2.8-3.6,4.1-4.2
					c0.6-0.3,1.1-0.5,1.5-0.5C394.6,122.1,394.8,122.1,394.8,122.1z"/>
			</g>
			<path id="XMLID_135_" fill="#263238" d="M399.1,106.4c4.1-0.2,8-3.4,9-7.4c1-4-0.8-8.6-4.3-10.8c1.7-4.8,0-10.6-4-13.7
				c-4-3.1-10-3.4-14.3-0.6c-3.2-5.7-10.2-9-16.6-8c-6.5,1-12,6.4-13.3,12.8c-5.8-2.4-13-0.9-17.4,3.7c-4.3,4.6-5.5,11.9-2.7,17.5
				c-6.3,0.5-11.6,6.8-11,13.1c0.5,6.3,6.8,11.6,13.1,11.1c-1.3,4.2,0.3,9.1,3.9,11.7c3.5,2.6,8.7,2.7,12.4,0.3
				c2.3,3.8,6.9,6,11.3,5.5c4.4-0.5,8.3-3.7,9.8-7.9"/>
			<g id="XMLID_136_">
				<g id="XMLID_137_">
					<g id="XMLID_138_">
						<path fill="#B77153" d="M387.1,153.3c0.2-4.9,0.5-9.3,0.5-9.3s10.9-1.4,11.4-12.5c0.5-11.1-0.6-36.7-0.6-36.7l-20-9.6
							l-21.6,17.4l3.4,51c0.5,7.4,6.8,13,14.1,12.6l0,0C381.2,165.9,386.8,160.3,387.1,153.3z"/>
					</g>
					<g id="XMLID_139_">
						<g id="XMLID_140_">
							<g id="XMLID_141_">
								<path fill="#263238" d="M397.7,113.8c-0.2,0.2-1.2-0.7-2.7-0.7c-1.5-0.1-2.6,0.7-2.8,0.5c-0.1-0.1,0.1-0.4,0.6-0.8
									c0.5-0.4,1.3-0.7,2.2-0.6c0.9,0,1.7,0.4,2.1,0.8C397.7,113.4,397.8,113.8,397.7,113.8z"/>
							</g>
						</g>
					</g>
					<g id="XMLID_142_">
						<g id="XMLID_143_">
							<g id="XMLID_144_">
								<path fill="#263238" d="M381.2,113.8c-0.2,0.2-1.2-0.7-2.7-0.7c-1.5-0.1-2.6,0.7-2.8,0.5c-0.1-0.1,0.1-0.4,0.6-0.8
									c0.5-0.4,1.3-0.7,2.2-0.6c0.9,0,1.7,0.4,2.1,0.8C381.1,113.4,381.3,113.8,381.2,113.8z"/>
							</g>
						</g>
					</g>
					<g id="XMLID_145_">
						<g id="XMLID_146_">
							<path fill="#263238" d="M386.8,125c0-0.1,0.9-0.2,2.4-0.4c0.4,0,0.7-0.1,0.8-0.4c0.1-0.3-0.1-0.7-0.2-1.2
								c-0.3-1-0.7-2.1-1.1-3.2c-1.5-4.5-2.6-8.2-2.4-8.2c0.2-0.1,1.5,3.5,3,8c0.4,1.1,0.7,2.2,1,3.2c0.1,0.5,0.4,1,0.2,1.6
								c-0.1,0.3-0.4,0.5-0.6,0.6c-0.2,0.1-0.5,0.1-0.6,0.1C387.8,125.2,386.8,125.1,386.8,125z"/>
						</g>
					</g>
					<g id="XMLID_147_">
						<path fill="#995037" d="M387.5,144c0,0-7.3,0.2-14.4-4.7c0,0,3.4,8.1,14.2,7.4L387.5,144z"/>
					</g>
				</g>
			</g>
			<path id="XMLID_148_" fill="#263238" d="M372.1,85.8c-3.6,4.9-3.5,12.2,0.2,17c1.6,2.1,4.1,3.9,6.7,3.8c2.7-0.1,5.3-2.6,4.7-5.2
				c-1,3.3,1.7,7.1,5.2,7.2c3.4,0.1,6.3-3.7,5.4-7c0.3,1.2,0.6,2.4,1.2,3.4c0.7,1,1.9,1.8,3.1,1.6c1.7-0.2,2.6-2,3-3.7
				c1.1-4.9-0.7-10.3-4.3-13.8c-3.6-3.5-8.8-5.2-13.9-4.9c-5,0.3-9.9,2.6-13.6,6"/>
			<path id="XMLID_149_" fill="#263238" d="M373.5,89.7c1.3,3.2,2.3,6.5,2.2,10c0,3.4-1.2,6.9-3.6,9.4c-2.4,2.4-6.3,3.5-9.4,2.3
				c0.8,3,0.5,6.4-1.4,8.9c-1.9,2.5-5.5,3.7-8.2,2.2c-2.5-1.3-3.5-4.3-3.9-7.1c-0.8-6.7,1.6-13.8,6.3-18.6
				c4.7-4.8,11.7-7.4,18.4-6.8"/>
			<g id="XMLID_150_">
				<g id="XMLID_151_">
					<path id="XMLID_152_" fill="#B77153" d="M359.8,116.2c-1.5-0.9-3.5-0.2-4.7,1.1c-1.9,2-2.2,5.3-0.8,7.6
						c1.4,2.3,4.5,3.6,7.1,2.9"/>
					<g id="XMLID_153_">
						<path id="XMLID_154_" fill="#995037" d="M359.4,124.5c0,0.1-0.5,0.1-1.3-0.1c-0.7-0.2-1.9-0.8-2.3-2c-0.2-0.6-0.2-1.3,0.1-1.8
							c0.2-0.5,0.6-0.9,0.9-1.1c0.7-0.5,1.2-0.4,1.2-0.4c0,0.1-0.4,0.2-1,0.7c-0.5,0.4-1.1,1.4-0.7,2.4c0.3,1,1.3,1.6,1.9,1.9
							C359,124.3,359.4,124.4,359.4,124.5z"/>
					</g>
				</g>
			</g>
			<g id="XMLID_155_">
				<path id="XMLID_156_" fill="#263238" d="M382.1,109.2c-0.1,0.4-1.8,0.3-3.7,0.4c-1.9,0.1-3.5,0.3-3.7-0.1
					c-0.2-0.4,1.4-1.4,3.7-1.5C380.6,107.9,382.3,108.8,382.1,109.2z"/>
			</g>
			<g id="XMLID_157_">
				<path id="XMLID_158_" fill="none" stroke="#4E585D" stroke-miterlimit="10" d="M377.8,108.4"/>
			</g>
			<g id="XMLID_159_">
				<path id="XMLID_160_" fill="#263238" d="M397.7,108.9c-0.2,0.2-0.5,0.1-0.9,0c-0.4-0.1-0.8-0.1-1.4-0.1
					c-0.6,0.1-1.2,0.2-1.7,0.2c-0.5,0-0.8-0.1-0.9-0.3c-0.1-0.2,0.2-0.5,0.6-0.8c0.4-0.3,1-0.6,1.9-0.7c0.9-0.1,1.8,0.3,2.1,0.8
					C397.8,108.4,397.8,108.8,397.7,108.9z"/>
			</g>
			<path id="XMLID_161_" fill="#995037" d="M384.2,127.9c0.8-0.5,1.9-0.7,2.8-0.4c0.9,0.3,1.6,1.3,1.4,2.3c-0.1,0.5-0.5,1-0.9,1.3
				c-0.7,0.5-1.5,0.7-2.3,0.6c-0.8-0.2-1.5-0.8-1.7-1.6c-0.2-0.8,0.2-1.7,0.9-2.1"/>
			<g id="XMLID_162_">
				<path id="XMLID_163_" fill="#263238" d="M389.7,129.1c0,0.1-0.4,0.3-1.1,0.5c-0.7,0.2-1.8,0.2-2.8-0.3c-1-0.4-1.8-1.2-2.2-1.8
					c-0.4-0.6-0.5-1.1-0.4-1.1c0.1,0,0.3,0.4,0.7,0.9c0.4,0.5,1.1,1.1,2.1,1.5c0.9,0.4,1.9,0.4,2.6,0.4
					C389.2,129.1,389.6,129,389.7,129.1z"/>
			</g>
			<g id="XMLID_164_">
				<path id="XMLID_165_" fill="#E8505B" d="M367.1,134.4c-0.1,0,0-0.8-0.4-2.1c-0.3-1.3-1.2-3.2-3.2-4.6c-1-0.7-2.2-1.3-3.6-1.6
					c-1.4-0.2-2.9-0.2-4.4,0.4c-0.7,0.3-1.5,0.7-2.1,1.2c-0.7,0.5-1.3,1.1-1.8,1.8c-1,1.4-1.6,3.1-1.6,5c0,1.8,0.6,3.6,1.6,5
					c0.5,0.7,1.1,1.3,1.8,1.8c0.7,0.5,1.4,0.9,2.1,1.2c1.5,0.6,3,0.6,4.4,0.4c1.4-0.2,2.6-0.8,3.6-1.6c1.9-1.5,2.8-3.4,3.2-4.6
					C367.1,135.1,367.1,134.4,367.1,134.4c0,0,0,0.2,0,0.6c0,0.4,0,0.9-0.2,1.6c-0.3,1.3-1.1,3.3-3.1,4.9c-1,0.8-2.3,1.4-3.7,1.7
					c-1.5,0.3-3.1,0.2-4.7-0.4c-0.8-0.3-1.6-0.7-2.3-1.2c-0.7-0.5-1.4-1.1-1.9-1.9c-1.1-1.5-1.7-3.3-1.7-5.3c0-1.9,0.6-3.8,1.7-5.3
					c0.5-0.7,1.2-1.4,1.9-1.9c0.7-0.5,1.5-0.9,2.3-1.2c1.6-0.6,3.2-0.6,4.7-0.4c1.5,0.3,2.7,0.9,3.7,1.7c2,1.6,2.8,3.6,3.1,4.9
					c0.2,0.7,0.2,1.2,0.2,1.6C367.2,134.2,367.1,134.4,367.1,134.4z"/>
			</g>
			<g id="XMLID_166_">
				<path id="XMLID_167_" fill="#455A64" d="M397.7,84.7c0,0,0.1,0,0.3,0.1c0.2,0.1,0.4,0.2,0.7,0.4c0.5,0.5,1.1,1.5,0.9,2.9
					c-0.2,1.4-1.6,2.7-3.5,3.1c-1.9,0.4-4-0.3-5.9-1.4l-2.1-1.2l2.3,0.7c0.8,0.3,1.3,1,1.5,1.8c0.2,0.8,0.1,1.7-0.3,2.4
					c-0.4,0.7-1.2,1.2-2,1.4c-0.8,0.2-1.7,0.2-2.5-0.1c-2-0.6-3.3-2.3-4.4-3.8l-1.4-2.1l1.8,1.8c1,1,1.3,2.5,1,3.8
					c-0.3,1.3-1.2,2.3-2.2,2.8c-2.1,1-4.4,0.4-5.7-0.7c-1.3-1.1-1.9-2.4-2.2-3.2c-0.1-0.4-0.2-0.8-0.2-1c0-0.2,0-0.4,0-0.4
					c0,0,0.1,0.5,0.4,1.3c0.3,0.8,0.9,2,2.2,3c1.2,1,3.4,1.5,5.3,0.6c1-0.5,1.7-1.4,2-2.5c0.3-1.1,0-2.4-0.9-3.3l0.4-0.3
					c1,1.4,2.3,3,4.1,3.5c1.5,0.4,3.2,0.1,4-1.1c0.7-1.2,0.3-3-0.9-3.4l0.2-0.4c1.8,1.1,3.8,1.8,5.5,1.4c1.7-0.3,3-1.5,3.2-2.7
					c0.3-1.2-0.2-2.3-0.7-2.7C398.1,84.8,397.7,84.7,397.7,84.7z"/>
			</g>
			<g id="XMLID_168_">
				<path id="XMLID_169_" fill="#455A64" d="M371,102.5c0,0,0,0.1-0.1,0.2c-0.1,0.1-0.2,0.3-0.5,0.5c-0.4,0.4-1.2,1-2.2,1.3
					c-1.1,0.4-2.5,0.6-4,0.1c-1.5-0.5-3.1-1.6-4-3.4l0.4-0.1c-0.4,2.3-2.3,4.7-5,5.3c-2.7,0.6-6-0.8-7.3-3.7
					c-1.1-2.6-0.4-5.6,1.4-7.3l0.3,0.4c-1.2,1-2.8,1.5-4.2,1.5c-1.5,0-2.8-0.4-3.9-1.1c-1.1-0.7-1.9-1.7-2.4-2.8
					c-0.4-1.1-0.6-2.1-0.5-3.1c0.1-1.9,1-3.3,1.6-4.1c0.7-0.8,1.2-1,1.2-1c0,0-0.5,0.3-1.1,1.1c-0.6,0.8-1.4,2.1-1.5,4
					c0,0.9,0.1,1.9,0.5,2.9c0.4,1,1.2,1.9,2.2,2.6c1,0.6,2.3,1,3.7,1c1.4,0,2.8-0.5,3.9-1.4l0.3,0.4c-1.6,1.6-2.3,4.4-1.3,6.7
					c1.1,2.6,4.2,4,6.7,3.4c2.5-0.6,4.3-2.7,4.7-4.9l0.1-0.7l0.3,0.6c0.8,1.7,2.3,2.8,3.7,3.3c1.4,0.5,2.8,0.4,3.9,0
					c1-0.3,1.8-0.8,2.2-1.2C370.8,102.7,371,102.5,371,102.5z"/>
			</g>
			<g id="XMLID_170_">
				<path id="XMLID_171_" fill="#455A64" d="M351.2,120.3c0,0-0.3,0.3-0.9,0.5c-0.6,0.3-1.6,0.5-2.8,0.4c-1.2-0.1-2.7-0.6-3.8-1.9
					c-1.1-1.2-1.8-3.1-1.5-5.1l0.5,0.2c-0.9,1.2-2.2,2.3-3.8,3.1c-1.2,0.5-2.4,0.8-3.6,0.8c-1.2,0-2.4-0.4-3.4-0.9
					c-2-1.1-3.1-3-3.2-4.7c-0.1-1.7,0.5-3,1-3.8c0.3-0.4,0.6-0.6,0.7-0.8c0.2-0.1,0.3-0.2,0.3-0.2c0,0-0.4,0.3-0.9,1.1
					c-0.5,0.7-1,2-0.8,3.6c0.1,1.6,1.2,3.4,3,4.3c1.8,1,4.3,1.2,6.5,0.1c1.5-0.7,2.7-1.7,3.6-2.9l0.6-0.8l-0.2,1
					c-0.3,1.8,0.3,3.6,1.3,4.7c1,1.2,2.4,1.7,3.5,1.8c1.1,0.1,2.1-0.1,2.7-0.3C350.9,120.5,351.2,120.3,351.2,120.3z"/>
			</g>
			<g id="XMLID_172_">
				<path id="XMLID_173_" fill="#455A64" d="M407.8,98.7c0.1,0,0.3,0.7,0.2,1.8c-0.1,1.1-0.6,2.8-1.8,4.1c-1.3,1.3-2.9,1.9-4,2
					c-1.2,0.1-1.9-0.1-1.9-0.1c0-0.1,0.7,0,1.8-0.2c1.1-0.2,2.5-0.8,3.7-2c1.2-1.2,1.7-2.7,1.8-3.8
					C407.9,99.4,407.7,98.7,407.8,98.7z"/>
			</g>
			<g id="XMLID_174_">
				<path id="XMLID_175_" fill="#455A64" d="M414,109.1c0,0,0.2,0.2,0.3,0.8c0.1,0.5,0.1,1.3-0.2,2.2c-0.3,0.9-1.1,1.9-2.4,2.2
					c-0.6,0.1-1.4,0.1-2-0.2c-0.7-0.3-1.3-0.8-1.6-1.5l0.5-0.2c0.1,0.3,0.1,0.6,0.1,1c0,1.7-1.2,3.1-2.5,3.6c-0.7,0.2-1.4,0.2-2,0.1
					c-0.6-0.2-1.1-0.5-1.5-0.8c-0.8-0.7-1.1-1.5-1.2-2.1c-0.1-0.6,0-0.9,0-0.9c0,0,0,0.3,0.2,0.8c0.1,0.5,0.5,1.3,1.3,1.9
					c0.7,0.6,1.9,1,3.1,0.6c1.1-0.4,2.1-1.7,2.1-3.1c0-0.3,0-0.6-0.1-0.8l0.5-0.2c0.5,1.2,2,1.7,3,1.4c1.1-0.2,1.9-1.1,2.2-1.9
					c0.3-0.8,0.4-1.5,0.3-2C414,109.4,413.9,109.1,414,109.1z"/>
			</g>
			<g id="XMLID_176_">
				<path id="XMLID_177_" fill="#263238" d="M383.5,124c0.1,0,0.1,0.2,0,0.6c-0.1,0.3-0.3,0.8-0.7,1.1c-0.4,0.3-0.9,0.5-1.2,0.5
					c-0.3,0-0.6-0.1-0.6-0.1c0-0.2,0.8-0.2,1.5-0.8C383.1,124.7,383.3,124,383.5,124z"/>
			</g>
		</g>
	</g>
</g>
<g id="Plant">
	<g>
		<g id="XMLID_178_">
			<path id="XMLID_179_" fill="#CC75B1" d="M621.8,410.8c-2.5,3.6-7.3,2.4-9.6,0.2c-2.2-2.2-3.2-5.3-4.1-8.3c-2-6.9-4-14.1-2.5-21.1
				c0.4-2.1,1.2-4.2,2.7-5.7c1.5-1.6,3.7-2.5,5.8-1.9c2.4,0.6,4,3,5.1,5.3c3.2,6.7,4.9,14.1,5,21.6
				C624.2,404.3,623.8,407.9,621.8,410.8"/>
		</g>
		<g id="XMLID_180_" opacity="0.2">
			<path id="XMLID_181_" d="M621.8,410.8c-2.5,3.6-7.3,2.4-9.6,0.2c-2.2-2.2-3.2-5.3-4.1-8.3c-2-6.9-4-14.1-2.5-21.1
				c0.4-2.1,1.2-4.2,2.7-5.7c1.5-1.6,3.7-2.5,5.8-1.9c2.4,0.6,4,3,5.1,5.3c3.2,6.7,4.9,14.1,5,21.6
				C624.2,404.3,623.8,407.9,621.8,410.8"/>
		</g>
		<g id="XMLID_182_">
			<path id="XMLID_183_" fill="#BF529E" d="M612.5,428.8c-4.1-2.1-8.9-2.4-13.4-1.6c-2.4,0.4-5,1.1-6.6,3c-1.7,1.8-2,5-0.1,6.6
				c1.1,0.9,2.7,1.1,4.2,1.1c3.5,0,7.5-0.7,10.3,1.5c1.6,1.2,2.7,3.2,4.6,3.8c1.9,0.6,4-0.5,5-2.2c1-1.7,1-3.8,0.6-5.8
				C617.1,435.2,616.6,431,612.5,428.8z"/>
		</g>
		<g id="XMLID_184_">
			<path id="XMLID_185_" fill="#BF529E" d="M628.7,415.9c-2.7-3.2-3.2-7.9-2-11.9c1.2-4,3.9-7.5,7.1-10.3c3.7-3.3,8-5.8,12.7-7.5
				c1.8-0.6,3.8-1.2,5.7-1c1.9,0.2,3.9,1.2,4.8,2.9c1.3,2.5,0.1,5.6-1.3,8.1c-2.4,4.4-5.2,8.7-8.3,12.7c-2.5,3.2-5.3,6.4-9.1,7.8
				c-3.8,1.5-7.7,1.3-9.8-1.4"/>
		</g>
		<g id="XMLID_186_">
			<g id="XMLID_187_">
				<path id="XMLID_188_" fill="#263238" d="M622,464.6c0,0-0.1-0.6-0.2-1.6c-0.1-1.2-0.3-2.7-0.4-4.4c-0.2-1.9-0.5-4.1-1-6.5
					c-0.5-2.4-1.3-5-2.4-7.7c-1.1-2.6-2.4-5-3.9-6.9c-1.5-1.9-3.3-3.3-4.9-4.1c-1.7-0.8-3.1-1.1-4.2-1.3c-1-0.1-1.6-0.2-1.6-0.2
					c0,0,0.6-0.1,1.6,0c1.1,0.1,2.6,0.3,4.3,1.1c1.7,0.8,3.6,2.2,5.2,4.1c1.6,2,3,4.4,4.1,7.1c1.1,2.7,1.8,5.3,2.3,7.8
					c0.5,2.5,0.7,4.7,0.9,6.6c0.1,1.9,0.2,3.4,0.2,4.4C622,464,622,464.6,622,464.6z"/>
			</g>
		</g>
		<g id="XMLID_189_">
			<g id="XMLID_190_">
				<path id="XMLID_191_" fill="#263238" d="M621.7,461.2c0,0,0-0.3,0-0.8c0-0.6,0-1.3,0-2.1c0-1.9,0-4.6-0.1-7.9
					c-0.2-6.7-0.7-15.9-1.8-26c-1.1-10.1-2.6-19.2-3.9-25.8c-0.3-1.6-0.6-3.1-0.9-4.4c-0.3-1.3-0.5-2.4-0.8-3.3
					c-0.2-0.8-0.4-1.5-0.5-2.1c-0.1-0.5-0.2-0.7-0.1-0.7c0,0,0.1,0.2,0.3,0.7c0.2,0.5,0.4,1.2,0.6,2.1c0.3,0.9,0.6,2,0.9,3.3
					c0.3,1.3,0.7,2.8,1,4.4c1.5,6.5,3,15.6,4.1,25.8c1.1,10.1,1.6,19.4,1.7,26.1c0,3.3,0,6-0.1,7.9c-0.1,0.9-0.1,1.6-0.1,2.1
					C621.7,460.9,621.7,461.2,621.7,461.2z"/>
			</g>
		</g>
		<g id="XMLID_192_">
			<g id="XMLID_193_">
				<path id="XMLID_194_" fill="#263238" d="M621.6,443.4c0,0,0-0.8,0-2.2c0.1-1.4,0.3-3.5,0.7-6.1c0.4-2.5,1-5.6,2-8.9
					c0.9-3.3,2.1-6.9,3.7-10.5c3.1-7.3,7.3-13.3,10.9-17c0.9-1,1.8-1.7,2.6-2.4c0.4-0.3,0.7-0.7,1.1-0.9c0.4-0.2,0.7-0.5,1-0.7
					c1.2-0.8,1.9-1.2,1.9-1.2c0.1,0.1-2.7,1.8-6.2,5.5c-3.5,3.7-7.6,9.7-10.6,16.9c-1.6,3.6-2.8,7.1-3.7,10.4
					c-1,3.3-1.6,6.3-2.1,8.8c-0.5,2.5-0.7,4.6-0.9,6C621.8,442.6,621.7,443.4,621.6,443.4z"/>
			</g>
		</g>
	</g>
</g>
<g id="Speech_Bubble">
	<g>
		<g id="XMLID_195_">
			<g id="XMLID_196_">
				<path fill="#263238" d="M270.4,41.6c0,0-0.2,0-0.7,0.1c-0.5,0-1.2,0.1-2,0.2c-0.9,0-2,0.2-3.3,0.5c-0.6,0.1-1.4,0.2-2.1,0.4
					c-0.7,0.2-1.5,0.4-2.3,0.7c-3.2,1.1-7.1,2.7-11,5.6c-3.9,2.9-7.7,6.9-10.7,12.2c-1.6,2.6-2.7,5.6-3.7,8.7
					c-0.8,3.2-1.5,6.6-1.5,10.2c-0.1,1.8,0.1,3.6,0.2,5.4c0.1,0.9,0.3,1.8,0.4,2.8c0.1,0.9,0.3,1.9,0.6,2.8
					c0.8,3.7,2.4,7.3,4.3,10.8c3.9,7,10.4,13,18.4,16.4c4,1.7,8.4,2.6,12.9,2.7c4.5,0.2,9.1-0.5,13.4-2.1l1.3-0.5l0.2-0.1l0.2,0.1
					c6.5,3.2,12.8,6.3,19,9.4l-0.6,0.5c-2.1-6.2-4.1-12.3-6.1-18.1l-0.1-0.2l0.2-0.2c4.7-4.8,8-10.7,9.7-16.6c1.8-6,2-12,1.2-17.6
					c-0.8-5.6-2.7-10.6-5.1-14.8c-2.5-4.2-5.5-7.7-8.6-10.3c-3.2-2.7-6.4-4.4-9.3-5.8c-3-1.2-5.7-2-7.9-2.4
					c-1.1-0.2-2.1-0.3-2.9-0.5c-0.8,0-1.6-0.1-2.2-0.1c-0.6,0-1-0.1-1.3-0.1C270.6,41.6,270.4,41.6,270.4,41.6c0,0,0.2,0,0.5,0
					c0.3,0,0.8,0,1.3,0c0.6,0,1.3,0,2.2,0.1c0.9,0.1,1.9,0.3,3,0.4c2.2,0.4,4.9,1.1,8,2.3c3,1.3,6.3,3.1,9.5,5.8
					c3.2,2.7,6.3,6.1,8.8,10.4c2.5,4.3,4.5,9.4,5.3,15c0.8,5.6,0.6,11.8-1.2,17.9c-1.8,6.1-5.1,12-9.9,16.9l0.1-0.4
					c2,5.8,4,11.8,6.1,18.1l0.3,0.9l-0.9-0.4c-6.2-3-12.5-6.2-19-9.4l0.3,0l-1.3,0.5c-4.4,1.6-9.1,2.4-13.7,2.1
					c-4.6-0.1-9.1-1.1-13.2-2.8c-8.2-3.5-14.8-9.6-18.8-16.7c-2-3.5-3.6-7.3-4.4-11c-0.3-0.9-0.4-1.9-0.6-2.8
					c-0.1-0.9-0.3-1.9-0.4-2.8c-0.1-1.9-0.3-3.7-0.1-5.5c0-3.6,0.8-7.1,1.6-10.3c1-3.2,2.2-6.2,3.8-8.9c3.1-5.3,7-9.4,11-12.3
					c4-2.9,7.9-4.5,11.2-5.5c0.8-0.2,1.6-0.4,2.3-0.6c0.7-0.2,1.4-0.3,2.1-0.4c1.3-0.2,2.4-0.4,3.3-0.4c0.9,0,1.6-0.1,2-0.1
					C270.2,41.6,270.4,41.6,270.4,41.6z"/>
			</g>
		</g>
		<g id="XMLID_197_">
			<g id="XMLID_198_">
				<path fill="#CE3C95" d="M279.3,76.5l-2.8,0l-6.1-8.4l-0.1-5.5c0,0-4.3-0.2-3.7,7c0.6,7.2,0,5.4,0,5.4s-9.1,0.1-9.8,0.9
					c-0.5,0.6-0.7,9.6-0.7,14.5c0,2.5,1.5,4.7,3.8,5.3c0.3,0.1,0.7,0.1,1,0.1c2.3,0,13.8-2,13.8-2l4.8-0.1L279.3,76.5z"/>
			</g>
			<g id="XMLID_199_">
				<polygon fill="#CE3C95" points="287.2,74.9 285.8,93.8 281,93.9 280.8,75.3 				"/>
			</g>
		</g>
	</g>
</g>
</svg>
