<?xml version="1.0" encoding="utf-8"?>
<!-- Generator: Adobe Illustrator 19.0.0, SVG Export Plug-In . SVG Version: 6.00 Build 0)  -->
<svg version="1.1" id="OBJECTS" xmlns="http://www.w3.org/2000/svg" xmlns:xlink="http://www.w3.org/1999/xlink" x="0px" y="0px"
	 viewBox="0 0 750 500" enable-background="new 0 0 750 500" xml:space="preserve">
<g>
	<g id="XMLID_2_">
		<path fill="#E1B2D5" d="M87.3,444.4c0,0-2-41.9-3.6-62.3c-0.6-7.8,0-8.4,8.7-8.4c11.2,0,44.7,0,44.7,0s-3.5-81.4-5.3-105.5
			c-0.4-5-1.4-14.4,14.3-14.4c19.5,0.1,72.4,0.3,72.4,0.3s-2.2-38.6-2.3-50c0-3.4-1.4-9.5,9.6-9.5c15.3,0,61.1,0.2,61.1,0.2h128.8
			c0,0-0.5-27.1,0-38.4c0.2-4.5-0.5-10.6,14-11c29.9-0.7,73.5,0.5,96.4,0c7.1-0.2,11.7,4.1,11.6,10.6c-0.4,17.3,0,69.1,0,69.1
			s12.8,1,17.1,1.3c7.4,0.6,7.5,7,7.5,10.1c-0.1,10.2,0,31.6,0,31.6h26.9c0,0,1.2-56.4,0-81.8c-0.5-9.6,5.1-9,9.8-9.6
			c10.9-1.4,16.4-1.1,24.8-0.2c5.9,0.6,5.7,6.1,5.7,8.5c1.4,49.7,0,175.9,0,175.9s11.6,0.7,15,0.7c5.1,0,5.9,2.9,5.9,10.5
			c0,18.5,0,73.8,0,73.8L87.3,444.4z"/>
		<path fill="#FFFFFF" d="M153.5,265.9l-9.3,0.1c-1,0-1.7,0.8-1.7,1.8l0.5,9.3c0,1,0.8,1.7,1.8,1.7l8.7,0.1c1,0,1.7-0.8,1.7-1.8
			l0.1-9.5C155.2,266.7,154.4,265.9,153.5,265.9z"/>
		<path fill="#FFFFFF" d="M169.3,285.9l-7.9,0.1c-0.8,0-1.5,0.7-1.4,1.5l0.4,7.9c0,0.8,0.7,1.5,1.5,1.4l7.4,0.1
			c0.8,0,1.5-0.7,1.4-1.5l0.1-8.1C170.8,286.5,170.2,285.9,169.3,285.9z"/>
		<path fill="#FFFFFF" d="M155.2,304.8l-7.9,0.1c-0.8,0-1.5,0.7-1.4,1.5l0.4,7.9c0,0.8,0.7,1.5,1.5,1.4l7.4,0.1
			c0.8,0,1.5-0.7,1.4-1.5l0.1-8.1C156.7,305.4,156,304.8,155.2,304.8z"/>
		<path opacity="0.2" fill="#DB724E" d="M169.3,304.8l-7.9,0.1c-0.8,0-1.5,0.7-1.4,1.5l0.4,7.9c0,0.8,0.7,1.5,1.5,1.4l7.4,0.1
			c0.8,0,1.5-0.7,1.4-1.5l0.1-8.1C170.8,305.4,170.2,304.8,169.3,304.8z"/>
		<path fill="#FFFFFF" d="M619.9,279.2l-9.3,0.1c-1,0-1.7,0.8-1.7,1.8l0.5,9.3c0,1,0.8,1.7,1.8,1.7l8.7,0.1c1,0,1.7-0.8,1.7-1.8
			l0.1-9.5C621.7,280,620.9,279.2,619.9,279.2z"/>
		<path opacity="0.3" fill="#DB724E" d="M528.5,154.7l-9.3,0.1c-1,0-1.7,0.8-1.7,1.8l0.5,9.3c0,1,0.8,1.7,1.8,1.7l8.7,0.1
			c1,0,1.7-0.8,1.7-1.8l0.1-9.5C530.3,155.5,529.5,154.7,528.5,154.7z"/>
		<path fill="#FFFFFF" d="M509.9,154.7l-9.3,0.1c-1,0-1.7,0.8-1.7,1.8l0.5,9.3c0,1,0.8,1.7,1.8,1.7l8.7,0.1c1,0,1.7-0.8,1.7-1.8
			l0.1-9.5C511.6,155.5,510.8,154.7,509.9,154.7z"/>
		<path opacity="0.2" fill="#DB724E" d="M619.2,330.2l-7.9,0.1c-0.8,0-1.5,0.7-1.4,1.5l0.4,7.9c0,0.8,0.7,1.5,1.5,1.4l7.4,0.1
			c0.8,0,1.5-0.7,1.4-1.5l0.1-8.1C620.7,330.9,620,330.2,619.2,330.2z"/>
		<path fill="#FFFFFF" d="M602.1,330.2l-7.9,0.1c-0.8,0-1.5,0.7-1.4,1.5l0.4,7.9c0,0.8,0.7,1.5,1.5,1.4l7.4,0.1
			c0.8,0,1.5-0.7,1.4-1.5l0.1-8.1C603.6,330.9,602.9,330.2,602.1,330.2z"/>
		<path opacity="0.3" fill="#DB724E" d="M588.1,278.6l-7.9,0.1c-0.8,0-1.5,0.7-1.4,1.5l0.4,7.9c0,0.8,0.7,1.5,1.5,1.4l7.4,0.1
			c0.8,0,1.5-0.7,1.4-1.5l0.1-8.1C589.6,279.3,588.9,278.6,588.1,278.6z"/>
		<path fill="#FFFFFF" d="M619.2,349.1l-7.9,0.1c-0.8,0-1.5,0.7-1.4,1.5l0.4,7.9c0,0.8,0.7,1.5,1.5,1.4l7.4,0.1
			c0.8,0,1.5-0.7,1.4-1.5l0.1-8.1C620.7,349.8,620,349.1,619.2,349.1z"/>
		<path fill="#FFFFFF" d="M640,371.6l-7.9,0.1c-0.8,0-1.5,0.7-1.4,1.5l0.4,7.9c0,0.8,0.7,1.5,1.5,1.4l7.4,0.1c0.8,0,1.5-0.7,1.4-1.5
			l0.1-8.1C641.5,372.3,640.8,371.6,640,371.6z"/>
		<path fill="#FFFFFF" d="M622.4,187.4l-7.9,0.1c-0.8,0-1.5,0.7-1.4,1.5l0.4,7.9c0,0.8,0.7,1.5,1.5,1.4l7.4,0.1
			c0.8,0,1.5-0.7,1.4-1.5l0.1-8.1C623.9,188.1,623.2,187.4,622.4,187.4z"/>
		<path opacity="0.3" fill="#DB724E" d="M102.8,385.3l-7.9,0.1c-0.8,0-1.5,0.7-1.4,1.5l0.4,7.9c0,0.8,0.7,1.5,1.5,1.4l7.4,0.1
			c0.8,0,1.5-0.7,1.4-1.5l0.1-8.1C104.3,385.9,103.7,385.3,102.8,385.3z"/>
		<path fill="#FFFFFF" d="M119.1,385.3l-7.9,0.1c-0.8,0-1.5,0.7-1.4,1.5l0.4,7.9c0,0.8,0.7,1.5,1.5,1.4l7.4,0.1
			c0.8,0,1.5-0.7,1.4-1.5l0.1-8.1C120.6,385.9,119.9,385.3,119.1,385.3z"/>
		<path opacity="0.2" fill="#FFD4D2" d="M169.3,285.9l-7.9,0.1c-0.8,0-1.5,0.7-1.4,1.5l0.4,7.9c0,0.8,0.7,1.5,1.5,1.4l7.4,0.1
			c0.8,0,1.5-0.7,1.4-1.5l0.1-8.1C170.8,286.5,170.2,285.9,169.3,285.9z"/>
		<path opacity="0.2" fill="#FFD4D2" d="M155.2,304.8l-7.9,0.1c-0.8,0-1.5,0.7-1.4,1.5l0.4,7.9c0,0.8,0.7,1.5,1.5,1.4l7.4,0.1
			c0.8,0,1.5-0.7,1.4-1.5l0.1-8.1C156.7,305.4,156,304.8,155.2,304.8z"/>
		<path opacity="0.2" fill="#FFD4D2" d="M509.9,154.7l-9.3,0.1c-1,0-1.7,0.8-1.7,1.8l0.5,9.3c0,1,0.8,1.7,1.8,1.7l8.7,0.1
			c1,0,1.7-0.8,1.7-1.8l0.1-9.5C511.6,155.5,510.8,154.7,509.9,154.7z"/>
		<path opacity="0.2" fill="#FFD4D2" d="M602.1,330.2l-7.9,0.1c-0.8,0-1.5,0.7-1.4,1.5l0.4,7.9c0,0.8,0.7,1.5,1.5,1.4l7.4,0.1
			c0.8,0,1.5-0.7,1.4-1.5l0.1-8.1C603.6,330.9,602.9,330.2,602.1,330.2z"/>
		<path opacity="0.2" fill="#FFD4D2" d="M619.2,349.1l-7.9,0.1c-0.8,0-1.5,0.7-1.4,1.5l0.4,7.9c0,0.8,0.7,1.5,1.5,1.4l7.4,0.1
			c0.8,0,1.5-0.7,1.4-1.5l0.1-8.1C620.7,349.8,620,349.1,619.2,349.1z"/>
		<path opacity="0.2" fill="#FFD4D2" d="M640,371.6l-7.9,0.1c-0.8,0-1.5,0.7-1.4,1.5l0.4,7.9c0,0.8,0.7,1.5,1.5,1.4l7.4,0.1
			c0.8,0,1.5-0.7,1.4-1.5l0.1-8.1C641.5,372.3,640.8,371.6,640,371.6z"/>
		<path opacity="0.2" fill="#FFD4D2" d="M119.1,385.3l-7.9,0.1c-0.8,0-1.5,0.7-1.4,1.5l0.4,7.9c0,0.8,0.7,1.5,1.5,1.4l7.4,0.1
			c0.8,0,1.5-0.7,1.4-1.5l0.1-8.1C120.6,385.9,119.9,385.3,119.1,385.3z"/>
	</g>
	<g id="XMLID_3_">
		<path id="XMLID_4_" fill="#B53F97" d="M198.4,170.5c38.8,0,51.1,0,71.5,0s35.3-16,24.1-25.6c-11.2-9.6-50.8-0.4-68.2,7.5
			c27.9-30.9,3-58.6-18.4-35.7c1.5-48.4-89-58-48.5,18.1c-35.7-21.3-65.5,10.2-29.3,17.6c-40.7,5.1-46.9,18-24,18
			C110.5,170.5,193.2,170.5,198.4,170.5z"/>
		<path id="XMLID_5_" opacity="0.5" fill="#FFFFFF" d="M200.4,168.6c31.9,0,65-0.6,75.2-5.9c10.3-5.3-34.8-12.1-57.5,0
			c16.3-35.5,1.8-49.7-14-34.8c0.2-33.4-58.7-38.9-36.7,10.9c-27.3-8.8-33.4,13-1.1,14.5c-46.5,4-71.1,15.3-21.9,15.3"/>
	</g>
	<g>
		<path id="XMLID_7_" fill="#C465AC" d="M437.8,115.1c60.1,0,139.6,0,166.6,0s27-8.7,18.3-16.3c-8.7-7.5-43.8,2.9-43.8,2.9
			s28.5-21.4,20.8-34.8c-7.7-13.4-30.1-0.1-30.1-0.1s8.2-23.2-7.4-32.5c-15.5-9.3-33.5,10.4-33.5,10.4s-16.1-17.7-31.9-12.9
			c-15.7,4.8-16.5,24-9.2,40.8c-12.5-20.4-57-32.5-45.1,8.1C392.2,76.7,332.6,115.1,437.8,115.1z"/>
		<path id="XMLID_8_" opacity="0.5" fill="#FFFFFF" d="M491,34.7c-10,7.3-9.7,23.5-3.5,38c-12.5-20.4-57-32.5-45.1,8.1
			c-50.2-4.1-109.9,34.2-4.7,34.2c60.1,0,139.6,0,166.6,0c9.7,0,15.9-1.1,19.5-2.9c2.2-8.5-7-20.4-51.5-4.6
			c18.9-25,28.3-45.8,10.9-46c-7.2,1.5-13.7,5.3-13.7,5.3l-11.5,9.3c0,0,13.3-39.3-15.2-41.8c-8.1,3.8-14.2,10.4-14.2,10.4
			l-12.4,10.7C516.3,55.6,512.2,34.2,491,34.7z"/>
		<path id="XMLID_9_" opacity="0.3" fill="#FFFFFF" d="M551.4,44.6c-8.7-6.6-20.7,5.4-13.7,12.6C544.7,64.4,559.7,50.9,551.4,44.6z"
			/>
		<path id="XMLID_10_" opacity="0.3" fill="#FFFFFF" d="M437.8,115.1c37.3,0,82,0,117.1,0c10.6-9.6,23.4-26.7,22.6-37.2
			c-1-14.3-32.8,22-32.8,22s1.5-31.5-20.5-33S498.1,96,498.1,96s-18.9-20.9-31.8-15.5c-12.9,5.4,1.1,22.6,1.1,22.6
			s-22.4-9.7-44.8-9.9c-12.5-0.1-31.4,8.7-32.3,17C399.3,113.2,414.5,115.1,437.8,115.1z"/>
	</g>
	<path id="XMLID_6_" fill="#B53F97" d="M47.4,447.6h658.1c0,0-134.3-9.8-238.9-9.8s-170.3,0-170.3,0S102.1,436.6,47.4,447.6z"/>
	<g id="XMLID_11_">
		<g id="XMLID_12_">
			<path fill="#882F71" d="M608.8,444.4h-10.4c0,0-4.7-17.1-40.7-32.1c-35.9-14.9,3.9-17,20.8-4c-15.8-18.7-15.3-29.1-5.1-31.2
				C583.5,375,617.9,409.1,608.8,444.4z"/>
			<path opacity="0.5" fill="#B0AED4" d="M593,418.9c0,0-4.2-25.6-20.6-41.5c-9.2,2.6-9.2,12.9,6,31l7.7,6.8
				c0,0-24.7-10.2-41.4-14.5c-3.7,1.7-1.6,5.6,13,11.6c35.9,14.9,40.7,32.1,40.7,32.1h10.4c5.7-22.4-6-44.3-17.9-56.8L593,418.9z"/>
		</g>
		<g id="XMLID_13_">
			<path fill="#B53F97" d="M611.9,444.4c0,0,18.5-55.5,3.8-93.7c-14.7-38.2-27.1,5.7-22.8,31.4c4.3,25.7,9.4,62.3,9.4,62.3H611.9z"
				/>
			<path opacity="0.3" fill="#B0AED4" d="M608.9,444.4c6.4-37.9-5.5-102.4-6.6-108.2c-7.7,3.6-12.2,28.8-9.4,45.9
				c4.3,25.7,9.4,62.3,9.4,62.3H608.9z"/>
		</g>
		<g id="XMLID_14_">
			<path fill="#B53F97" d="M619.1,444.4c0,0,34.3-43.9,35.3-64.1c1.1-20.2-43.2-3.4-45.6,64.1C610.8,444.4,619.1,444.4,619.1,444.4z
				"/>
			<path opacity="0.35" fill="#FFFFFF" d="M650.1,372.7c-11-3.5-39.4,18.1-41.3,71.7c1,0,3.6,0,5.9,0
				C618.4,420.4,640,379.8,650.1,372.7z"/>
		</g>
		<path fill="#B53F97" d="M619.1,444.4h5.4c0,0,41.4-17.7,46.5-26C676,410,634.9,412.9,619.1,444.4z"/>
		<path opacity="0.5" fill="#B0AED4" d="M668.9,414.9c-8.6-2.5-37.2,4.4-49.9,29.6h2.4C621.5,444.4,644.2,422.5,668.9,414.9z"/>
	</g>
	<g>
		<linearGradient id="XMLID_153_" gradientUnits="userSpaceOnUse" x1="126.7038" y1="455.6126" x2="448.4729" y2="455.6126">
			<stop  offset="0" style="stop-color:#FFFFFF"/>
			<stop  offset="0.5312" style="stop-color:#000000"/>
		</linearGradient>
		<path id="XMLID_16_" opacity="0.25" fill="url(#XMLID_153_)" d="M363.7,452.3c-6.1,0-12.3,0-18.6,0c-120.6,0-218.4,1.5-218.4,3.3
			s97.8,3.3,218.4,3.3c39.6,0,92.4,0,103.4-2.7C427.9,454.3,390.6,454,363.7,452.3z"/>
		<g id="XMLID_17_">
			<path id="XMLID_18_" fill="#B0AED4" d="M446.7,66.2H295.8c-16.7,0-30.3,13.6-30.3,30.3v329.4c0,16.7,13.6,30.3,30.3,30.3h150.9
				c16.7,0,30.3-13.6,30.3-30.3V96.4C477,79.8,463.4,66.2,446.7,66.2z"/>
			<path id="XMLID_19_" fill="#DFDFFB" d="M446.7,71.9H295.8c-13.6,0-24.6,11-24.6,24.6v329.4c0,13.6,11,24.6,24.6,24.6h150.9
				c13.6,0,24.6-11,24.6-24.6V96.4C471.3,82.9,460.3,71.9,446.7,71.9z"/>
			<path id="XMLID_20_" fill="#6770A7" d="M387.6,420.7h-33.8c-4,0-7.3,3.4-7.3,7.6c0,4.2,3.3,7.6,7.3,7.6h8h5.2h20.5
				c4,0,7.3-3.4,7.3-7.6C394.9,424.1,391.6,420.7,387.6,420.7z"/>
			<path id="XMLID_21_" fill="#B0AED4" d="M387.8,420.7h-33c-3.9,0-7.1,3.2-7.1,7.1c0,3.9,3.2,7.1,7.1,7.1h7.9h5.1h20.1
				c3.9,0,7.1-3.2,7.1-7.1C394.9,423.9,391.7,420.7,387.8,420.7z"/>
			<g id="XMLID_22_">
				<rect id="XMLID_23_" x="365.5" y="175.7" fill="#222221" width="3.8" height="3.8"/>
				<path id="XMLID_24_" fill="#222221" d="M392.2,175.7v3.8v3.8v3.8v3.8v3.8v3.8v3.8H419v-3.8v-3.8V191v-3.8v-3.8v-3.8v-3.8H392.2z
					 M415.1,183.4v3.8v3.8v3.8v3.8h-19.1v-3.8V191v-3.8v-3.8v-3.8h19.1V183.4z"/>
				<polygon id="XMLID_27_" fill="#222221" points="331.2,187.2 331.2,191 331.2,194.8 342.6,194.8 342.6,191 342.6,187.2 
					342.6,183.4 331.2,183.4 				"/>
				<rect id="XMLID_28_" x="354.1" y="191" fill="#222221" width="7.6" height="3.8"/>
				<polygon id="XMLID_29_" fill="#222221" points="365.5,194.8 365.5,198.6 369.4,198.6 369.4,194.8 373.2,194.8 373.2,198.6 
					377,198.6 377,194.8 380.8,194.8 380.8,191 377,191 377,187.2 388.4,187.2 388.4,183.4 380.8,183.4 380.8,179.6 380.8,175.7 
					377,175.7 377,179.6 369.4,179.6 369.4,183.4 369.4,187.2 373.2,187.2 373.2,191 369.4,191 369.4,187.2 365.5,187.2 
					365.5,183.4 357.9,183.4 357.9,179.6 357.9,175.7 354.1,175.7 354.1,179.6 354.1,183.4 354.1,187.2 361.7,187.2 361.7,191 
					365.5,191 				"/>
				<rect id="XMLID_30_" x="384.6" y="191" fill="#222221" width="3.8" height="3.8"/>
				<polygon id="XMLID_31_" fill="#222221" points="411.3,191 411.3,187.2 411.3,183.4 399.9,183.4 399.9,187.2 399.9,191 
					399.9,194.8 411.3,194.8 				"/>
				<path id="XMLID_32_" fill="#222221" d="M350.3,198.6v-3.8V191v-3.8v-3.8v-3.8v-3.8h-26.7v3.8v3.8v3.8v3.8v3.8v3.8v3.8h26.7
					V198.6z M327.4,198.6v-3.8V191v-3.8v-3.8v-3.8h19.1v3.8v3.8v3.8v3.8v3.8H327.4z"/>
				<rect id="XMLID_35_" x="354.1" y="198.6" fill="#222221" width="3.8" height="3.8"/>
				<rect id="XMLID_36_" x="361.7" y="198.6" fill="#222221" width="3.8" height="3.8"/>
				<rect id="XMLID_37_" x="369.4" y="198.6" fill="#222221" width="3.8" height="3.8"/>
				<rect id="XMLID_38_" x="377" y="198.6" fill="#222221" width="3.8" height="3.8"/>
				<rect id="XMLID_39_" x="373.2" y="202.5" fill="#222221" width="3.8" height="3.8"/>
				<polygon id="XMLID_40_" fill="#222221" points="407.5,210.1 403.7,210.1 403.7,206.3 399.9,206.3 399.9,210.1 396.1,210.1 
					396.1,213.9 392.2,213.9 392.2,217.7 396.1,217.7 396.1,221.5 399.9,221.5 399.9,217.7 399.9,213.9 403.7,213.9 403.7,217.7 
					403.7,221.5 415.1,221.5 415.1,225.4 419,225.4 419,221.5 419,217.7 419,213.9 415.1,213.9 415.1,217.7 407.5,217.7 
					407.5,213.9 415.1,213.9 415.1,210.1 419,210.1 419,206.3 407.5,206.3 				"/>
				<polygon id="XMLID_41_" fill="#222221" points="350.3,217.7 350.3,213.9 346.5,213.9 346.5,210.1 350.3,210.1 350.3,213.9 
					354.1,213.9 354.1,210.1 357.9,210.1 357.9,213.9 354.1,213.9 354.1,217.7 361.7,217.7 361.7,221.5 365.5,221.5 365.5,217.7 
					365.5,213.9 361.7,213.9 361.7,210.1 361.7,206.3 335,206.3 335,210.1 342.6,210.1 342.6,213.9 335,213.9 335,217.7 
					338.8,217.7 338.8,221.5 342.6,221.5 342.6,217.7 				"/>
				<polygon id="XMLID_42_" fill="#222221" points="327.4,217.7 331.2,217.7 331.2,213.9 331.2,210.1 327.4,210.1 327.4,206.3 
					323.6,206.3 323.6,210.1 323.6,213.9 323.6,217.7 323.6,221.5 323.6,225.4 323.6,229.2 323.6,233 323.6,236.8 323.6,240.6 
					327.4,240.6 327.4,236.8 327.4,233 331.2,233 331.2,229.2 327.4,229.2 327.4,225.4 331.2,225.4 331.2,221.5 327.4,221.5 				"/>
				<rect id="XMLID_43_" x="331.2" y="217.7" fill="#222221" width="3.8" height="3.8"/>
				<rect id="XMLID_44_" x="350.3" y="217.7" fill="#222221" width="3.8" height="3.8"/>
				<polygon id="XMLID_45_" fill="#222221" points="373.2,225.4 373.2,221.5 373.2,217.7 377,217.7 377,213.9 380.8,213.9 
					380.8,217.7 388.4,217.7 388.4,213.9 384.6,213.9 384.6,210.1 388.4,210.1 388.4,213.9 392.2,213.9 392.2,210.1 392.2,206.3 
					388.4,206.3 388.4,202.5 388.4,198.6 384.6,198.6 384.6,202.5 384.6,206.3 380.8,206.3 380.8,210.1 373.2,210.1 373.2,213.9 
					369.4,213.9 369.4,217.7 369.4,221.5 365.5,221.5 365.5,225.4 				"/>
				<rect id="XMLID_46_" x="392.2" y="221.5" fill="#222221" width="3.8" height="3.8"/>
				<rect id="XMLID_47_" x="357.9" y="225.4" fill="#222221" width="3.8" height="3.8"/>
				<polygon id="XMLID_48_" fill="#222221" points="411.3,229.2 403.7,229.2 403.7,225.4 399.9,225.4 399.9,229.2 399.9,233 
					403.7,233 403.7,236.8 407.5,236.8 407.5,240.6 407.5,244.4 415.1,244.4 415.1,240.6 415.1,236.8 411.3,236.8 411.3,233 
					415.1,233 415.1,236.8 419,236.8 419,233 419,229.2 415.1,229.2 415.1,225.4 411.3,225.4 				"/>
				<polygon id="XMLID_49_" fill="#222221" points="338.8,229.2 335,229.2 335,233 335,236.8 338.8,236.8 338.8,233 				"/>
				<polygon id="XMLID_50_" fill="#222221" points="354.1,233 357.9,233 357.9,229.2 354.1,229.2 354.1,225.4 350.3,225.4 
					350.3,229.2 346.5,229.2 346.5,225.4 350.3,225.4 350.3,221.5 342.6,221.5 342.6,225.4 338.8,225.4 338.8,229.2 342.6,229.2 
					342.6,233 342.6,236.8 346.5,236.8 346.5,233 350.3,233 350.3,236.8 346.5,236.8 346.5,240.6 354.1,240.6 354.1,236.8 				"/>
				<path id="XMLID_51_" fill="#222221" d="M399.9,233h-3.8v3.8h-3.8V233h3.8v-3.8h-3.8v-3.8h-3.8v-3.8h-7.6v3.8h-7.6v3.8h-7.6v3.8
					v3.8h3.8V233h11.4v3.8v3.8H377v3.8v3.8h3.8v-3.8h3.8v3.8h-3.8v3.8v3.8h11.4v3.8h3.8v-3.8h7.6v-3.8v-3.8v-3.8v-3.8v-3.8h-3.8V233
					z M399.9,244.4v3.8v3.8h-11.4v-3.8v-3.8v-3.8h11.4V244.4z"/>
				<rect id="XMLID_54_" x="338.8" y="236.8" fill="#222221" width="3.8" height="3.8"/>
				<rect id="XMLID_55_" x="373.2" y="236.8" fill="#222221" width="3.8" height="3.8"/>
				<path id="XMLID_56_" fill="#222221" d="M373.2,244.4v-3.8h-7.6v-3.8h-3.8V233h-3.8v3.8v3.8h3.8v3.8h-3.8v-3.8h-3.8v3.8v3.8v3.8
					v3.8v3.8h7.6v-3.8h3.8v-3.8v-3.8h3.8v-3.8H373.2z M361.7,252.1h-3.8v-3.8h3.8V252.1z"/>
				<path id="XMLID_59_" fill="#222221" d="M323.6,248.3v3.8v3.8v3.8v3.8v3.8v3.8h26.7v-3.8v-3.8v-3.8v-3.8v-3.8v-3.8v-3.8h-26.7
					V248.3z M346.5,248.3v3.8v3.8v3.8v3.8v3.8h-19.1v-3.8v-3.8v-3.8v-3.8v-3.8H346.5z"/>
				<rect id="XMLID_62_" x="392.2" y="244.4" fill="#222221" width="3.8" height="3.8"/>
				<rect id="XMLID_63_" x="415.1" y="244.4" fill="#222221" width="3.8" height="3.8"/>
				<polygon id="XMLID_64_" fill="#222221" points="377,252.1 377,248.3 369.4,248.3 369.4,252.1 369.4,255.9 373.2,255.9 
					373.2,252.1 				"/>
				<polygon id="XMLID_65_" fill="#222221" points="411.3,252.1 411.3,255.9 411.3,259.7 399.9,259.7 399.9,263.5 396.1,263.5 
					396.1,267.3 403.7,267.3 403.7,263.5 407.5,263.5 407.5,267.3 415.1,267.3 415.1,271.2 419,271.2 419,267.3 419,263.5 
					419,259.7 419,255.9 419,252.1 415.1,252.1 415.1,248.3 411.3,248.3 				"/>
				<polygon id="XMLID_66_" fill="#222221" points="373.2,259.7 369.4,259.7 369.4,263.5 377,263.5 377,259.7 380.8,259.7 
					380.8,255.9 373.2,255.9 				"/>
				<polygon id="XMLID_67_" fill="#222221" points="342.6,259.7 342.6,255.9 342.6,252.1 331.2,252.1 331.2,255.9 331.2,259.7 
					331.2,263.5 342.6,263.5 				"/>
				<rect id="XMLID_68_" x="388.4" y="259.7" fill="#222221" width="3.8" height="3.8"/>
				<rect id="XMLID_69_" x="354.1" y="267.3" fill="#222221" width="3.8" height="3.8"/>
				<polygon id="XMLID_70_" fill="#222221" points="369.4,267.3 369.4,271.2 380.8,271.2 380.8,267.3 380.8,263.5 377,263.5 
					377,267.3 				"/>
				<rect id="XMLID_71_" x="384.6" y="267.3" fill="#222221" width="7.6" height="3.8"/>
				<rect id="XMLID_72_" x="403.7" y="267.3" fill="#222221" width="3.8" height="3.8"/>
			</g>
			<g id="XMLID_73_">
				<g id="XMLID_74_">
					<polygon id="XMLID_75_" fill="#6770A7" points="311.6,188.5 309,188.5 309,161.2 335,161.2 335,163.8 311.6,163.8 					"/>
				</g>
				<g id="XMLID_76_">
					<polygon id="XMLID_77_" fill="#6770A7" points="433.5,188.5 431,188.5 431,163.8 407.5,163.8 407.5,161.2 433.5,161.2 					"/>
				</g>
				<g id="XMLID_78_">
					<polygon id="XMLID_79_" fill="#6770A7" points="335,285.7 309,285.7 309,261 311.6,261 311.6,283.1 335,283.1 					"/>
				</g>
				<g id="XMLID_80_">
					<polygon id="XMLID_81_" fill="#6770A7" points="433.5,285.7 407.5,285.7 407.5,283.1 431,283.1 431,261 433.5,261 					"/>
				</g>
			</g>
			<rect id="XMLID_82_" x="309" y="354.6" fill="#6770A7" width="124.5" height="30.8"/>
			
				<text id="XMLID_83_" transform="matrix(1 0 0 1 343.5872 376.2818)" fill="#FFFFFF" font-family="'ArialMT'" font-size="18.5817px">SCAN</text>
			<path id="XMLID_84_" opacity="0.3" fill="#FFFFFF" d="M471.3,425.9V96.4c0-13.6-11-24.6-24.6-24.6H295.8
				c-11.3,0-20.8,7.6-23.7,18c24.2-4.6,81.1,4.9,116.3,19c45.3,18.1,50.9,23.2,68.1,120.4c12.1,68.6,14.5,200.6-2.8,220.3
				C463.9,446.5,471.3,437,471.3,425.9z"/>
			<path id="XMLID_85_" fill="#FFFFFF" d="M446.7,71.9H295.8c-7.3,0-13.9,3.2-18.4,8.3c4.3-3.8,10-6.2,16.3-6.2h150.9
				c13.6,0,24.6,11,24.6,24.6V428c0,6.2-2.3,11.9-6.2,16.3c5.1-4.5,8.3-11.1,8.3-18.4V96.4C471.3,82.9,460.3,71.9,446.7,71.9z"/>
			<path id="XMLID_86_" fill="#172F5B" d="M296.9,449.4c-13.6,0-24.6-11-24.6-24.6V255.3l-1-160.6c0,0.6-0.1,1.2-0.1,1.7v329.4
				c0,13.6,11,24.6,24.6,24.6h150.9c1.3,0,2.6-0.1,3.8-0.3L296.9,449.4z"/>
			<path id="XMLID_87_" opacity="0.6" fill="#FFFFFF" d="M448.6,71.9l-176.9,72.9l0.4,53.2l199.3-75.8V96.4
				C471.3,83.5,461.3,72.9,448.6,71.9z"/>
			<path id="XMLID_88_" opacity="0.6" fill="#FFFFFF" d="M271.6,136.5c30.1-14.3,98.3-48.8,129.7-64.7h-69.9l-60.1,32.4l0,7.1
				L271.6,136.5z"/>
		</g>
	</g>
	<g>
		<path id="XMLID_89_" fill="#FF9489" d="M521.9,240.8l0.9-7.5c0,0-5.9-4.3-6.6-6.4c-0.7-2.1,1.2-7.8,1.2-7.8s-1.2-1.3-1.4-2.3
			c-0.2-1.1,3.4-5.3,3.4-5.3s4.6-6.3,5-6.5c-1.2,6.4-1.4,14-1.4,14s1.2-3.9,3.6-4.7c2.4-0.8-1.3,8.5-2.2,9.3
			c2.8,4.2,7.1,8.1,7.1,8.1s1.6-1.6,3-3c0.2,3.4,1.4,12.1,1.4,12.1H521.9z"/>
		<path id="XMLID_90_" fill="#FFD4D2" d="M533.3,230c0.5,2,2.2,9.6-4.7,10.2c-2,0.2-2.1,0.4-1.2,0.6h8.6c0,0-1.2-8.7-1.4-12.1
			C534.1,229.2,533.7,229.6,533.3,230z"/>
		<path id="XMLID_91_" fill="#DFDFFB" d="M517.5,244.6l2.5-6.1c0,0,5.9,0.2,10.3,0.5c4.4,0.3,6.7-0.5,6.7-0.5l2.6,6.1
			C539.6,244.6,527.4,247.2,517.5,244.6z"/>
		<path id="XMLID_92_" opacity="0.3" fill="#6770A7" d="M520,238.5l-2.5,6.1c0.8,0.2,1.7,0.4,2.6,0.6l0.8-0.7
			c0.3-0.4,0.7-4.8,0.7-4.8l8.7-0.7C525.9,238.7,520,238.5,520,238.5z"/>
		<linearGradient id="XMLID_154_" gradientUnits="userSpaceOnUse" x1="487.6079" y1="456.1253" x2="552.0728" y2="456.1253">
			<stop  offset="0" style="stop-color:#FFFFFF"/>
			<stop  offset="1" style="stop-color:#000000"/>
		</linearGradient>
		<path id="XMLID_93_" opacity="0.25" fill="url(#XMLID_154_)" d="M535.3,452.8c-1.2,0-2.5,0-3.7,0c-24.3,0-43.9,1.5-43.9,3.3
			c0,1.8,19.7,3.3,43.9,3.3c8,0,14.1,0.2,20.5,0C547.9,457.5,540.7,454.5,535.3,452.8z"/>
		<linearGradient id="XMLID_155_" gradientUnits="userSpaceOnUse" x1="444.052" y1="465.1979" x2="509.8488" y2="465.1979">
			<stop  offset="0" style="stop-color:#FFFFFF"/>
			<stop  offset="1" style="stop-color:#000000"/>
		</linearGradient>
		<path id="XMLID_94_" opacity="0.25" fill="url(#XMLID_155_)" d="M491.7,458.7c-1.2,0-2.5,0-3.7,0c-24.3,0-43.9,2.9-43.9,6.5
			c0,3.6,19.7,6.5,43.9,6.5c8,0,15.4-0.3,21.9-0.9C505.7,467.3,497.1,461.9,491.7,458.7z"/>
		<path id="XMLID_95_" d="M536.8,452.5c0,0-3.8,0.4-8.1,0c-4.3-0.4-1.4,2.9,3.5,4.2c5,1.2,5.8,0.7,8.3,0.9
			c2.5,0.2,12.1,3.2,12.8,1.1s-4.5-6.2-4.5-6.2L536.8,452.5z"/>
		<path id="XMLID_96_" d="M498.1,457.5c0,0-3.2,0.4-8.7,0.7c-4.7,0.3-4.5,4.3,17.5,12.2c3.4,1.2,6.3,0,7.2-2.7
			C514.9,465,498.1,457.5,498.1,457.5z"/>
		<path id="XMLID_97_" fill="#FF9489" d="M560.3,342c0,0-0.4,3.7,0,5.5c2.3,3.7,2.5,5.7,0,8.7c-2.5,3-2.7,4.8-4.3,5.5
			c-1.7,0.7-1.9,3.2-3.9,0c-1.9-3.2,0.6-22.8,0.6-22.8L560.3,342z"/>
		<path id="XMLID_98_" fill="#FF9489" d="M557.5,349.1l0.5-6.9l-0.1-1.1l-5.3-2.1c0,0-1.5,11.6-1.3,18.4c0.6,0.7,1.2,0.9,1.6-0.7
			c0.9-3.6,1.9-4.2,3.2-3.8C555.7,351.2,556.6,348.5,557.5,349.1z"/>
		<path id="XMLID_99_" fill="#6770A7" d="M558.1,252c0,0,6.1,48.3,6.3,67.1c0.2,18.8,0,23.6,0,23.6s-8.2,1.6-13,0.9
			c-2.7-0.7-3.4-16.5-3.4-16.5v-69.4C548,257.7,552.8,249.3,558.1,252z"/>
		<path id="XMLID_100_" opacity="0.5" fill="#6770A7" d="M558.1,252c-5.2-2.7-10,5.7-10,5.7v69.4c0,0,0.6,14.2,3,16.3
			c10.7-2.3,7-11.7,7-15.9c0.1-4.6-3.5-49-1.8-61.9C556.7,261.6,558.1,252,558.1,252z"/>
		<path id="XMLID_101_" fill="#B0AED4" d="M562.3,343c1.2-0.2,2-0.3,2-0.3s0.2-4.8,0-23.6c-0.2-18.8-6.3-67.1-6.3-67.1
			S563.8,320.3,562.3,343z"/>
		<path id="XMLID_102_" fill="#172F5B" d="M502.2,330.8c0,0-2.9,11.7-1.9,24.5c1.1,12.8,3.2,34.6,1.9,43.7c-1.3,9.1-5.1,51.4-4,59.4
			c1.9,6.4,9.1,9.8,13,11.2c4,1.3,4.8-8.5,4.5-23.2c-0.3-14.6,4.8-36.5,2.1-43.9c2.1-14.4,5.6-38.6,7.5-40.2
			c1.9-1.6,6.9-0.5,6.9-0.5s5.1,34.6,5.9,37.3c0.8,2.7,1.9,7.5,1.9,7.5s-1.3,40.7-3.2,46.1c11.2,6.7,14,6.4,16.6,6.1
			c2.3-6.1,2.3-11.2,1.3-18.9c0-13.6-1.7-30.1-1.3-37c0.5-6.9,0.6-28.5,0-36.5c-0.6-8-0.1-30.1-1.4-36.7
			C550.6,322.8,502.2,330.8,502.2,330.8z"/>
		<path id="XMLID_103_" opacity="0.4" fill="#172F5B" d="M549.5,336.1l1.3-7.9c-7.3-4.2-48.7,2.6-48.7,2.6s-2.9,11.7-1.9,24.5
			c1.1,12.8,3.2,34.6,1.9,43.7c-1.3,9.1-5.1,51.4-4,59.4c1.8,6.2,8.6,9.6,12.7,11c-2.6-2.8-7.7-8.5-8.6-11.1
			c-1.2-3.5,4.4-43.3,4.8-52c0.4-8.7,5.3-40.3,9.6-46.9c4.3-6.6,13-13.3,21.3-15.6C546.3,341.5,549.5,336.1,549.5,336.1z"/>
		<path id="XMLID_104_" fill="#FF9489" d="M457.9,242.2c0,0-2-8.4-2.3-9.8c-3.9-6-6.6-12.4-6.6-12.4s4.3-9.3,5.5-10.5
			c2-1.4,10.6-7.3,8.1-3.1c-2.3,3.3-2.5,3.9-2.5,3.9s5.4-2.2,5.7-1.9c0.3,0.3-4.3,4.7-4.3,4.7s4.1-0.1,4.4,0.9
			c0.3,1-3.9,2.3-3.9,2.3l0,3.4c0,0,1.7,0.5,0.8,1.4c-0.9,0.9-3.9,1.2-3.9,1.2s2.9,3,1.9,7.2c0.6,3.5,1.6,9,1.6,9L457.9,242.2z"/>
		<path id="XMLID_105_" fill="#FF9489" d="M456.9,231.6c-3.7-6.2-6.7-11.2-6.9-11.7c-0.1-0.3,0.2-1.7,0.5-3
			c-0.9,1.8-1.5,3.2-1.5,3.2s2.7,6.4,6.6,12.4c0.4,1.3,2.3,9.8,2.3,9.8l4-3.3C460.7,238,458.2,235.6,456.9,231.6z"/>
		<path id="XMLID_106_" fill="#FF9489" d="M457.9,215.5v-8.1c-1.4,0.9-2.7,1.8-3.4,2.2c-0.2,0.2-0.5,0.7-0.9,1.3c0,0-2.9,7.8,0,9.1
			C456.5,221.4,457.9,215.5,457.9,215.5z"/>
		<path id="XMLID_107_" fill="#172F5B" d="M461.4,200.2c0-0.2-0.1-0.4-0.3-0.5c-0.2-0.1-0.4-0.1-0.6-0.1l-7.6,2
			c-0.3,0.1-0.5,0.4-0.5,0.7l2.6,18.2c0,0.2,0.1,0.4,0.3,0.5c0.1,0.1,0.2,0.1,0.4,0.1c0,0,0.1,0,0.1,0l7-1.5
			c0.3-0.1,0.6-0.4,0.5-0.7L461.4,200.2z"/>
		<path id="XMLID_108_" fill="#FF9489" d="M455.2,223.8c0,0,3.1-6.7,4.1-8.7c1.1-2-2.4-0.4-6.5,4.3
			C452,222.3,452.2,225.1,455.2,223.8z"/>
		<path id="XMLID_109_" fill="#6770A7" d="M462.2,238.6l-9.8,7.4c0,0,12.6,39.4,14.4,43.1c1.7,3.7,32.5-22.8,32.5-22.8
			s1.3,33.8,1.6,42.9s-2.7,25.8-2.7,25.8s28.6,4.1,35.9,4.9c7.3,0.8,21.8-5.3,21.8-5.3s-2.3-35.1-2.4-40.1s-2-27.2,0.9-33.1
			c2.9-6,3.2-7.7,3.6-9.5c0.4-1.7-20-9.8-20-9.8h-19.7c0,0-18,3.8-19.8,4.9c-1.9,1.1-24.5,22.6-24.5,22.6S464.5,236.4,462.2,238.6z"
			/>
		<path id="XMLID_110_" opacity="0.3" fill="#6770A7" d="M519.1,295.8c-1.6-28.4-17.2-38.9-18.8-37.7c-1.6,1.1-28.8,24.8-30.5,22
			c-7.1-17.8-8-34.6-8-41.1l-9.4,7c0,0,12.6,39.4,14.4,43.1c1.7,3.7,32.5-22.8,32.5-22.8s1.3,33.8,1.6,42.9s-2.7,25.8-2.7,25.8
			s28.6,4.1,35.9,4.9c2.5,0.3,5.8-0.3,9.1-1.1C536.4,334.9,520.5,320.4,519.1,295.8z"/>
		<path id="XMLID_111_" fill="#B0AED4" d="M558.1,252c0.4-1.7-20-9.8-20-9.8h-3.5c0,0,13.3,5.3,22.3,13.8
			C557.6,254.1,557.8,253,558.1,252z"/>
		<path id="XMLID_112_" fill="#B0AED4" d="M555.9,334.7c0,0-2.3-35.1-2.4-40.1c0-1.1-0.1-3-0.3-5.5c0,13.7,0,29.8,0.1,35.6
			c0.2,10.8-0.5,9.9-10.2,14.2l0,0C549.6,337.3,555.9,334.7,555.9,334.7z"/>
		<path id="XMLID_113_" fill="#B0AED4" d="M474.4,270.8l24.7-21.7l15.4-6.1c-5.4,1.2-14.6,3.3-15.9,4.1
			c-1.9,1.1-24.5,22.6-24.5,22.6s-8.6-29.9-11.4-31.1l-0.4,0c0,0,10.8,30.5,11.8,35.8C474.1,272,474.4,270.8,474.4,270.8z"/>
		<path id="XMLID_114_" opacity="0.5" fill="#6770A7" d="M520.9,338.3c-11.8-5.7-14.7-17.1-15.6-25.8c-1.2-11.4-3.6-48.2-3.6-48.2
			l-2.4,2.1c0,0,1.3,33.8,1.6,42.9s-2.7,25.8-2.7,25.8S510.4,336.8,520.9,338.3z"/>
		<path id="XMLID_115_" fill="#FFD4D2" d="M457.2,215.3c0.3,0.6-0.1,1.9-0.4,3.1c-0.5,1.7-1.6,5.4-1.6,5.4s3.1-6.7,4.1-8.7
			C459.9,213.9,459,214,457.2,215.3z"/>
		<path id="XMLID_116_" opacity="0.4" fill="#B0AED4" d="M515.2,402c-1.6,18.5-3.7,39-3.7,46.7c0,6.1,1.9,15.1,0.2,20.9
			c3.6,0.5,4.4-9.1,4.1-23.3c-0.3-14.6,4.8-36.5,2.1-43.9c1.1-7.3,2.5-17.2,3.9-25.3C519.2,387.8,516,400.5,515.2,402z"/>
		<path id="XMLID_117_" opacity="0.4" fill="#B0AED4" d="M554.6,439.7c0-13.6-1.7-30.1-1.3-37c0.5-6.9,0.6-28.5,0-36.5
			c-0.4-5.6-0.3-18-0.6-27.3c0,0-1.3,19.4-1.8,25.1c-0.5,5.7-1.2,37.8-1.3,40.3c-0.1,2.5-1,25.7,0,32.1c0.7,4.9,2.7,16-0.7,21.9
			c2.1,0.5,3.3,0.4,4.5,0.3C555.7,452.5,555.7,447.4,554.6,439.7z"/>
		<path id="XMLID_118_" opacity="0.4" fill="#172F5B" d="M540,406.4c0,0-1.3,40.7-3.2,46.1c6,3.6,9.6,5.2,12.1,5.8
			c-2.7-2-3.8-8.4-4.2-12.3c-0.4-4.3-1.2-35.8-1.5-39.4c-0.3-3.5-5.2-21.7-5.8-27.3c-0.5-5.7-5.1-17.6-5.1-17.6s5.1,34.6,5.9,37.3
			C538.9,401.6,540,406.4,540,406.4z"/>
		<path id="XMLID_119_" fill="#FFD4D2" d="M559.3,348.4c0.4,1,2,3.5,0.4,6.2c-1.6,2.7-1.6,4.3-2.9,6.4c0.9-0.9,1.5-2.5,3.4-4.8
			c2.5-3,2.3-5,0-8.7C560.3,347.5,558.9,347.3,559.3,348.4z"/>
		<path id="XMLID_120_" fill="#202336" d="M534.5,228.8c0,0,7.5-8.5,8.6-13.7c1.1-5.1-3.3-11.5-5.8-14c-2.5-2.5-5.3-6.3-8.8-6.3
			c-1.4,0,0,3.7,0,3.7s-4.3-2.6-1.7,3.1c-4.8-0.8-3.6,1.9-2.4,3.5c-0.6,4.1-1.8,10.2-1.4,14c1.9-3.5,6.6-4.1,1.4,4.6
			c2.8,5.7,7.1,8.1,7.1,8.1L534.5,228.8z"/>
		<path id="XMLID_121_" opacity="0.5" fill="#FF9489" d="M517.5,226.6c-0.8-2,0-7.4,0-7.4s-2,5.6-1.2,7.8c0.7,2.1,6.6,6.4,6.6,6.4
			l0.5-3.6C523.4,229.7,518.3,228.7,517.5,226.6z"/>
	</g>
	<g id="XMLID_15_">
		<path fill="#172F5B" d="M280.6,235c0.1-0.2,0.2-0.4,0.4-0.5c0.2-0.1,0.4-0.1,0.6,0l8.1,3.4c0.4,0.1,0.5,0.5,0.4,0.9l-5.7,19.8
			c-0.1,0.2-0.2,0.4-0.4,0.5c-0.1,0.1-0.3,0.1-0.4,0.1c-0.1,0-0.1,0-0.2,0l-7.6-2.8c-0.4-0.1-0.6-0.5-0.5-0.9L280.6,235z"/>
		<linearGradient id="XMLID_156_" gradientUnits="userSpaceOnUse" x1="200.8124" y1="472.0616" x2="254.4396" y2="472.0616">
			<stop  offset="0" style="stop-color:#FFFFFF"/>
			<stop  offset="1" style="stop-color:#000000"/>
		</linearGradient>
		<path id="XMLID_122_" opacity="0.25" fill="url(#XMLID_156_)" d="M250.6,470.1c-3.7-0.5-12.9-1.8-10.1-2.1
			c2.5-0.3,7.1-0.6,9.5-0.7c-0.1-0.6-0.3-1.2-0.5-1.7c-1.2,0-15.7,0.5-16.9,0.5c-9.5,0.2-31.8,2.7-31.8,6.3c0,3.6,20.4,5.1,34.5,5.9
			c8,0.5,12.7,0.5,19.1,0C251.8,475.9,251.1,472.9,250.6,470.1z"/>
		<linearGradient id="XMLID_157_" gradientUnits="userSpaceOnUse" x1="151.3867" y1="472.2775" x2="199.9727" y2="472.2775">
			<stop  offset="0" style="stop-color:#FFFFFF"/>
			<stop  offset="1" style="stop-color:#000000"/>
		</linearGradient>
		<path id="XMLID_123_" opacity="0.25" fill="url(#XMLID_157_)" d="M190.7,473.5c-3.7-0.5-3-1.1-0.2-1.4c2.5-0.3,7.1-0.6,9.5-0.7
			c-0.1-0.6-0.3-1.2-0.5-1.7c-1.2,0-7.5-0.7-8.8-0.7c-2.9,0-39.3,0.1-39.3,3.7C151.4,476.2,178.8,476.9,190.7,473.5z"/>
		<path id="XMLID_124_" fill="#222221" d="M191.9,460.7c-2.9,3.7-6.2,8.6-15.5,12.4c-2.3,2.3,3.3,1.9,6.9,1.7
			c3.5-0.1,10-1.9,11.4-3.1c1.3-1.2,2.3-8.3,3.1-9.1c0.7,5.7,0.8,8.7,0.8,8.7l1.3-0.1c0,0,0.7-7.9,1.2-10.4c0.5-2.5,0.1-5.1-1.1-6.9
			C198.8,452.1,196.9,454.5,191.9,460.7z"/>
		<path id="XMLID_125_" fill="#FF9489" d="M202.1,403.4c0,0-2.8,22.2-3.4,27.5c-0.6,5.3-2.7,16.7-4.3,22.2c-2.1,9-7.8,12.5-7,14
			c1.6,2.8,4.9-2,7.1-4.4c2.4-2.6,4-3.8,5.5-4.7c1.5-0.9,0.9-4.4,0.9-4.4s4.5-15.6,6-19.3c1.5-3.7,11.4-19.7,8.8-29.1
			c2.6-11.2,2.8-13.7,2.8-13.7S204.9,389.5,202.1,403.4z"/>
		<path id="XMLID_126_" fill="#FF9489" d="M216.7,397.7l-1.8-6.2c-4.2,0.4-10.9,2.6-12.8,11.9c0,0-2.8,22.2-3.4,27.5
			c-0.6,5.3-2.7,16.7-4.3,22.2c-2.1,9-7.8,12.5-7,14c1.3,2.3,3.9-0.7,5.9-3.1c0.6-3.1,2.6-7.2,3.1-8.7c0.8-2.4,5.1-35.3,7.4-42.5
			C206,405.5,216.7,397.7,216.7,397.7z"/>
		<path fill="#222221" d="M249.9,457.5c0,0-7.4,8.4,3.3,20.2c1.2,1,1.4,1.1,3.1-3c2.7-6.3,0.1-18.4-1.9-20.4
			C252.5,452.3,249.9,457.5,249.9,457.5z"/>
		<path fill="#FF9489" d="M243.7,394.2c0,0-2.2,7.3-1,10.8c1.2,3.5,6.7,44.8,6.7,50c-1.7,5.5-0.3,14.5,3.5,14.8
			c3.8,0.4,4.7-9.2,2.7-15.6c-0.5-14.2-0.6-32.4,0-39.2c0.6-6.8,1.1-17.2-0.9-21.7c-2-4.4-6.9-6.8-6.9-6.8S243.4,392.8,243.7,394.2z
			"/>
		<path id="XMLID_127_" fill="#FF9489" d="M242.7,405c1.2,3.5,6.7,44.8,6.7,50c-1.7,5.5-0.3,14.5,3.5,14.8c0.5,0,0.9-0.1,1.3-0.3
			c-4.6-3.2-3.3-12.3-3.9-15.6c-0.7-4.2-4.5-41.4-4.7-47.3c-0.2-5.9,8.2-14.2,8.2-14.2l0-0.6c-2.3-3.4-6-5.3-6-5.3s-4.4,6.3-4.1,7.7
			C243.7,394.2,241.5,401.5,242.7,405z"/>
		<path id="XMLID_128_" fill="#202336" d="M218.9,292.3c-9.6,0.1-15.4-10.7-17.6-18.7c-2.5-8.9,0.3-17.6,5.7-24.9
			c5.4-7.3,2.4-13.1,4.2-23.1c1.8-9.9,7.4-14.5,14.5-14.9c7.2-0.4,15.8,6.3,17.1,17.3c1.3,11,3.9,15.7,8.7,21.9
			C257.6,258.3,267,291.9,218.9,292.3z"/>
		<path id="XMLID_129_" fill="#172F5B" d="M212.9,320.2c0,0-10.6,49.5-11.7,83.2c24.5-3.9,53.8-9.6,53.8-9.6s1.6-23.6,1.5-41.2
			c0-5.5-0.8-36-5.1-39.8C240.7,315.2,212.9,320.2,212.9,320.2z"/>
		<path id="XMLID_130_" opacity="0.4" fill="#B0AED4" d="M244.1,395.9c6.7-1.2,11-2.1,11-2.1s1.6-23.6,1.5-41.2
			c0-5.5-0.8-36-5.1-39.8c-0.4,0.1-0.9,0.2-1.4,0.3c1.4,7.8,5,32.9,2.4,66.8C251.4,386.9,247.5,392.9,244.1,395.9z"/>
		<path id="XMLID_131_" opacity="0.4" fill="#172F5B" d="M221.3,367.8c4.6-17.5,15.4-48.3,25.6-52.4l-3.2-0.9
			c-12.6,2.5-30.7,5.7-30.7,5.7s-10.6,49.5-11.7,83.2c11.2-1.8,23.5-4,33.4-5.8C228.5,392,218,380.3,221.3,367.8z"/>
		<path id="XMLID_132_" fill="#FF9489" d="M258.3,272.9c0,0,6,9.6,7.7,13.4c4.1-6.1,10.8-21.2,12.2-23.3c-0.1-3.6,0-6.9,0-6.9
			s-2.7-5.5-2.5-6.7c0.1-1.2,4.3,4.7,4.3,4.7s-2-7.7-1.1-8.9c0.9-1.2,4.1,8,4.1,8s-0.9-11.3,0-11.8c0.9-0.5,2.9,11,3.2,15.6
			c0.3,4.5-4.9,8.7-5.1,9.5c-2.8,10.2-10.4,29.1-14.2,34.6c-1.7,2.4-15.6-22-15.6-22S252.9,275,258.3,272.9z"/>
		<path id="XMLID_133_" fill="#FF9489" d="M256.6,273.7c-4.1,2.2-5.2,5.3-5.2,5.3s11.4,20,14.8,22
			C261.7,294.5,257.5,279.6,256.6,273.7z"/>
		<path id="XMLID_134_" fill="#FF9489" d="M200.4,284.1c0,0-1.2-6.2-7.3-9.1c-7.5,10.5-14,23.9-14.4,26.1
			c-0.4,2.1,30.3,17.6,30.3,17.6s-1.9,6.1-1.9,8.1c0,2,1,12.2,1.9,13c0.9,0.9,2-9.2,2-9.2s1.3,4,2.6,4.2c1.2,0.2-1.5-10.8-1.5-10.8
			s1.5-4.9,1.5-7.9s-22.2-17.6-23.2-18.3C194.3,292.3,200.4,284.1,200.4,284.1z"/>
		<path id="XMLID_135_" fill="#FF9489" d="M211.1,317.9c0,0-15.4-8.8-29.7-18c5.7-13.8,13.8-20.7,17-20.3c-1.1-1.6-2.8-3.4-5.2-4.5
			c-7.5,10.5-14,23.9-14.4,26.1c-0.4,2.1,30.3,17.6,30.3,17.6s-1.9,6.1-1.9,8.1c0,2,1,12.2,1.9,13c0.9,0.9,2-9.2,2-9.2
			s-1.9-3.7-2-5.4C208.9,323.5,211.1,317.9,211.1,317.9z"/>
		<path id="XMLID_136_" fill="#6770A7" d="M216.3,256.3c0,0-12,4.1-13.2,4.8c-1.2,0.7-9.9,14-9.9,14s4.1,2.7,7.3,9.1
			c4.3-5.3,6.4-8.2,6.4-8.2s6.9,18.5,9.5,24c-1.9,11.2-2.1,14.8-3.1,20.3c11.9,2.3,32.5-3.4,38.3-7.3c-2.6-9.4-5.2-16.3-5.1-19
			c0.2-2.7,1.6-20.1,1.6-20.1l3.5,5.2c0,0,2.9-4.9,6.9-6.1c-2.2-8.8-7.4-16.6-8.1-18.4c-0.7-1.8-15.2,0.2-15.2,0.2L216.3,256.3z"/>
		<path id="XMLID_137_" fill="#B0AED4" d="M253.8,275.9c1.2-1.2,2.7-2.5,4.5-3c-2.2-8.8-7.4-16.6-8.1-18.4
			c-0.7-1.8-15.2,0.2-15.2,0.2l-10,0.8l1.3,15.8c0,0,8.3-6.1,11.2-15.2c6.9-0.8,10.4,0,10.4,0S255.4,266.9,253.8,275.9L253.8,275.9z
			"/>
		<path id="XMLID_138_" fill="#FF9489" d="M222.9,244.2c0,0,1.2,7.3-1.1,9.5c-3.9,2-5.6,2.7-5.6,2.7s3.5,8,10.1,15
			c6.7-7.1,8.7-16.6,8.7-16.6s-3.6,0.1-5.1-0.5c-1.5-0.7-0.5-10-0.5-10H222.9z"/>
		<path id="XMLID_139_" fill="#FF9489" d="M225.7,254.1c-0.1-3.2,1.4-5.9,3.5-7.4c0.1-1.5,0.2-2.6,0.2-2.6h-6.5c0,0,1.2,7.3-1.1,9.5
			c-3.9,2-5.6,2.7-5.6,2.7s3.5,8,10.1,15c0.3-0.4,0.7-0.7,1-1.1C217.8,257.8,221.6,257.7,225.7,254.1z"/>
		<path id="XMLID_140_" fill="#FF9489" d="M216.3,226.8c0,0,0.7,6,0.9,7.3c-2-1.8-3.2-0.2-2.1,1.8c1.1,2,3.5,4.8,3.5,4.8
			s3.9,8.2,8.3,8.2c4.4,0,8.5-5.7,9.8-20.6c-3.2-2-5.5-4.8-5.5-4.8s-4.3,5.1-8.2,2C219.2,222.2,215.9,223.3,216.3,226.8z"/>
		<path id="XMLID_141_" fill="#FF9489" d="M278.8,265c0.9-1.7-0.5-8.9-0.5-8.9s-0.1,3.3,0,6.9c-1.5,2.1-8.2,17.2-12.2,23.3l1.2,2.3
			C267.2,288.6,277.9,266.8,278.8,265z"/>
		<path id="XMLID_142_" fill="#FFD4D2" d="M187.8,297.9c0,0,20.6,12.6,25.9,19.1c0-0.3,0-0.6,0-0.9c0-3-22.2-17.6-23.2-18.3
			c3.9-5.5,9.9-13.7,9.9-13.7L187.8,297.9z"/>
		<path id="XMLID_143_" fill="#FFD4D2" d="M286.3,256.9c-0.2-4.1-1.9-13.8-2.9-15.4c0.8,4.3,2.3,13.3,1.5,15.4
			c-1.1,2.8-0.7,3.9-4.4,8.5C278.9,273,267,301,267,301c3.9-5.5,11.4-24.4,14.2-34.6C281.3,265.6,286.5,261.5,286.3,256.9z"/>
		<path id="XMLID_144_" fill="#FFD4D2" d="M231.4,244.2c-1.7,3.3-4.4,4.7-7.5,3.5c0.9,0.7,2,1.2,3,1.2c4.4,0,8.5-5.7,9.8-20.6
			c-0.9-0.5-1.7-1.1-2.4-1.7C234.4,235.3,232.8,241.5,231.4,244.2z"/>
		<path id="XMLID_145_" opacity="0.3" fill="#6770A7" d="M221.7,299.4c-2-3.5-10.6-29.7-10.6-31.5c0-1.9,5.3-7.3,8.2-8.4l2.5-1.7
			l-3.4-0.9c0,0-11.2,3.5-14.1,6.1c-1.9,1.7-6.2,8.8-9.1,13.9c1.5,1.4,3.5,3.8,5.2,7.3c4.3-5.3,6.4-8.2,6.4-8.2s6.9,18.5,9.5,24
			c-1.9,11.2-2.1,14.8-3.1,20.3c6.2,1.2,14.9,0.2,22.5-1.6C222.8,316.5,223.4,302.4,221.7,299.4z"/>
		<path id="XMLID_146_" fill="#B0AED4" d="M247.9,273.8l-4.1,20.9c0,0,3.5,12.8,4.1,14.9c0.7,2.1-1.8,4.5-10.1,8.4
			c6-1.6,11.1-3.5,13.6-5.2c-2.6-9.4-5.2-16.3-5.1-19C246.5,291.2,247.9,273.8,247.9,273.8z"/>
	</g>
	<g>
		<g>
			<path fill="#B53F97" d="M132,365.5c-4.1,0.9-7.4-5.4-16.6-3c-9.2,2.5-14.7,20.7-1.9,26.6c12.8,5.9,13.9,15.6,12.5,22.5
				c-1.4,6.9-8.6,27.7,31.1,21.4c6.1-1.8,19.1-20.2,7.8-31.4c-11.3-11.2-20.8-8.8-18.4-19C149,372.6,143.2,363.2,132,365.5z"/>
			<path opacity="0.4" fill="#B0AED4" d="M132,365.5c-4.1,0.9-7.4-5.4-16.6-3c-9.2,2.5-14.7,20.7-1.9,26.6
				c12.8,5.9,13.9,15.6,12.5,22.5c-1.4,6.9-8.6,27.7,31.1,21.4c6.1-1.8,19.1-20.2,7.8-31.4c-11.3-11.2-20.8-8.8-18.4-19
				C149,372.6,143.2,363.2,132,365.5z"/>
			<path id="XMLID_149_" fill="#6770A7" d="M164,442.5c-0.1-0.2-6-11.6-14.7-26.4l9.3-15.3c0.1-0.2,0.1-0.4-0.1-0.5
				c-0.2-0.1-0.4-0.1-0.5,0.1l-9.1,15c-4.2-7.2-9.1-15.1-14.4-23l3.6-21.2c0-0.2-0.1-0.4-0.3-0.4c-0.2,0-0.4,0.1-0.4,0.3l-3.4,20.4
				c-5.7-8.6-11.9-17-18-24.2c-0.2-0.2-0.5-0.3-0.8-0.1c-0.2,0.2-0.3,0.5-0.1,0.8c3.8,4.5,7.6,9.5,11.4,14.7l-14.4-3
				c-0.2,0-0.4,0.1-0.4,0.3c0,0.2,0.1,0.4,0.3,0.4l15.2,3.2c10.3,14.5,19.8,30.4,26.5,42.2h-23.4c-0.2,0-0.4,0.2-0.4,0.4
				c0,0.2,0.2,0.4,0.4,0.4h23.8c5.5,9.7,8.9,16.3,9,16.5c0.1,0.2,0.3,0.3,0.5,0.3c0.1,0,0.2,0,0.2-0.1
				C164,443,164.1,442.7,164,442.5z"/>
		</g>
		<g>
			<path fill="#B53F97" d="M175.7,420.6c9.7,2.6,19.6-9.2,13.9-19.2c-5.7-10,5.5-8.8,4-15.9c-1.5-7.1-5.9-10.7-1.9-13.9
				c4-3.3,2.7-18.8-7.3-19.6c-9.9-0.8-2.5,13.7-1.9,16.9c0.6,3.2-0.8,9.5-7.1,10.8c-6.3,1.4-7.8,8.5-2.3,13.5
				c5.5,5-8.8,5.1-9.5,11.9C163,411.8,164.5,417.6,175.7,420.6z"/>
			<path fill="#6770A7" d="M191.5,385.1c-0.1-0.1-0.2,0-0.3,0.1c-1.3,2.6-5.9,5-7.6,5.8c0.1-0.4,0.2-0.8,0.3-1.2
				c1.9-7.3,3.7-14.4,3.6-21.1c1.8-2.5,2.2-5.4,2.4-7.5c0.1-0.5,0.1-1,0.2-1.5c0-0.1-0.1-0.2-0.2-0.3c-0.1,0-0.2,0.1-0.3,0.2
				c-0.1,0.4-0.1,1-0.2,1.5c-0.3,2-0.6,4.5-2,6.7c-0.1-4.2-1-8.3-3-12.2c-0.1-0.2-0.3-0.3-0.5-0.2c-0.2,0.1-0.3,0.3-0.2,0.5
				c5.3,10.3,2.4,21.7-0.7,33.7c-0.4,1.5-0.8,3-1.2,4.6c-1.1-2-4.1-7.7-4.8-10c0-0.1-0.2-0.2-0.3-0.2c-0.1,0-0.2,0.2-0.2,0.3
				c0.7,2.5,4.3,9.1,5,10.5c-0.9,3.5-1.6,7.2-2.2,10.8l-4.2-6.6c-0.1-0.1-0.2-0.1-0.3-0.1c-0.1,0.1-0.1,0.2-0.1,0.3l4.5,7
				c0,0,0,0.1,0,0.1c-2.4,18.2-10.1,35.9-10.2,36.1c-0.1,0.2,0,0.4,0.2,0.5c0,0,0.1,0,0.2,0c0.1,0,0.3-0.1,0.3-0.2
				c0.1-0.2,6.3-14.5,9.3-30.6c1.4-0.4,7.2-2.2,10.7-5.5c0.1-0.1,0.1-0.2,0-0.3c-0.1-0.1-0.2-0.1-0.3,0c-3.2,3.1-8.6,4.9-10.3,5.3
				c0.3-1.7,0.6-3.4,0.8-5.1c0.7-5.1,1.9-10.1,3.1-15c1.3-0.6,6.7-3.2,8.2-6.2C191.7,385.3,191.6,385.1,191.5,385.1z"/>
		</g>
		<g>
			<path id="XMLID_150_" fill="#C465AC" d="M165.5,433.1c0,0,10.8-6.7,11.1-20.7c0.3-14-13-11.3-10.9-21.5
				c2.1-10.2,9.6-22.3,0.8-28.7c-8.8-6.4-20.4,0.7-14.5-11.7c5.3-11.1-12.1-19.2-18.4-16.8c-6.2,2.4-9,11.2,0.4,19.2
				c4.2,3.6,2.1,8-2.1,12.8c-4.5,5.2-8,12.7,0.9,17.3c9.6,4.9-6.2,9.2-2.6,18.1c3.7,8.8,18.6,4.6,15.6,11.5
				C142.6,420.3,124.4,428.2,165.5,433.1z"/>
			<path id="XMLID_151_" opacity="0.5" fill="#DFDFFB" d="M165.7,390.9c2.1-10.2,9.6-22.3,0.8-28.7c-8.8-6.4-20.4,0.7-14.5-11.7
				c3.6-7.6-3.4-13.8-10.1-16.2c3.3,2,5.3,5.3,6,7.1c1.4,3.7-8,17.6,5.9,19.7c13.9,2.1,17.4,4.4,13.3,16.5
				c-4.1,12.1-9.8,17.4,0,22.9c9.8,5.5,9,18.3-1.5,27.6c0,3.1-0.1,3.9-0.1,5c0,0,10.8-6.7,11.1-20.7
				C176.9,398.4,163.6,401.1,165.7,390.9z"/>
			<path id="XMLID_152_" fill="#6770A7" d="M169.6,407.1c-0.2-0.1-0.4-0.1-0.5,0l-6.8,8.1c-2.1-9.4-5-20.5-8.6-32.1
				c1.2-1.6,7.6-9.9,10.2-15.5c0.1-0.2,0-0.4-0.2-0.5c-0.2-0.1-0.4,0-0.5,0.2c-2.4,5.1-8.1,12.6-9.8,14.9
				c-4.5-14.3-10.2-29.2-17.3-42.6c-0.1-0.3-0.5-0.4-0.7-0.2c-0.3,0.1-0.4,0.5-0.2,0.7c5.7,10.8,10.5,22.6,14.5,34.2
				c-2.9-1-11.8-3.9-15.1-4.5c-0.2,0-0.4,0.1-0.4,0.3c0,0.2,0.1,0.4,0.3,0.4c3.5,0.7,13.5,4,15.6,4.7c3,8.8,5.6,17.6,7.7,25.7
				c-3.4-0.7-17.2-3.3-21.9-4.2c-0.2,0-0.4,0.1-0.4,0.3c0,0.2,0.1,0.4,0.3,0.4c4.9,0.9,19.6,3.8,22.3,4.3c2.1,7.9,3.7,15.2,5,21.4
				l-17.4-1.3c-0.2,0-0.4,0.1-0.4,0.3c0,0.2,0.1,0.4,0.3,0.4l17.6,1.3c2.4,11.3,3.4,18.7,3.5,18.9c0,0.3,0.3,0.5,0.5,0.5
				c0,0,0.1,0,0.1,0c0.3,0,0.5-0.3,0.5-0.6c0-0.3-1.6-10.9-5.1-26.5l7.2-8.5C169.8,407.5,169.7,407.3,169.6,407.1z"/>
		</g>
	</g>
	<path id="XMLID_147_" fill="none" stroke="#6770A7" stroke-linecap="round" stroke-linejoin="round" stroke-miterlimit="10" d="
		M117.7,367.5"/>
	<path id="XMLID_148_" fill="none" stroke="#6770A7" stroke-linecap="round" stroke-linejoin="round" stroke-miterlimit="10" d="
		M165.6,442.7"/>
</g>
</svg>
