<svg width="35" height="35" viewBox="0 0 35 35" fill="none" xmlns="http://www.w3.org/2000/svg">
<path d="M18.3352 5.41622L18.6203 5.67236H18.622L27.9616 14.0644C28.131 14.2168 28.2665 14.403 28.3592 14.6111C28.452 14.8192 28.4999 15.0444 28.5 15.2721C28.5 15.2722 28.5 15.2723 28.5 15.2723V27.6184C28.5 28.0493 28.3288 28.4627 28.024 28.7674C27.7193 29.0722 27.306 29.2434 26.875 29.2434H23.375C22.944 29.2434 22.5307 29.0722 22.226 28.7674C21.9212 28.4627 21.75 28.0493 21.75 27.6184V20.6184C21.75 20.1211 21.5525 19.6442 21.2008 19.2925C20.8492 18.9409 20.3723 18.7434 19.875 18.7434H14.625C14.1277 18.7434 13.6508 18.9409 13.2992 19.2925L14.0063 19.9996L13.2992 19.2925C12.9475 19.6442 12.75 20.1211 12.75 20.6184V27.6184C12.75 28.0493 12.5788 28.4627 12.274 28.7674C11.9693 29.0722 11.556 29.2434 11.125 29.2434H7.625C7.19403 29.2434 6.7807 29.0722 6.47595 28.7674C6.1712 28.4627 6 28.0493 6 27.6184V15.2723C6 15.2723 6 15.2722 6 15.2721C6.00008 15.0444 6.04804 14.8192 6.14077 14.6111C6.23353 14.403 6.36901 14.2168 6.53842 14.0644L16.1631 5.41622C16.1631 5.41621 16.1631 5.4162 16.1631 5.41619C16.4614 5.14823 16.8482 5 17.2491 5C17.6501 5 18.0369 5.14824 18.3352 5.41622Z" stroke="#0C4E30" stroke-width="2"/>
</svg>
