<svg width="35" height="35" viewBox="0 0 35 35" fill="none" xmlns="http://www.w3.org/2000/svg">
<path d="M19.0035 4.67236C18.5217 4.23947 17.8968 4 17.2491 4C16.6014 4 15.9766 4.23947 15.4947 4.67236L5.86975 13.3209C5.59609 13.567 5.37724 13.8679 5.2274 14.204C5.07756 14.5402 5.00008 14.9041 5 15.2721V27.6184C5 28.3146 5.27656 28.9822 5.76884 29.4745C6.26113 29.9668 6.92881 30.2434 7.625 30.2434H11.125C11.8212 30.2434 12.4889 29.9668 12.9812 29.4745C13.4734 28.9822 13.75 28.3146 13.75 27.6184V20.6184C13.75 20.3863 13.8422 20.1637 14.0063 19.9996C14.1704 19.8355 14.3929 19.7434 14.625 19.7434H19.875C20.1071 19.7434 20.3296 19.8355 20.4937 19.9996C20.6578 20.1637 20.75 20.3863 20.75 20.6184V27.6184C20.75 28.3146 21.0266 28.9822 21.5188 29.4745C22.0111 29.9668 22.6788 30.2434 23.375 30.2434H26.875C27.5712 30.2434 28.2389 29.9668 28.7312 29.4745C29.2234 28.9822 29.5 28.3146 29.5 27.6184V15.2721C29.4999 14.9041 29.4224 14.5402 29.2726 14.204C29.1228 13.8679 28.9039 13.567 28.6303 13.3209L19.0053 4.67236H19.0035Z" fill="#0C4E30"/>
</svg>
