<svg width="24" height="24" viewBox="0 0 24 24" fill="none" xmlns="http://www.w3.org/2000/svg">
<path d="M12 0C5.37258 0 0 5.37258 0 12C0 18.6274 5.37258 24 12 24C18.6274 24 24 18.6274 24 12C24 5.37258 18.6274 0 12 0ZM16.0372 3.74848C16.389 3.75126 16.7306 3.88102 16.9886 4.13906L18.9856 6.13526C19.5376 6.68728 19.4997 7.61734 18.9027 8.2158C18.3042 8.8143 17.3727 8.84988 16.8222 8.2994L14.826 6.3032C14.2739 5.7527 14.3125 4.81966 14.9096 4.22266C15.2267 3.90468 15.6386 3.74534 16.0372 3.74848ZM12.747 6.38602L16.7401 10.3784L10.2508 16.8662L6.2576 12.8731L12.747 6.38602ZM5.22112 13.6292L9.43312 17.8412L4.16642 18.8959L5.22112 13.6292Z" fill="#0C4E30"/>
</svg>
