<svg width="25" height="25" viewBox="0 0 25 25" fill="none" xmlns="http://www.w3.org/2000/svg">
<path d="M22.5625 4H2.4375C2.05625 4 1.69062 4.15145 1.42103 4.42103C1.15145 4.69062 1 5.05625 1 5.4375V19.8125C1 20.1937 1.15145 20.5594 1.42103 20.829C1.69062 21.0985 2.05625 21.25 2.4375 21.25H22.5625C22.9437 21.25 23.3094 21.0985 23.579 20.829C23.8486 20.5594 24 20.1937 24 19.8125V5.4375C24 5.05625 23.8486 4.69062 23.579 4.42103C23.3094 4.15145 22.9437 4 22.5625 4ZM21.4556 19.8125H3.63062L8.66187 14.6088L7.62688 13.6097L2.4375 18.9788V6.53L11.3716 15.4209C11.6409 15.6887 12.0052 15.839 12.385 15.839C12.7648 15.839 13.1291 15.6887 13.3984 15.4209L22.5625 6.30719V18.8853L17.2725 13.5953L16.2591 14.6088L21.4556 19.8125ZM3.37906 5.4375H21.3981L12.385 14.4003L3.37906 5.4375Z" fill="#3C8363"/>
</svg>
