<svg width="25" height="25" viewBox="0 0 25 25" fill="none" xmlns="http://www.w3.org/2000/svg">
<path d="M15.625 8.59375V6.64062C15.625 6.12262 15.4192 5.62584 15.0529 5.25956C14.6867 4.89328 14.1899 4.6875 13.6719 4.6875H4.29688C3.77887 4.6875 3.28209 4.89328 2.91581 5.25956C2.54953 5.62584 2.34375 6.12262 2.34375 6.64062V18.3594C2.34375 18.8774 2.54953 19.3742 2.91581 19.7404C3.28209 20.1067 3.77887 20.3125 4.29688 20.3125H13.6719C14.1899 20.3125 14.6867 20.1067 15.0529 19.7404C15.4192 19.3742 15.625 18.8774 15.625 18.3594V16.4062" stroke="#3C8363" stroke-linecap="round" stroke-linejoin="round"/>
<path d="M18.75 8.59375L22.6562 12.5L18.75 16.4062" stroke="#3C8363" stroke-linecap="round" stroke-linejoin="round"/>
<path d="M9.32617 12.5H22.6562" stroke="#3C8363" stroke-linecap="round" stroke-linejoin="round"/>
</svg>
