<svg width="24" height="24" viewBox="0 0 24 24" fill="none" xmlns="http://www.w3.org/2000/svg">
<path fill-rule="evenodd" clip-rule="evenodd" d="M4.75835 10.8941L3.95047 11.702L4.75836 12.5098H2.80789C2.58706 12.5098 2.38692 12.4212 2.24108 12.2776L2.23664 12.2732C2.22189 12.2585 2.20783 12.2433 2.19445 12.2277C2.14517 12.1703 2.10382 12.1058 2.07209 12.036C1.98 11.8331 1.97615 11.6 2.06054 11.3945C2.18149 11.1008 2.47055 10.8941 2.80789 10.8941H4.75835ZM2.06054 11.3945C2.09998 11.2986 2.15868 11.2086 2.23664 11.1307L9.1307 4.2366C9.44621 3.92113 9.95773 3.92113 10.2732 4.2366C10.5887 4.55211 10.5887 5.06363 10.2732 5.37914L4.75835 10.8941H21.1921C21.6383 10.8941 22 11.2558 22 11.702C22 12.1482 21.6383 12.5098 21.1921 12.5098H4.75836L10.2733 18.0247C10.5888 18.3402 10.5888 18.8518 10.2733 19.1673C10.1155 19.325 9.90875 19.4039 9.70199 19.4039C9.49523 19.4039 9.28844 19.325 9.1307 19.1673L2.24108 12.2776C2.22485 12.2617 2.20929 12.245 2.19445 12.2277C2.14375 12.1687 2.10296 12.1041 2.07209 12.036C2.02579 11.9342 2 11.8211 2 11.702C2 11.5931 2.02152 11.4893 2.06054 11.3945Z" fill="#212122"/>
<mask id="mask0" mask-type="alpha" maskUnits="userSpaceOnUse" x="2" y="4" width="20" height="16">
<path fill-rule="evenodd" clip-rule="evenodd" d="M4.75835 10.8941L3.95047 11.702L4.75836 12.5098H2.80789C2.58706 12.5098 2.38692 12.4212 2.24108 12.2776L2.23664 12.2732C2.22189 12.2585 2.20783 12.2433 2.19445 12.2277C2.14517 12.1703 2.10382 12.1058 2.07209 12.036C1.98 11.8331 1.97615 11.6 2.06054 11.3945C2.18149 11.1008 2.47055 10.8941 2.80789 10.8941H4.75835ZM2.06054 11.3945C2.09998 11.2986 2.15868 11.2086 2.23664 11.1307L9.1307 4.2366C9.44621 3.92113 9.95773 3.92113 10.2732 4.2366C10.5887 4.55211 10.5887 5.06363 10.2732 5.37914L4.75835 10.8941H21.1921C21.6383 10.8941 22 11.2558 22 11.702C22 12.1482 21.6383 12.5098 21.1921 12.5098H4.75836L10.2733 18.0247C10.5888 18.3402 10.5888 18.8518 10.2733 19.1673C10.1155 19.325 9.90875 19.4039 9.70199 19.4039C9.49523 19.4039 9.28844 19.325 9.1307 19.1673L2.24108 12.2776C2.22485 12.2617 2.20929 12.245 2.19445 12.2277C2.14375 12.1687 2.10296 12.1041 2.07209 12.036C2.02579 11.9342 2 11.8211 2 11.702C2 11.5931 2.02152 11.4893 2.06054 11.3945Z" fill="white"/>
</mask>
<g mask="url(#mask0)">
</g>
</svg>
