<svg width="30" height="30" viewBox="0 0 30 30" fill="none" xmlns="http://www.w3.org/2000/svg">
<path fill-rule="evenodd" clip-rule="evenodd" d="M15.9914 15.9914H26.5092C27.0565 15.9914 27.5007 15.5473 27.5 15C27.5 14.4521 27.0565 14.0086 26.5092 14.0086H15.9914V3.49077C15.9914 2.9435 15.5479 2.5 15 2.5C14.4527 2.49934 14.0086 2.9435 14.0086 3.49077V14.0086H3.49143C2.9435 14.0086 2.5 14.4527 2.5 15C2.5 15.2743 2.61104 15.5215 2.79016 15.7013C2.96928 15.8804 3.21714 15.9914 3.49143 15.9914H14.0086V26.5092C14.0086 26.7829 14.1196 27.0307 14.2994 27.2098C14.4785 27.3896 14.7264 27.5 15 27.5C15.5473 27.5007 15.9914 27.0565 15.9914 26.5092V15.9914Z" fill="#F0FDF6"/>
</svg>
