<svg width="50" height="50" viewBox="0 0 50 50" fill="none" xmlns="http://www.w3.org/2000/svg">
<path fill-rule="evenodd" clip-rule="evenodd" d="M16.7922 17.5919C16.7922 17.5919 18.7195 14.3701 19.6638 12.1254C20.6082 9.88066 19.7558 14.2387 23.6476 14.2387C27.5395 14.2387 32.4774 13.9238 32.4774 15.8727C32.4774 17.8216 34.7158 9.11179 27.545 5.90744C20.3742 2.7031 16.7922 8.52602 16.7922 8.52602C16.7922 8.52602 15.313 12.2206 15.313 14.2387C15.313 16.2569 16.7922 17.5919 16.7922 17.5919Z" fill="#3C8363"/>
<path fill-rule="evenodd" clip-rule="evenodd" d="M15.2778 35.9445C15.2778 33.7353 17.0686 31.9445 19.2778 31.9445H35.5833C37.7925 31.9445 39.5833 33.7353 39.5833 35.9445V44.0972H15.2778V35.9445Z" fill="#3C8363"/>
<path fill-rule="evenodd" clip-rule="evenodd" d="M33.7922 31.1698L33.7803 31.1697C33.5145 31.17 28.9538 31.1749 28.2605 26.1777C29.0513 25.6259 29.7802 24.9095 30.4223 24.0403C31.6715 22.3492 32.4764 20.2279 32.7632 17.9333C32.8617 17.8442 32.9432 17.7333 32.9981 17.6027C33.5169 16.3669 33.78 15.0473 33.78 13.6805C33.78 8.43461 29.8228 4.16666 24.9584 4.16666C23.6862 4.16666 22.452 4.4597 21.2863 5.03841C20.8416 5.07236 20.4059 5.15057 19.988 5.27127C17.9902 5.84851 16.3644 7.32975 15.4102 9.44232C14.4838 11.4935 14.3012 13.9081 14.8962 16.2415C15.0219 16.7345 15.1818 17.2189 15.3713 17.6817C15.4227 17.8068 15.4992 17.9137 15.591 18.0015C16.0555 21.583 17.7596 24.5504 20.0832 26.1706C19.3877 31.1763 14.8286 31.1703 14.5629 31.1699L14.551 31.17C11.1087 31.2868 8.34364 34.1217 8.34364 37.5919V44.8159C8.34364 45.333 8.76283 45.7522 9.27997 45.7522H17.5021H30.8409H39.0632C39.5802 45.7522 39.9996 45.333 39.9996 44.8159V37.5919C39.9995 34.1215 37.2347 31.2865 33.7922 31.1698ZM20.5079 7.07038C20.8496 6.97162 21.2104 6.91306 21.5805 6.8964C21.7178 6.89023 21.8521 6.85393 21.9738 6.78992C22.9218 6.29187 23.926 6.03935 24.9585 6.03935C28.79 6.03935 31.9073 9.46715 31.9073 13.6805C31.9073 13.807 31.9037 13.9328 31.8982 14.0581C31.155 13.3034 30.1225 12.8344 28.9822 12.8344H22.6005C22.2208 12.8344 21.8605 12.7151 21.5582 12.4895C21.3002 12.2969 21.1007 12.0381 20.9816 11.7409C20.797 11.2814 20.342 10.994 19.8467 11.0251C19.3497 11.0567 18.9314 11.4019 18.8058 11.8843C18.436 13.3054 17.6986 14.6143 16.6869 15.6758C15.7455 11.8016 17.4444 7.95545 20.5079 7.07038ZM17.424 17.5661C17.6769 19.7667 18.4748 21.7767 19.6932 23.2651C20.9413 24.7899 22.5323 25.6297 24.173 25.6296C27.9428 25.6296 31.0098 21.3293 31.0098 16.0436C31.0098 16.0401 31.01 16.0367 31.0103 16.0333L31.0103 16.0332C31.0105 16.0302 31.0108 16.0271 31.0108 16.0239C30.6635 15.2488 29.8852 14.7072 28.9823 14.7072H22.6006C21.8141 14.7072 21.0664 14.4592 20.438 13.9904C20.3368 13.9147 20.2399 13.8342 20.1477 13.7491C19.5396 15.2027 18.6055 16.5131 17.424 17.5661ZM21.8447 27.0901C22.587 27.3587 23.3678 27.5023 24.173 27.5023C24.9718 27.5023 25.7523 27.3633 26.4994 27.095C26.8423 28.8812 27.8354 30.4379 29.2225 31.5097L24.3058 38.5116C24.2737 38.5573 24.2291 38.5805 24.1732 38.5805C24.1174 38.5805 24.0729 38.5572 24.0409 38.5117L19.1229 31.5081C20.5102 30.4352 21.5029 28.8773 21.8447 27.0901ZM30.8409 43.8794H38.1268V37.5919C38.1268 35.0804 36.0836 33.0371 33.5721 33.0371C33.5379 33.0371 32.2008 33.0371 30.843 32.4605L25.8383 39.5878C25.4579 40.1297 24.8353 40.4532 24.1733 40.4532H24.1732C23.5111 40.4532 22.8886 40.1297 22.5081 39.5878L17.5025 32.4593C16.312 33.0004 14.8052 33.037 14.7711 33.037C12.2596 33.037 10.2163 35.0803 10.2163 37.5918V43.8794H17.5021H30.8409Z" fill="black"/>
</svg>
