<svg width="25" height="25" viewBox="0 0 25 25" fill="none" xmlns="http://www.w3.org/2000/svg">
<path d="M6.25314 2.90936C6.16828 2.80021 6.06117 2.71035 5.93891 2.64577C5.81666 2.58119 5.68206 2.54336 5.54407 2.5348C5.40607 2.52623 5.26783 2.54712 5.13853 2.59609C5.00923 2.64506 4.89183 2.72098 4.79412 2.8188L3.30779 4.30657C2.6135 5.0023 2.35763 5.98696 2.66094 6.85087C3.91977 10.4267 5.96751 13.6732 8.65225 16.3496C11.3287 19.0343 14.5752 21.082 18.151 22.3409C19.0149 22.6442 19.9995 22.3883 20.6952 21.694L22.1816 20.2077C22.2794 20.11 22.3553 19.9926 22.4043 19.8633C22.4533 19.734 22.4742 19.5957 22.4656 19.4578C22.457 19.3198 22.4192 19.1852 22.3546 19.0629C22.29 18.9407 22.2002 18.8335 22.091 18.7487L18.7748 16.1699C18.6582 16.0794 18.5225 16.0167 18.3781 15.9863C18.2337 15.9559 18.0843 15.9587 17.9411 15.9945L14.7931 16.7808C14.3729 16.8858 13.9326 16.8803 13.5152 16.7646C13.0978 16.649 12.7175 16.4273 12.4112 16.121L8.88081 12.5892C8.5743 12.2831 8.35229 11.9028 8.23641 11.4854C8.12053 11.068 8.11473 10.6276 8.21958 10.2073L9.0073 7.0593C9.0431 6.91612 9.04592 6.76668 9.01554 6.62226C8.98516 6.47783 8.92238 6.34219 8.83193 6.22557L6.25314 2.90936ZM3.70884 1.73496C3.96039 1.48334 4.26259 1.2881 4.59538 1.16223C4.92816 1.03635 5.28392 0.98271 5.63903 1.00487C5.99414 1.02703 6.34047 1.12448 6.65502 1.29076C6.96958 1.45703 7.24516 1.68832 7.46347 1.96927L10.0423 5.28404C10.5152 5.89208 10.6819 6.68412 10.4951 7.4316L9.70878 10.5796C9.66813 10.7427 9.67032 10.9135 9.71515 11.0754C9.75999 11.2374 9.84593 11.385 9.96465 11.5039L13.4965 15.0357C13.6155 15.1547 13.7634 15.2408 13.9256 15.2856C14.0879 15.3305 14.2589 15.3325 14.4222 15.2916L17.5688 14.5053C17.9377 14.4131 18.3227 14.4059 18.6947 14.4844C19.0668 14.5628 19.4161 14.7248 19.7163 14.9581L23.0311 17.5369C24.2228 18.4641 24.332 20.2249 23.2654 21.2901L21.7791 22.7764C20.7154 23.8401 19.1255 24.3073 17.6435 23.7855C13.8504 22.4509 10.4063 20.2793 7.56697 17.432C4.71979 14.593 2.54825 11.1495 1.21342 7.35685C0.693062 5.87627 1.16023 4.28501 2.22395 3.22129L3.71028 1.73496H3.70884Z" fill="#3C8363"/>
</svg>
