<svg width="50" height="50" viewBox="0 0 50 50" fill="none" xmlns="http://www.w3.org/2000/svg">
<path d="M43.5833 10.4167H6.08333C5.5308 10.4167 5.00089 10.6362 4.61019 11.0269C4.21949 11.4176 4 11.9475 4 12.5V20.8334H5.86042C7.93542 20.8334 9.86042 22.2521 10.1938 24.3C10.2953 24.898 10.2651 25.511 10.1053 26.0961C9.94556 26.6812 9.66001 27.2244 9.26863 27.6878C8.87725 28.1512 8.38946 28.5236 7.83931 28.779C7.28915 29.0345 6.68989 29.1668 6.08333 29.1667H4V37.5C4 38.0526 4.21949 38.5825 4.61019 38.9732C5.00089 39.3639 5.5308 39.5834 6.08333 39.5834H43.5833C44.1359 39.5834 44.6658 39.3639 45.0565 38.9732C45.4472 38.5825 45.6667 38.0526 45.6667 37.5V29.1667H43.5833C42.9768 29.1668 42.3775 29.0345 41.8274 28.779C41.2772 28.5236 40.7894 28.1512 40.398 27.6878C40.0067 27.2244 39.7211 26.6812 39.5613 26.0961C39.4015 25.511 39.3714 24.898 39.4729 24.3C39.8063 22.2521 41.7313 20.8334 43.8063 20.8334H45.6667V12.5C45.6667 11.9475 45.4472 11.4176 45.0565 11.0269C44.6658 10.6362 44.1359 10.4167 43.5833 10.4167ZM18.5833 18.75C19.1359 18.75 19.6658 18.9695 20.0565 19.3602C20.4472 19.7509 20.6667 20.2808 20.6667 20.8334C20.6667 21.3859 20.4472 21.9158 20.0565 22.3065C19.6658 22.6972 19.1359 22.9167 18.5833 22.9167C18.0308 22.9167 17.5009 22.6972 17.1102 22.3065C16.7195 21.9158 16.5 21.3859 16.5 20.8334C16.5 20.2808 16.7195 19.7509 17.1102 19.3602C17.5009 18.9695 18.0308 18.75 18.5833 18.75ZM16.9167 32.0834L29.4167 15.4167L32.75 17.9167L20.25 34.5834L16.9167 32.0834ZM31.0833 31.25C30.5308 31.25 30.0009 31.0305 29.6102 30.6398C29.2195 30.2491 29 29.7192 29 29.1667C29 28.6142 29.2195 28.0842 29.6102 27.6936C30.0009 27.3028 30.5308 27.0834 31.0833 27.0834C31.6359 27.0834 32.1658 27.3028 32.5565 27.6936C32.9472 28.0842 33.1667 28.6142 33.1667 29.1667C33.1667 29.7192 32.9472 30.2491 32.5565 30.6398C32.1658 31.0305 31.6359 31.25 31.0833 31.25Z" fill="#3C8363"/>
</svg>
