<svg width="40" height="40" viewBox="0 0 40 40" fill="none" xmlns="http://www.w3.org/2000/svg">
<path d="M32.2712 16.4385C32.4124 16.4336 32.5532 16.4572 32.685 16.5079C32.8169 16.5585 32.9372 16.6352 33.0388 16.7334C33.1404 16.8315 33.2212 16.9491 33.2764 17.0792C33.3316 17.2092 33.36 17.3491 33.36 17.4903C33.36 17.6316 33.3316 17.7714 33.2764 17.9015C33.2212 18.0315 33.1404 18.1491 33.0388 18.2473C32.9372 18.3454 32.8169 18.4221 32.685 18.4728C32.5532 18.5235 32.4124 18.5471 32.2712 18.5422H29.3475V20.4172H32.2712C32.4133 20.4103 32.5552 20.4323 32.6885 20.4818C32.8218 20.5314 32.9436 20.6075 33.0466 20.7056C33.1496 20.8037 33.2316 20.9216 33.2876 21.0523C33.3436 21.183 33.3725 21.3238 33.3725 21.466C33.3725 21.6082 33.3436 21.7489 33.2876 21.8796C33.2316 22.0103 33.1496 22.1282 33.0466 22.2263C32.9436 22.3244 32.8218 22.4005 32.6885 22.4501C32.5552 22.4997 32.4133 22.5216 32.2712 22.5147H28.3C28.0224 22.5137 27.7565 22.4028 27.5604 22.2063C27.3643 22.0098 27.2541 21.7436 27.2537 21.466V13.516C27.2537 12.9372 27.7225 12.4622 28.3 12.4622H32.2788C32.5487 12.4762 32.8029 12.5934 32.9887 12.7897C33.1745 12.9859 33.2777 13.2462 33.2769 13.5164C33.2761 13.7867 33.1714 14.0463 32.9844 14.2415C32.7974 14.4366 32.5425 14.5524 32.2725 14.5647H29.3488V16.4397L32.2712 16.4385ZM25.8538 21.4647C25.8514 21.7431 25.7393 22.0093 25.5417 22.2055C25.3442 22.4017 25.0772 22.5119 24.7988 22.5122C24.6339 22.5138 24.4709 22.477 24.3228 22.4048C24.1746 22.3325 24.0453 22.2268 23.945 22.096L19.8762 16.5622V21.4635C19.8762 21.7416 19.7658 22.0084 19.5691 22.205C19.3724 22.4017 19.1056 22.5122 18.8275 22.5122C18.5494 22.5122 18.2826 22.4017 18.0859 22.205C17.8892 22.0084 17.7787 21.7416 17.7787 21.4635V13.5135C17.7787 13.0647 18.0725 12.6622 18.495 12.5185C18.5993 12.4816 18.7094 12.4634 18.82 12.4647C19.145 12.4647 19.445 12.641 19.6462 12.8885L23.7475 18.4347V13.5135C23.7475 12.9347 24.2162 12.4597 24.7962 12.4597C25.3762 12.4597 25.8512 12.9347 25.8512 13.5135L25.8538 21.4647ZM16.2838 21.4647C16.2824 21.7435 16.1707 22.0105 15.9729 22.207C15.7752 22.4036 15.5076 22.5138 15.2287 22.5135C14.952 22.5111 14.6874 22.3997 14.4924 22.2033C14.2974 22.0069 14.1878 21.7415 14.1875 21.4647V13.5147C14.1875 12.936 14.6562 12.461 15.2362 12.461C15.815 12.461 16.285 12.936 16.285 13.5147L16.2838 21.4647ZM12.175 22.5135H8.19625C7.91773 22.5128 7.6507 22.4023 7.45317 22.2059C7.25564 22.0096 7.14355 21.7432 7.14125 21.4647V13.5147C7.14125 12.936 7.61625 12.461 8.19625 12.461C8.77625 12.461 9.245 12.936 9.245 13.5147V20.416H12.175C12.4531 20.416 12.7199 20.5264 12.9166 20.7231C13.1133 20.9198 13.2238 21.1866 13.2238 21.4647C13.2238 21.7429 13.1133 22.0096 12.9166 22.2063C12.7199 22.403 12.4531 22.5135 12.175 22.5135ZM40 17.186C40 8.23471 31.0212 0.949707 20 0.949707C8.97875 0.949707 0 8.23471 0 17.186C0 25.2072 7.11625 31.926 16.725 33.2022C17.3762 33.3385 18.2612 33.6322 18.49 34.186C18.6912 34.686 18.62 35.461 18.555 35.9897L18.2812 37.6885C18.2025 38.1897 17.8775 39.6622 20.0262 38.7635C22.1812 37.8647 31.5562 31.9672 35.755 27.1347C38.6263 23.991 40 20.761 40 17.186Z" fill="#7CFC00"/>
</svg>
