<svg width="24" height="24" viewBox="0 0 24 24" fill="none" xmlns="http://www.w3.org/2000/svg">
<path d="M12 11.6687C16.4187 11.6687 20 10.175 20 8.33437C20 6.49375 16.4187 5 12 5C7.58125 5 4 6.49375 4 8.33437C4 10.175 7.58125 11.6687 12 11.6687ZM12 17C8.94688 17 6.24688 16.2656 4.54375 15.1313C4.19687 15.5063 4 15.9094 4 16.3344C4 18.175 7.58125 19.6688 12 19.6688C16.4187 19.6688 20 18.175 20 16.3344C20 15.9094 19.8031 15.5063 19.4563 15.1344C17.7531 16.2656 15.0531 17 12 17ZM12 13C8.94688 13 6.24688 12.2656 4.54375 11.1312C4.19687 11.5062 4 11.9094 4 12.3344C4 14.175 7.58125 15.6688 12 15.6688C16.4187 15.6688 20 14.175 20 12.3344C20 11.9094 19.8031 11.5062 19.4563 11.1344C17.7531 12.2656 15.0531 13 12 13Z" fill="black"/>
</svg>
