<svg width="24" height="24" viewBox="0 0 24 24" fill="none" xmlns="http://www.w3.org/2000/svg">
<path fill-rule="evenodd" clip-rule="evenodd" d="M21.7634 5.91347L18.0865 2.23663C17.771 1.92112 17.2595 1.92112 16.944 2.23663L7.75191 11.4287C7.60043 11.5803 7.51527 11.7858 7.51527 12V15.6769C7.51527 16.1231 7.87699 16.4848 8.32316 16.4848H12C12.2143 16.4848 12.4198 16.3996 12.5712 16.2482L21.7634 7.05601C21.9149 6.90448 22 6.69897 22 6.48472C22 6.27046 21.9149 6.06499 21.7634 5.91347ZM19.3537 13.6372C18.9075 13.6372 18.5458 13.9989 18.5458 14.4451V19.3537C18.5458 19.9219 18.0835 20.3842 17.5153 20.3842H4.64633C4.07809 20.3842 3.61582 19.9219 3.61582 19.3537V6.48476C3.61582 5.91651 4.07812 5.45425 4.64633 5.45425H9.55492C10.0011 5.45425 10.3628 5.09253 10.3628 4.64636C10.3628 4.20019 10.0011 3.83847 9.55492 3.83847H4.64633C3.18715 3.83847 2 5.02562 2 6.4848V19.3537C2.00004 20.8128 3.18719 22 4.64633 22H17.5153C18.9745 22 20.1616 20.8128 20.1616 19.3537V14.4451C20.1616 13.9989 19.7999 13.6372 19.3537 13.6372ZM9.13109 14.8689H11.6654L20.0496 6.48476L17.5153 3.95046L9.13109 12.3346V14.8689Z" fill="#0C4E30"/>
<mask id="mask0" mask-type="alpha" maskUnits="userSpaceOnUse" x="2" y="2" width="20" height="20">
<path fill-rule="evenodd" clip-rule="evenodd" d="M21.7634 5.91347L18.0865 2.23663C17.771 1.92112 17.2595 1.92112 16.944 2.23663L7.75191 11.4287C7.60043 11.5803 7.51527 11.7858 7.51527 12V15.6769C7.51527 16.1231 7.87699 16.4848 8.32316 16.4848H12C12.2143 16.4848 12.4198 16.3996 12.5712 16.2482L21.7634 7.05601C21.9149 6.90448 22 6.69897 22 6.48472C22 6.27046 21.9149 6.06499 21.7634 5.91347ZM19.3537 13.6372C18.9075 13.6372 18.5458 13.9989 18.5458 14.4451V19.3537C18.5458 19.9219 18.0835 20.3842 17.5153 20.3842H4.64633C4.07809 20.3842 3.61582 19.9219 3.61582 19.3537V6.48476C3.61582 5.91651 4.07812 5.45425 4.64633 5.45425H9.55492C10.0011 5.45425 10.3628 5.09253 10.3628 4.64636C10.3628 4.20019 10.0011 3.83847 9.55492 3.83847H4.64633C3.18715 3.83847 2 5.02562 2 6.4848V19.3537C2.00004 20.8128 3.18719 22 4.64633 22H17.5153C18.9745 22 20.1616 20.8128 20.1616 19.3537V14.4451C20.1616 13.9989 19.7999 13.6372 19.3537 13.6372ZM9.13109 14.8689H11.6654L20.0496 6.48476L17.5153 3.95046L9.13109 12.3346V14.8689Z" fill="white"/>
</mask>
<g mask="url(#mask0)">
</g>
</svg>
