<svg width="50" height="50" viewBox="0 0 50 50" fill="none" xmlns="http://www.w3.org/2000/svg">
<path d="M0 39.5801V43.75C0 47.1973 8.39844 50 18.75 50C29.1016 50 37.5 47.1973 37.5 43.75V39.5801C33.4668 42.4219 26.0938 43.75 18.75 43.75C11.4062 43.75 4.0332 42.4219 0 39.5801ZM31.25 12.5C41.6016 12.5 50 9.69727 50 6.25C50 2.80273 41.6016 0 31.25 0C20.8984 0 12.5 2.80273 12.5 6.25C12.5 9.69727 20.8984 12.5 31.25 12.5ZM0 29.3359V34.375C0 37.8223 8.39844 40.625 18.75 40.625C29.1016 40.625 37.5 37.8223 37.5 34.375V29.3359C33.4668 32.6562 26.084 34.375 18.75 34.375C11.416 34.375 4.0332 32.6562 0 29.3359ZM40.625 30.4102C46.2207 29.3262 50 27.3145 50 25V20.8301C47.7344 22.4316 44.4043 23.5254 40.625 24.1992V30.4102ZM18.75 15.625C8.39844 15.625 0 19.1211 0 23.4375C0 27.7539 8.39844 31.25 18.75 31.25C29.1016 31.25 37.5 27.7539 37.5 23.4375C37.5 19.1211 29.1016 15.625 18.75 15.625ZM40.166 21.123C46.0254 20.0684 50 17.998 50 15.625V11.4551C46.5332 13.9062 40.5762 15.2246 34.3066 15.5371C37.1875 16.9336 39.3066 18.8086 40.166 21.123Z" fill="#3C8363"/>
</svg>
