<svg width="50" height="50" viewBox="0 0 50 50" fill="none" xmlns="http://www.w3.org/2000/svg">
<path d="M21.1174 3C18.3717 3 15.7384 4.09073 13.7969 6.03225C11.8553 7.97377 10.7646 10.607 10.7646 13.3528C10.7646 16.0985 11.8553 18.7317 13.7969 20.6733C15.7384 22.6148 18.3717 23.7055 21.1174 23.7055C23.8632 23.7055 26.4964 22.6148 28.438 20.6733C30.3795 18.7317 31.4702 16.0985 31.4702 13.3528C31.4702 10.607 30.3795 7.97377 28.438 6.03225C26.4964 4.09073 23.8632 3 21.1174 3Z" fill="#3C8363"/>
<path d="M8.1997 26.2937C7.51806 26.291 6.84259 26.4228 6.21202 26.6817C5.58146 26.9406 5.0082 27.3214 4.52512 27.8023C4.04205 28.2832 3.65866 28.8548 3.39694 29.4842C3.13523 30.1135 3.00034 30.7884 3 31.4701C3 35.8467 5.15597 39.1466 8.52581 41.2974C11.8439 43.412 16.3163 44.411 21.1174 44.411C23.395 44.411 25.5976 44.1858 27.6397 43.7251C27.4844 42.6044 27.6811 41.4398 28.2298 40.42L28.2609 40.3631L28.4757 40.0085L29.995 37.7801C30.5534 36.9453 31.3483 36.2964 32.278 35.9164C33.2076 35.5365 34.2295 35.4428 35.2128 35.6474L35.2852 35.6629L35.6838 35.7716L37.0659 36.2323C37.4852 35.7786 37.8524 35.2795 38.1607 34.7441C38.4843 34.1851 38.7198 33.6467 38.8854 33.1213L37.6431 31.9437C36.9575 31.2855 36.4591 30.457 36.199 29.5429C35.9388 28.6288 35.9263 27.662 36.1626 26.7414C35.5005 26.446 34.7835 26.2934 34.0584 26.2937H8.1997Z" fill="#3C8363"/>
<path d="M38.8078 26.9796L39.8405 24.5441C40.3245 23.4001 41.484 22.779 42.6228 23.0171L42.8661 23.0792L44.1602 23.4933C45.4439 23.9048 46.4249 25.0022 46.7432 26.3817C47.4964 29.6609 46.5931 33.6545 44.0282 38.3598C41.4685 43.06 38.6654 45.8837 35.6139 46.8362C34.4285 47.2063 33.1552 46.9397 32.1975 46.1348L31.9465 45.9018L30.9629 44.9157C30.5498 44.4904 30.2828 43.9444 30.2009 43.3571C30.119 42.7698 30.2264 42.1716 30.5074 41.6494L30.6524 41.4113L32.1328 39.2372C32.402 38.8268 32.7881 38.5066 33.2411 38.3179C33.6942 38.1292 34.1935 38.0807 34.6744 38.1787L34.9332 38.2486L37.669 39.1622C38.7586 38.334 39.6697 37.2987 40.3969 36.0434C41.0207 34.9693 41.4322 33.8823 41.6212 32.7797L41.6988 32.2258L39.4238 30.0647C39.0566 29.7069 38.7955 29.2544 38.6695 28.7575C38.5434 28.2605 38.5572 27.7383 38.7094 27.2488L38.8052 26.9796H38.8078Z" fill="#3C8363"/>
</svg>
