<svg width="25" height="25" viewBox="0 0 25 25" fill="none" xmlns="http://www.w3.org/2000/svg">
<path d="M12.4545 1C8.42536 1 5.13636 4.289 5.13636 8.31818C5.13636 10.8377 6.42227 13.0771 8.371 14.3954C4.64186 15.995 2 19.6927 2 24H4.09091C4.09091 19.3686 7.82318 15.6364 12.4545 15.6364C17.0859 15.6364 20.8182 19.3686 20.8182 24H22.9091C22.9091 19.6927 20.2672 15.9939 16.5381 14.3944C17.5329 13.7232 18.348 12.8183 18.912 11.759C19.4759 10.6997 19.7714 9.51825 19.7727 8.31818C19.7727 4.289 16.4837 1 12.4545 1ZM12.4545 3.09091C15.3536 3.09091 17.6818 5.41914 17.6818 8.31818C17.6818 11.2172 15.3536 13.5455 12.4545 13.5455C9.5555 13.5455 7.22727 11.2172 7.22727 8.31818C7.22727 5.41914 9.5555 3.09091 12.4545 3.09091Z" fill="#3C8363"/>
</svg>
