<svg width="58" height="58" viewBox="0 0 58 58" fill="none" xmlns="http://www.w3.org/2000/svg">
<g filter="url(#filter0_d)">
<rect x="4" width="50" height="50" rx="15" fill="#F0FDF6"/>
<path d="M40.9047 22.4359C40.9036 21.0597 40.5598 19.7091 39.9093 18.5246C39.2587 17.3401 38.3252 16.3652 37.2059 15.7013C38.0495 14.7536 38.5215 13.4923 38.5237 12.1795H36.1428C36.1421 12.8593 35.8911 13.5111 35.4447 13.9918C34.9983 14.4725 34.3931 14.7429 33.7618 14.7436C31.8909 14.7463 30.0955 15.5388 28.7611 16.9512C27.4268 18.3635 26.6598 20.2829 26.6249 22.2974C25.0986 20.6232 24.2418 18.3719 24.238 16.0256C24.2349 14.8918 23.8826 13.7911 23.2363 12.8961C22.59 12.001 21.6862 11.3621 20.6666 11.0795V8.33333H18.2856V11.0795C17.266 11.3621 16.3622 12.001 15.716 12.8961C15.0697 13.7911 14.7173 14.8918 14.7142 16.0256V22.4359H12.3333V23.7179C12.3333 28.4782 14.0892 33.0436 17.2148 36.4096C20.3404 39.7756 24.5796 41.6667 28.9999 41.6667C33.4202 41.6667 37.6594 39.7756 40.785 36.4096C43.9106 33.0436 45.6666 28.4782 45.6666 23.7179V22.4359H40.9047ZM33.7618 17.3077C35.0243 17.3094 36.2346 17.8502 37.1273 18.8116C38.0199 19.7729 38.5222 21.0763 38.5237 22.4359H28.9999C29.0015 21.0763 29.5037 19.7729 30.3964 18.8116C31.2891 17.8502 32.4994 17.3094 33.7618 17.3077ZM17.0952 16.0256C17.0952 15.3456 17.346 14.6934 17.7925 14.2125C18.239 13.7317 18.8446 13.4615 19.4761 13.4615C20.1076 13.4615 20.7132 13.7317 21.1597 14.2125C21.6062 14.6934 21.8571 15.3456 21.8571 16.0256C21.8618 18.3098 22.4966 20.5409 23.6809 22.4359H17.0952V16.0256ZM28.9999 39.1026C25.4184 39.0978 21.9688 37.6464 19.3328 35.0353C16.6968 32.4242 15.0661 28.8432 14.763 25H43.238C42.9349 28.8434 41.3041 32.4246 38.6678 35.0357C36.0315 37.6469 32.5817 39.0981 28.9999 39.1026Z" fill="#3C8363"/>
</g>
<defs>
<filter id="filter0_d" x="0" y="0" width="58" height="58" filterUnits="userSpaceOnUse" color-interpolation-filters="sRGB">
<feFlood flood-opacity="0" result="BackgroundImageFix"/>
<feColorMatrix in="SourceAlpha" type="matrix" values="0 0 0 0 0 0 0 0 0 0 0 0 0 0 0 0 0 0 127 0"/>
<feOffset dy="4"/>
<feGaussianBlur stdDeviation="2"/>
<feColorMatrix type="matrix" values="0 0 0 0 0 0 0 0 0 0 0 0 0 0 0 0 0 0 0.1 0"/>
<feBlend mode="normal" in2="BackgroundImageFix" result="effect1_dropShadow"/>
<feBlend mode="normal" in="SourceGraphic" in2="effect1_dropShadow" result="shape"/>
</filter>
</defs>
</svg>
