<svg width="59" height="58" viewBox="0 0 59 58" fill="none" xmlns="http://www.w3.org/2000/svg">
<g filter="url(#filter0_d)">
<rect x="4.5" width="50" height="50" rx="15" fill="#F0FDF6"/>
<path d="M21.1651 22.9167C21.7177 22.9167 22.2476 22.6972 22.6383 22.3065C23.029 21.9158 23.2485 21.3859 23.2485 20.8333C23.2485 20.2808 23.029 19.7509 22.6383 19.3602C22.2476 18.9695 21.7177 18.75 21.1651 18.75C20.6126 18.75 20.0827 18.9695 19.692 19.3602C19.3013 19.7509 19.0818 20.2808 19.0818 20.8333C19.0818 21.3859 19.3013 21.9158 19.692 22.3065C20.0827 22.6972 20.6126 22.9167 21.1651 22.9167Z" fill="#3C8363"/>
<path d="M29.4981 27.0833C30.0507 27.0833 30.5806 26.8638 30.9713 26.4731C31.362 26.0824 31.5815 25.5525 31.5815 25C31.5815 24.4475 31.362 23.9176 30.9713 23.5269C30.5806 23.1362 30.0507 22.9167 29.4981 22.9167C28.9456 22.9167 28.4157 23.1362 28.025 23.5269C27.6343 23.9176 27.4148 24.4475 27.4148 25C27.4148 25.5525 27.6343 26.0824 28.025 26.4731C28.4157 26.8638 28.9456 27.0833 29.4981 27.0833Z" fill="#3C8363"/>
<path d="M35.7485 33.3333C35.7485 33.8859 35.529 34.4158 35.1383 34.8065C34.7476 35.1972 34.2177 35.4167 33.6651 35.4167C33.1126 35.4167 32.5827 35.1972 32.192 34.8065C31.8013 34.4158 31.5818 33.8859 31.5818 33.3333C31.5818 32.7808 31.8013 32.2509 32.192 31.8602C32.5827 31.4695 33.1126 31.25 33.6651 31.25C34.2177 31.25 34.7476 31.4695 35.1383 31.8602C35.529 32.2509 35.7485 32.7808 35.7485 33.3333Z" fill="#3C8363"/>
<path d="M23.2481 33.3333C23.8007 33.3333 24.3306 33.1138 24.7213 32.7231C25.112 32.3324 25.3315 31.8025 25.3315 31.25C25.3315 30.6975 25.112 30.1676 24.7213 29.7769C24.3306 29.3862 23.8007 29.1667 23.2481 29.1667C22.6956 29.1667 22.1657 29.3862 21.775 29.7769C21.3843 30.1676 21.1648 30.6975 21.1648 31.25C21.1648 31.8025 21.3843 32.3324 21.775 32.7231C22.1657 33.1138 22.6956 33.3333 23.2481 33.3333Z" fill="#3C8363"/>
<path d="M29.4988 8.33334C26.0739 8.33362 22.7323 9.389 19.9285 11.3559C17.1248 13.3228 14.9951 16.1056 13.8291 19.3259C12.6631 22.5462 12.5175 26.0475 13.4121 29.3534C14.3067 32.6594 16.198 35.6095 18.8288 37.8023C21.4596 39.9952 24.7021 41.3244 28.1151 41.609C31.5281 41.8936 34.9459 41.1199 37.9035 39.3931C40.8612 37.6662 43.2151 35.0702 44.6449 31.9581C46.0747 28.846 46.5111 25.3689 45.8946 22C45.8592 21.8077 45.7705 21.6292 45.6384 21.485C45.5064 21.3408 45.3364 21.2367 45.148 21.1845C44.9596 21.1323 44.7603 21.1343 44.5729 21.1901C44.3855 21.2458 44.2176 21.3533 44.0883 21.5C43.5294 22.1367 42.7896 22.5879 41.9677 22.7934C41.1457 22.9989 40.2807 22.9489 39.4879 22.6501C38.695 22.3514 38.0121 21.818 37.5302 21.1212C37.0483 20.4244 36.7902 19.5972 36.7904 18.75C36.7901 18.4838 36.6992 18.2257 36.5326 18.0182C36.3659 17.8107 36.1336 17.6661 35.8738 17.6083C35.1412 17.4434 34.4669 17.0836 33.922 16.567C33.3772 16.0504 32.982 15.3961 32.7784 14.6734C32.5748 13.9507 32.5702 13.1863 32.7653 12.4613C32.9603 11.7362 33.3476 11.0772 33.8863 10.5542C34.0201 10.4242 34.1166 10.2607 34.1656 10.0807C34.2147 9.90078 34.2145 9.71093 34.1651 9.53105C34.1157 9.35117 34.0189 9.18785 33.8849 9.05816C33.7508 8.92846 33.5844 8.83715 33.4029 8.79375C32.1242 8.48718 30.8137 8.33264 29.4988 8.33334ZM14.9154 25C14.9153 22.9316 15.3552 20.8869 16.2059 19.0015C17.0565 17.1162 18.2985 15.4333 19.8493 14.0647C21.4002 12.6961 23.2244 11.6731 25.201 11.0635C27.1775 10.454 29.261 10.2718 31.3133 10.5292C30.8743 11.3266 30.6147 12.2104 30.5528 13.1186C30.4909 14.0269 30.6282 14.9376 30.955 15.7873C31.2818 16.637 31.7903 17.405 32.4448 18.0376C33.0994 18.6703 33.8843 19.1523 34.7446 19.45C34.8602 20.4793 35.2299 21.4637 35.8203 22.3148C36.4107 23.1658 37.2034 23.8568 38.1271 24.3255C39.0507 24.7943 40.0764 25.0261 41.1119 25.0002C42.1473 24.9743 43.1601 24.6914 44.0592 24.1771C44.1684 26.1233 43.8864 28.0717 43.2297 29.907C42.5731 31.7423 41.5551 33.4274 40.2361 34.8626C38.917 36.2978 37.3236 37.454 35.5501 38.2629C33.7766 39.0717 31.8589 39.5168 29.9104 39.5718C27.9619 39.6268 26.0221 39.2907 24.2058 38.5832C22.3894 37.8757 20.7333 36.8112 19.3354 35.4528C17.9375 34.0943 16.8261 32.4693 16.0669 30.674C15.3077 28.8786 14.9162 26.9493 14.9154 25Z" fill="#3C8363"/>
</g>
<defs>
<filter id="filter0_d" x="0.5" y="0" width="58" height="58" filterUnits="userSpaceOnUse" color-interpolation-filters="sRGB">
<feFlood flood-opacity="0" result="BackgroundImageFix"/>
<feColorMatrix in="SourceAlpha" type="matrix" values="0 0 0 0 0 0 0 0 0 0 0 0 0 0 0 0 0 0 127 0"/>
<feOffset dy="4"/>
<feGaussianBlur stdDeviation="2"/>
<feColorMatrix type="matrix" values="0 0 0 0 0 0 0 0 0 0 0 0 0 0 0 0 0 0 0.1 0"/>
<feBlend mode="normal" in2="BackgroundImageFix" result="effect1_dropShadow"/>
<feBlend mode="normal" in="SourceGraphic" in2="effect1_dropShadow" result="shape"/>
</filter>
</defs>
</svg>
