<svg width="25" height="25" viewBox="0 0 25 25" fill="none" xmlns="http://www.w3.org/2000/svg">
<path d="M8.875 1V3.65385H6V21.3462H8.875V24H10.3125V21.3462H11.75V24H13.1875V21.3462H14.2656C16.4406 21.3462 18.2188 19.1576 18.2188 16.4808C18.2186 15.604 18.0267 14.7434 17.6631 13.9894C17.2995 13.2354 16.7776 12.6158 16.1523 12.1957C16.5769 11.7365 16.9168 11.1709 17.1492 10.5368C17.3816 9.90275 17.5012 9.21485 17.5 8.51923C17.5 5.84238 15.7218 3.65385 13.5469 3.65385H13.1875V1H11.75V3.65385H10.3125V1H8.875ZM7.4375 5.42308H13.5469C14.9441 5.42308 16.0625 6.79954 16.0625 8.51923C16.0625 10.2389 14.9441 11.6154 13.5469 11.6154H7.4375V5.42308ZM7.4375 13.3846H14.2656C15.6629 13.3846 16.7812 14.7611 16.7812 16.4808C16.7812 18.2005 15.6629 19.5769 14.2656 19.5769H7.4375V13.3846Z" fill="#3C8363"/>
</svg>
