<svg width="42" height="42" viewBox="0 0 42 42" fill="none" xmlns="http://www.w3.org/2000/svg">
<g clip-path="url(#clip0)">
<path d="M10.9724 35.9713L11.651 36.3107C14.4791 38.0074 17.6463 38.7993 20.8137 38.7993C30.768 38.7993 38.9124 30.6548 38.9124 20.7005C38.9124 15.9496 36.9894 11.3118 33.596 7.91823C30.2024 4.52466 25.6776 2.60175 20.8137 2.60175C10.8594 2.60175 2.71476 10.7462 2.82795 20.8137C2.82795 24.2071 3.846 27.4876 5.54271 30.3154L5.99514 30.9942L4.18541 37.6682L10.9724 35.9713Z" fill="#00E676"/>
<path d="M35.5189 6.10832C31.6729 2.1493 26.3564 0 20.9267 0C9.38886 0 0.113189 9.3887 0.226216 20.8135C0.226216 24.4333 1.24427 27.9401 2.94113 31.1072L0 41.8534L10.9724 39.0255C14.0265 40.7223 17.4199 41.5142 20.8137 41.5142C32.2385 41.5142 41.5142 32.1253 41.5142 20.7006C41.5142 15.1578 39.3649 9.95432 35.519 6.10832H35.5189ZM20.9267 38.0076C17.8725 38.0076 14.8184 37.2159 12.2166 35.6322L11.538 35.2928L4.97724 36.9895L6.67395 30.5419L6.22151 29.8631C1.24427 21.8319 3.61978 11.1986 11.7642 6.22135C19.9086 1.24427 30.4286 3.61978 35.4058 11.7642C40.3829 19.9086 38.0074 30.4286 29.8631 35.4058C27.2612 37.1025 24.0941 38.0074 20.9267 38.0074V38.0076ZM30.881 25.4517L29.6368 24.8861C29.6368 24.8861 27.827 24.0942 26.6958 23.5286C26.5826 23.5286 26.4696 23.4154 26.3564 23.4154C26.017 23.4154 25.7908 23.5286 25.5645 23.6418C25.5645 23.6418 25.4515 23.7548 23.8678 25.5647C23.7546 25.7909 23.5284 25.9041 23.3022 25.9041H23.189C23.076 25.9041 22.8498 25.7909 22.7366 25.6779L22.171 25.4517C20.9267 24.8861 19.7956 24.2072 18.8906 23.3024C18.6644 23.0762 18.325 22.8499 18.0988 22.6237C17.3069 21.8319 16.5151 20.9269 15.9496 19.9088L15.8364 19.6826C15.7234 19.5694 15.7234 19.4564 15.6102 19.2302C15.6102 19.0039 15.6102 18.7777 15.7234 18.6645C15.7234 18.6645 16.1758 18.0989 16.5151 17.7597C16.7415 17.5333 16.8545 17.1941 17.0807 16.9678C17.3069 16.6284 17.4201 16.176 17.3069 15.8366C17.1939 15.271 15.8364 12.2168 15.4972 11.5382C15.2708 11.1988 15.0448 11.0857 14.7054 10.9725H13.4611C13.2347 10.9725 13.0086 11.0857 12.7823 11.0857L12.6691 11.1988C12.4429 11.3119 12.2166 11.5382 11.9904 11.6512C11.7642 11.8776 11.651 12.1036 11.4248 12.33C10.633 13.3481 10.1805 14.5923 10.1805 15.8366C10.1805 16.7415 10.4068 17.6465 10.7462 18.4383L10.8594 18.7777C11.8774 20.9269 13.2347 22.8499 15.0448 24.5466L15.4972 24.9991C15.8364 25.3385 16.1758 25.5647 16.4021 25.9039C18.7776 27.9402 21.4923 29.4107 24.5465 30.2025C24.8859 30.3156 25.3383 30.3156 25.6777 30.4288H26.8088C27.3744 30.4288 28.0531 30.2025 28.5057 29.9763C28.8449 29.7501 29.0711 29.7501 29.2974 29.5239L29.5237 29.2975C29.7499 29.0713 29.9762 28.9583 30.2024 28.7321C30.4286 28.5058 30.6548 28.2796 30.768 28.0532C30.9942 27.6008 31.1072 27.0352 31.2204 26.4697V25.6779C31.2204 25.6779 31.1072 25.5647 30.881 25.4517Z" fill="white"/>
</g>
<defs>
<clipPath id="clip0">
<rect width="41.5135" height="42" fill="white"/>
</clipPath>
</defs>
</svg>
