<svg width="40" height="33" viewBox="0 0 40 33" fill="none" xmlns="http://www.w3.org/2000/svg">
<g clip-path="url(#clip0)">
<path d="M40 3.97654C38.5281 4.6292 36.9466 5.07029 35.2866 5.26873C36.9811 4.25311 38.2822 2.64482 38.8948 0.728574C37.284 1.68449 35.5216 2.35799 33.6838 2.71998C32.1867 1.12514 30.0541 0.128418 27.6936 0.128418C23.1614 0.128418 19.4869 3.80279 19.4869 8.33467C19.4869 8.97795 19.5595 9.6042 19.6994 10.205C12.8791 9.86264 6.83219 6.59561 2.78453 1.63061C2.07828 2.84264 1.67359 4.25248 1.67359 5.75623C1.67359 8.60342 3.1225 11.1151 5.32438 12.5869C4.02117 12.546 2.74664 12.1941 1.60719 11.5603C1.60672 11.5947 1.60672 11.629 1.60672 11.6636C1.60672 15.6397 4.43547 18.9565 8.18953 19.7104C6.98107 20.0391 5.71348 20.0872 4.48359 19.8511C5.52781 23.1114 8.55859 25.4839 12.1495 25.5503C9.34094 27.7512 5.80234 29.0633 1.95766 29.0633C1.29516 29.0633 0.642031 29.0244 0 28.9486C3.63172 31.277 7.94531 32.6356 12.5797 32.6356C27.6745 32.6356 35.9287 20.1308 35.9287 9.28639C35.9287 8.93045 35.9209 8.57654 35.905 8.22467C37.5116 7.06324 38.8983 5.62469 40 3.97654Z" fill="#55ACEE"/>
</g>
<defs>
<clipPath id="clip0">
<rect width="40" height="32.6562" fill="white"/>
</clipPath>
</defs>
</svg>
