<svg width="38" height="38" viewBox="0 0 38 38" fill="none" xmlns="http://www.w3.org/2000/svg">
<g clip-path="url(#clip0)">
<path d="M35.9027 38.0001C37.0608 38.0001 38 37.0611 38 35.9029V2.09727C38 0.938867 37.0608 0 35.9027 0H2.09727C0.938719 0 0 0.938867 0 2.09727V35.9029C0 37.0611 0.938719 38.0001 2.09727 38.0001H35.9027Z" fill="#395185"/>
<path d="M26.2192 38.0001V23.2845H31.1588L31.8983 17.5496H26.2192V13.8879C26.2192 12.2275 26.6804 11.096 29.0615 11.096L32.0984 11.0946V5.96539C31.5729 5.89547 29.7703 5.73932 27.6732 5.73932C23.2946 5.73932 20.297 8.41194 20.297 13.3202V17.5496H15.3448V23.2845H20.297V38.0001H26.2192Z" fill="white"/>
</g>
<defs>
<clipPath id="clip0">
<rect width="38" height="38" fill="white"/>
</clipPath>
</defs>
</svg>
