<svg width="25" height="25" viewBox="0 0 25 25" fill="none" xmlns="http://www.w3.org/2000/svg">
<path d="M23.49 6.37626C23.2889 6.15486 23.0446 6.01248 22.7851 5.96537C22.5256 5.91826 22.2613 5.96832 22.0223 6.10984L16.9432 9.08666C16.8974 9.11391 16.8455 9.1174 16.7978 9.09641C16.7501 9.07543 16.7102 9.03152 16.686 8.97344L13.7287 1.95347C13.6069 1.66449 13.4288 1.4237 13.2127 1.25605C12.9966 1.0884 12.7505 1 12.4998 1C12.2491 1 12.003 1.0884 11.787 1.25605C11.5709 1.4237 11.3928 1.66449 11.271 1.95347L8.31371 8.97331C8.28951 9.03145 8.24957 9.07542 8.20187 9.09645C8.15418 9.11748 8.10222 9.11403 8.05636 9.08679L2.97649 6.10931C2.73733 5.96919 2.47326 5.9199 2.214 5.96697C1.95475 6.01404 1.71061 6.15562 1.50906 6.37576C1.30752 6.59589 1.15657 6.88585 1.07321 7.21299C0.989859 7.54013 0.977406 7.89145 1.03726 8.22742L3.59221 22.5723C3.63471 22.8152 3.71433 23.0442 3.8262 23.2451C3.93808 23.4461 4.07985 23.6149 4.24287 23.7411C4.40689 23.8685 4.58864 23.951 4.77733 23.9839C4.96602 24.0167 5.15779 23.9993 5.34126 23.9325C10.0244 22.2275 14.9702 22.2269 19.6536 23.9308C19.837 23.9974 20.0287 24.0148 20.2173 23.9819C20.4059 23.949 20.5876 23.8665 20.7516 23.7393C20.9145 23.6131 21.0562 23.4444 21.1681 23.2436C21.28 23.0428 21.3596 22.814 21.4022 22.5713L23.9617 8.22848C24.0226 7.89247 24.0107 7.54065 23.9273 7.21316C23.8439 6.88566 23.6923 6.59567 23.49 6.37626ZM22.7887 7.8646L20.2292 22.2074C20.2234 22.2417 20.2123 22.274 20.1965 22.3024C20.1807 22.3307 20.1606 22.3545 20.1376 22.3721C20.1134 22.3909 20.0865 22.4031 20.0587 22.4078C20.0308 22.4125 20.0025 22.4097 19.9755 22.3995C15.0814 20.6187 9.91288 20.6194 5.01904 22.4015C4.99203 22.4117 4.96373 22.4145 4.93587 22.4098C4.90801 22.4051 4.88116 22.3929 4.85698 22.3741C4.83391 22.3564 4.81385 22.3326 4.79806 22.3043C4.78227 22.2759 4.77109 22.2436 4.7652 22.2092V22.2091L2.21015 7.86394C2.20065 7.81594 2.20197 7.76534 2.21396 7.71832C2.22594 7.6713 2.24807 7.62992 2.27763 7.59924C2.31279 7.55964 2.35731 7.53744 2.40354 7.53648C2.43246 7.53684 2.46099 7.54523 2.48729 7.56111L7.56716 10.5386C7.88788 10.7289 8.2512 10.753 8.58476 10.6059C8.91832 10.4589 9.19762 10.1515 9.36702 9.74502L12.3243 2.72505C12.3417 2.68375 12.3671 2.64933 12.398 2.62537C12.4289 2.60141 12.464 2.58877 12.4998 2.58877C12.5357 2.58877 12.5708 2.60141 12.6017 2.62537C12.6325 2.64933 12.658 2.68375 12.6754 2.72505L15.6327 9.74516C15.8021 10.1516 16.0814 10.459 16.415 10.606C16.7485 10.7531 17.1118 10.729 17.4325 10.5386L22.5117 7.56164C22.5459 7.54161 22.5836 7.53456 22.6206 7.54129C22.6577 7.54802 22.6926 7.56825 22.7214 7.59972C22.7502 7.63118 22.7717 7.67262 22.7836 7.71938C22.7955 7.76613 22.7973 7.81633 22.7887 7.86434V7.8646Z" fill="#3C8363"/>
</svg>
