<svg width="35" height="34" viewBox="0 0 35 34" fill="none" xmlns="http://www.w3.org/2000/svg">
<path d="M9.16512 14.9167C9.71765 14.9167 10.2476 14.6972 10.6383 14.3065C11.029 13.9158 11.2485 13.3859 11.2485 12.8333C11.2485 12.2808 11.029 11.7509 10.6383 11.3602C10.2476 10.9695 9.71765 10.75 9.16512 10.75C8.61259 10.75 8.08268 10.9695 7.69198 11.3602C7.30128 11.7509 7.08179 12.2808 7.08179 12.8333C7.08179 13.3859 7.30128 13.9158 7.69198 14.3065C8.08268 14.6972 8.61259 14.9167 9.16512 14.9167Z" fill="#3C8363"/>
<path d="M17.4981 19.0833C18.0507 19.0833 18.5806 18.8638 18.9713 18.4731C19.362 18.0824 19.5815 17.5525 19.5815 17C19.5815 16.4475 19.362 15.9176 18.9713 15.5269C18.5806 15.1362 18.0507 14.9167 17.4981 14.9167C16.9456 14.9167 16.4157 15.1362 16.025 15.5269C15.6343 15.9176 15.4148 16.4475 15.4148 17C15.4148 17.5525 15.6343 18.0824 16.025 18.4731C16.4157 18.8638 16.9456 19.0833 17.4981 19.0833Z" fill="#3C8363"/>
<path d="M23.7485 25.3333C23.7485 25.8859 23.529 26.4158 23.1383 26.8065C22.7476 27.1972 22.2177 27.4167 21.6651 27.4167C21.1126 27.4167 20.5827 27.1972 20.192 26.8065C19.8013 26.4158 19.5818 25.8859 19.5818 25.3333C19.5818 24.7808 19.8013 24.2509 20.192 23.8602C20.5827 23.4695 21.1126 23.25 21.6651 23.25C22.2177 23.25 22.7476 23.4695 23.1383 23.8602C23.529 24.2509 23.7485 24.7808 23.7485 25.3333Z" fill="#3C8363"/>
<path d="M11.2481 25.3333C11.8007 25.3333 12.3306 25.1138 12.7213 24.7231C13.112 24.3324 13.3315 23.8025 13.3315 23.25C13.3315 22.6975 13.112 22.1676 12.7213 21.7769C12.3306 21.3862 11.8007 21.1667 11.2481 21.1667C10.6956 21.1667 10.1657 21.3862 9.77499 21.7769C9.38429 22.1676 9.16479 22.6975 9.16479 23.25C9.16479 23.8025 9.38429 24.3324 9.77499 24.7231C10.1657 25.1138 10.6956 25.3333 11.2481 25.3333Z" fill="#3C8363"/>
<path d="M17.4988 0.333336C14.0739 0.333622 10.7323 1.389 7.92855 3.35588C5.1248 5.32276 2.99506 8.10565 1.82909 11.3259C0.663116 14.5462 0.517521 18.0475 1.41211 21.3534C2.30671 24.6594 4.19805 27.6095 6.82882 29.8023C9.45959 31.9952 12.7021 33.3244 16.1151 33.609C19.5281 33.8936 22.9459 33.1199 25.9035 31.3931C28.8612 29.6662 31.2151 27.0702 32.6449 23.9581C34.0747 20.846 34.5111 17.3689 33.8946 14C33.8592 13.8077 33.7705 13.6292 33.6384 13.485C33.5064 13.3408 33.3364 13.2367 33.148 13.1845C32.9596 13.1323 32.7603 13.1343 32.5729 13.1901C32.3855 13.2458 32.2176 13.3533 32.0883 13.5C31.5294 14.1367 30.7896 14.5879 29.9677 14.7934C29.1457 14.9989 28.2807 14.9489 27.4879 14.6501C26.695 14.3514 26.0121 13.818 25.5302 13.1212C25.0483 12.4244 24.7902 11.5972 24.7904 10.75C24.7901 10.4838 24.6992 10.2257 24.5326 10.0182C24.3659 9.81067 24.1336 9.66611 23.8738 9.60833C23.1412 9.44341 22.4669 9.08362 21.922 8.56699C21.3772 8.05035 20.982 7.39609 20.7784 6.67337C20.5748 5.95066 20.5702 5.18634 20.7653 4.46125C20.9603 3.73616 21.3476 3.07725 21.8863 2.55417C22.0201 2.42422 22.1166 2.26072 22.1656 2.08075C22.2147 1.90078 22.2145 1.71093 22.1651 1.53105C22.1157 1.35117 22.0189 1.18785 21.8849 1.05816C21.7508 0.92846 21.5844 0.837146 21.4029 0.793753C20.1242 0.487183 18.8137 0.332642 17.4988 0.333336ZM2.91544 17C2.91532 14.9316 3.35519 12.8869 4.20585 11.0015C5.05651 9.11615 6.29849 7.43332 7.84934 6.06472C9.40019 4.69613 11.2244 3.67308 13.201 3.06352C15.1775 2.45395 17.261 2.2718 19.3133 2.52917C18.8743 3.32663 18.6147 4.21038 18.5528 5.11862C18.4909 6.02685 18.6282 6.93765 18.955 7.78731C19.2818 8.63697 19.7903 9.40498 20.4448 10.0376C21.0994 10.6703 21.8843 11.1523 22.7446 11.45C22.8602 12.4793 23.2299 13.4637 23.8203 14.3148C24.4107 15.1658 25.2034 15.8568 26.1271 16.3255C27.0507 16.7943 28.0764 17.0261 29.1119 17.0002C30.1473 16.9743 31.1601 16.6914 32.0592 16.1771C32.1684 18.1233 31.8864 20.0717 31.2297 21.907C30.5731 23.7423 29.5551 25.4274 28.2361 26.8626C26.917 28.2978 25.3236 29.454 23.5501 30.2629C21.7766 31.0717 19.8589 31.5168 17.9104 31.5718C15.9619 31.6268 14.0221 31.2907 12.2058 30.5832C10.3894 29.8757 8.73334 28.8112 7.33541 27.4528C5.93748 26.0943 4.82609 24.4693 4.06691 22.674C3.30774 20.8786 2.9162 18.9493 2.91544 17Z" fill="#3C8363"/>
</svg>
