<svg width="40" height="40" viewBox="0 0 40 40" fill="none" xmlns="http://www.w3.org/2000/svg">
<path d="M31.9047 17.4359C31.9036 16.0597 31.5598 14.7091 30.9093 13.5246C30.2587 12.3401 29.3252 11.3652 28.2059 10.7013C29.0495 9.75363 29.5215 8.49228 29.5237 7.17949H27.1428C27.1421 7.85932 26.8911 8.51112 26.4447 8.99183C25.9983 9.47255 25.3931 9.74291 24.7618 9.74359C22.8909 9.74626 21.0955 10.5388 19.7611 11.9512C18.4268 13.3635 17.6598 15.2829 17.6249 17.2974C16.0986 15.6232 15.2418 13.3719 15.238 11.0256C15.2349 9.89181 14.8826 8.79113 14.2363 7.89605C13.59 7.00098 12.6862 6.36209 11.6666 6.07949V3.33333H9.28563V6.07949C8.26601 6.36209 7.36225 7.00098 6.71595 7.89605C6.06965 8.79113 5.71734 9.89181 5.7142 11.0256V17.4359H3.33325V18.7179C3.33325 23.4782 5.0892 28.0436 8.21481 31.4096C11.3404 34.7756 15.5796 36.6667 19.9999 36.6667C24.4202 36.6667 28.6594 34.7756 31.785 31.4096C34.9106 28.0436 36.6666 23.4782 36.6666 18.7179V17.4359H31.9047ZM24.7618 12.3077C26.0243 12.3094 27.2346 12.8502 28.1273 13.8116C29.0199 14.7729 29.5222 16.0763 29.5237 17.4359H19.9999C20.0015 16.0763 20.5037 14.7729 21.3964 13.8116C22.2891 12.8502 23.4994 12.3094 24.7618 12.3077ZM8.09516 11.0256C8.09516 10.3456 8.34601 9.69341 8.79252 9.21255C9.23904 8.73168 9.84464 8.46154 10.4761 8.46154C11.1076 8.46154 11.7132 8.73168 12.1597 9.21255C12.6062 9.69341 12.8571 10.3456 12.8571 11.0256C12.8618 13.3098 13.4966 15.5409 14.6809 17.4359H8.09516V11.0256ZM19.9999 34.1026C16.4184 34.0978 12.9688 32.6464 10.3328 30.0353C7.69678 27.4242 6.06612 23.8432 5.76301 20H34.238C33.9349 23.8434 32.3041 27.4246 29.6678 30.0357C27.0315 32.6469 23.5817 34.0981 19.9999 34.1026Z" fill="#3C8363"/>
</svg>
