<svg width="50" height="50" viewBox="0 0 50 50" fill="none" xmlns="http://www.w3.org/2000/svg">
<path fill-rule="evenodd" clip-rule="evenodd" d="M40.2744 29.9478C39.8076 29.9496 39.3811 30.2321 39.1946 30.6672C39.1923 30.6727 39.19 30.6781 39.1875 30.6835C38.9915 31.128 39.0828 31.639 39.4199 31.9878L39.5163 32.0841C41.5265 34.0922 41.5283 37.3626 39.5196 39.3736C38.5438 40.3505 37.2495 40.8874 35.8726 40.8882H35.8696C34.4937 40.8883 33.2001 40.3529 32.2266 39.3804L32.127 39.2808C31.7781 38.9435 31.267 38.8523 30.8226 39.0484L30.8061 39.0556C30.371 39.2421 30.0887 39.6685 30.0867 40.142V40.4306C30.0867 43.2729 27.7742 45.5854 24.9317 45.5854C22.0893 45.5854 19.7768 43.2729 19.7768 40.4304V40.2979C19.7593 39.8139 19.4559 39.3946 19.0002 39.227C18.9669 39.2147 18.9341 39.2015 18.9018 39.1872C18.4575 38.991 17.9464 39.0825 17.5976 39.4196L17.5013 39.5159C15.4946 41.525 12.2277 41.5283 10.2164 39.5238L10.2091 39.5166C9.23497 38.5436 8.69802 37.2493 8.69729 35.8723C8.69656 34.497 9.23083 33.2035 10.2018 32.2298L10.2085 32.223L10.3047 32.1268C10.6421 31.7779 10.7334 31.2668 10.5372 30.8225L10.5301 30.8059C10.3436 30.3708 9.91724 30.0885 9.44371 30.0865H9.15505C6.31254 30.0867 4 27.7742 4 24.9317C4 22.0894 6.31254 19.7768 9.15481 19.7768H9.28744C9.77144 19.7594 10.1906 19.4559 10.3583 19.0003C10.3705 18.9671 10.3837 18.9342 10.3981 18.9018C10.5941 18.4575 10.5028 17.9464 10.1656 17.5976L10.0694 17.5013C9.09584 16.5289 8.55889 15.2348 8.55815 13.8578C8.55734 12.4809 9.09284 11.186 10.066 10.2119C11.0417 9.235 12.336 8.69805 13.713 8.69732H13.716C15.0919 8.69732 16.3853 9.23265 17.3589 10.2051L17.4585 10.3048C17.8073 10.642 18.3186 10.7333 18.7628 10.5371C18.8739 10.4882 18.9896 10.4515 19.1079 10.4275C19.4338 10.2111 19.6362 9.84425 19.6378 9.44366V9.15492C19.6378 6.31257 21.9503 4.00003 24.7927 4.00003C27.6352 4.00003 29.9477 6.31257 29.9477 9.15492V9.31135C29.9495 9.77805 30.232 10.2045 30.6671 10.391L30.6836 10.3982C31.128 10.5942 31.6391 10.503 31.9879 10.1658L32.0841 10.0695C33.0565 9.09595 34.3508 8.559 35.7277 8.55827H35.7307C37.1066 8.55827 38.4002 9.0936 39.3737 10.0661L39.3813 10.0738C40.3523 11.0463 40.8876 12.3385 40.8883 13.7131C40.8892 15.09 40.3536 16.3849 39.3806 17.359L39.3731 17.3665L39.2809 17.4586C38.9436 17.8075 38.8524 18.3186 39.0486 18.7629C39.0976 18.874 39.1342 18.9897 39.1581 19.1081C39.3746 19.4339 39.7415 19.6363 40.1421 19.6379H40.4307C43.2732 19.6379 45.5857 21.9505 45.5857 24.7928C45.5857 27.6353 43.2732 29.9478 40.4307 29.9478H40.2744ZM37.0361 34.3557L37.0231 34.3425C35.7179 33.0082 35.3601 31.0435 36.1103 29.3355C36.8267 27.6737 38.4574 26.5957 40.2676 26.5885H40.4306C41.4205 26.5885 42.2259 25.7831 42.2259 24.7933C42.2259 23.8034 41.4206 22.9981 40.4306 22.9981H40.1353C38.3153 22.9909 36.682 21.9092 35.9677 20.2425C35.9062 20.099 35.8652 19.948 35.8454 19.7939C35.2688 18.1642 35.6593 16.3569 36.8841 15.1047L36.8972 15.0915L37.0014 14.9873L37.0064 14.9823C37.3434 14.6434 37.5289 14.1937 37.5286 13.7155C37.5283 13.236 37.3414 12.7853 37.002 12.4463L36.9963 12.4406C36.6577 12.1038 36.2083 11.9185 35.7307 11.9185H35.7296C35.2502 11.9187 34.7994 12.1057 34.4605 12.4449L34.3556 12.5498L34.3423 12.5629C33.008 13.868 31.0436 14.226 29.335 13.4757C27.6732 12.7594 26.5952 11.1286 26.588 9.31839V9.1553C26.588 8.16545 25.7826 7.36006 24.7928 7.36006C23.803 7.36006 22.9976 8.16537 22.9976 9.15522V9.45062C22.9904 11.2706 21.9087 12.9039 20.242 13.6183C20.0985 13.6797 19.9475 13.7208 19.7935 13.7405C18.1637 14.3171 16.3565 13.9266 15.1043 12.7018L15.0911 12.6887L14.9868 12.5845C14.6458 12.2438 14.1953 12.0573 13.716 12.0573H13.715C13.2355 12.0575 12.7848 12.2445 12.4458 12.5837C12.1042 12.9258 11.9176 13.3767 11.918 13.8562C11.9182 14.3357 12.1052 14.7864 12.4444 15.1253L12.5493 15.2303L12.5624 15.2434C13.8572 16.5672 14.2196 18.5111 13.4929 20.21C12.8319 21.946 11.2117 23.0927 9.35047 23.1362C9.33739 23.1365 9.32423 23.1367 9.31116 23.1367H9.15473C8.16496 23.1368 7.35957 23.9421 7.35957 24.9319C7.35957 25.9218 8.16488 26.7272 9.15473 26.7272H9.45013C11.2671 26.7345 12.8979 27.8124 13.6141 29.4743C14.3642 31.1827 14.0064 33.1473 12.7013 34.4815L12.6882 34.4947L12.5876 34.5954L12.5819 34.6011C12.243 34.9404 12.0564 35.3912 12.0568 35.8708C12.0571 36.3487 12.2428 36.798 12.5799 37.1365L12.586 37.1425C13.2864 37.8421 14.4254 37.8414 15.1248 37.1411L15.2298 37.0361L15.2429 37.0232C16.5667 35.7283 18.5108 35.3657 20.2096 36.0927C21.9457 36.7537 23.0923 38.3739 23.1359 40.235L23.1363 40.2558L23.1364 40.2743V40.4306C23.1364 41.4205 23.9417 42.2259 24.9315 42.2259C25.9215 42.2259 26.7268 41.4206 26.7268 40.4306V40.1353C26.7341 38.3185 27.8119 36.6878 29.4736 35.9715C31.182 35.2212 33.1466 35.579 34.4811 36.8842L34.4943 36.8973L34.5985 37.0015C34.9396 37.3422 35.3901 37.5287 35.8693 37.5287H35.8704C36.3499 37.5284 36.8007 37.3415 37.1395 37.0021C37.8419 36.2991 37.8411 35.1602 37.1409 34.4605L37.0361 34.3557ZM24.7927 17.9004C20.9923 17.9004 17.9003 20.9923 17.9003 24.7929C17.9003 28.5934 20.9922 31.6853 24.7927 31.6853C28.5932 31.6853 31.6852 28.5934 31.6852 24.7929C31.6852 20.9923 28.5932 17.9004 24.7927 17.9004ZM21.26 24.7928C21.26 26.7408 22.8448 28.3255 24.7927 28.3255C26.7407 28.3255 28.3254 26.7407 28.3254 24.7928C28.3254 22.8449 26.7407 21.2601 24.7927 21.2601C22.8448 21.2601 21.26 22.8449 21.26 24.7928Z" fill="#3C8363"/>
<mask id="mask0" mask-type="alpha" maskUnits="userSpaceOnUse" x="4" y="4" width="42" height="42">
<path fill-rule="evenodd" clip-rule="evenodd" d="M40.2744 29.9478C39.8076 29.9496 39.3811 30.2321 39.1946 30.6672C39.1923 30.6727 39.19 30.6781 39.1875 30.6835C38.9915 31.128 39.0828 31.639 39.4199 31.9878L39.5163 32.0841C41.5265 34.0922 41.5283 37.3626 39.5196 39.3736C38.5438 40.3505 37.2495 40.8874 35.8726 40.8882H35.8696C34.4937 40.8883 33.2001 40.3529 32.2266 39.3804L32.127 39.2808C31.7781 38.9435 31.267 38.8523 30.8226 39.0484L30.8061 39.0556C30.371 39.2421 30.0887 39.6685 30.0867 40.142V40.4306C30.0867 43.2729 27.7742 45.5854 24.9317 45.5854C22.0893 45.5854 19.7768 43.2729 19.7768 40.4304V40.2979C19.7593 39.8139 19.4559 39.3946 19.0002 39.227C18.9669 39.2147 18.9341 39.2015 18.9018 39.1872C18.4575 38.991 17.9464 39.0825 17.5976 39.4196L17.5013 39.5159C15.4946 41.525 12.2277 41.5283 10.2164 39.5238L10.2091 39.5166C9.23497 38.5436 8.69802 37.2493 8.69729 35.8723C8.69656 34.497 9.23083 33.2035 10.2018 32.2298L10.2085 32.223L10.3047 32.1268C10.6421 31.7779 10.7334 31.2668 10.5372 30.8225L10.5301 30.8059C10.3436 30.3708 9.91724 30.0885 9.44371 30.0865H9.15505C6.31254 30.0867 4 27.7742 4 24.9317C4 22.0894 6.31254 19.7768 9.15481 19.7768H9.28744C9.77144 19.7594 10.1906 19.4559 10.3583 19.0003C10.3705 18.9671 10.3837 18.9342 10.3981 18.9018C10.5941 18.4575 10.5028 17.9464 10.1656 17.5976L10.0694 17.5013C9.09584 16.5289 8.55889 15.2348 8.55815 13.8578C8.55734 12.4809 9.09284 11.186 10.066 10.2119C11.0417 9.235 12.336 8.69805 13.713 8.69732H13.716C15.0919 8.69732 16.3853 9.23265 17.3589 10.2051L17.4585 10.3048C17.8073 10.642 18.3186 10.7333 18.7628 10.5371C18.8739 10.4882 18.9896 10.4515 19.1079 10.4275C19.4338 10.2111 19.6362 9.84425 19.6378 9.44366V9.15492C19.6378 6.31257 21.9503 4.00003 24.7927 4.00003C27.6352 4.00003 29.9477 6.31257 29.9477 9.15492V9.31135C29.9495 9.77805 30.232 10.2045 30.6671 10.391L30.6836 10.3982C31.128 10.5942 31.6391 10.503 31.9879 10.1658L32.0841 10.0695C33.0565 9.09595 34.3508 8.559 35.7277 8.55827H35.7307C37.1066 8.55827 38.4002 9.0936 39.3737 10.0661L39.3813 10.0738C40.3523 11.0463 40.8876 12.3385 40.8883 13.7131C40.8892 15.09 40.3536 16.3849 39.3806 17.359L39.3731 17.3665L39.2809 17.4586C38.9436 17.8075 38.8524 18.3186 39.0486 18.7629C39.0976 18.874 39.1342 18.9897 39.1581 19.1081C39.3746 19.4339 39.7415 19.6363 40.1421 19.6379H40.4307C43.2732 19.6379 45.5857 21.9505 45.5857 24.7928C45.5857 27.6353 43.2732 29.9478 40.4307 29.9478H40.2744ZM37.0361 34.3557L37.0231 34.3425C35.7179 33.0082 35.3601 31.0435 36.1103 29.3355C36.8267 27.6737 38.4574 26.5957 40.2676 26.5885H40.4306C41.4205 26.5885 42.2259 25.7831 42.2259 24.7933C42.2259 23.8034 41.4206 22.9981 40.4306 22.9981H40.1353C38.3153 22.9909 36.682 21.9092 35.9677 20.2425C35.9062 20.099 35.8652 19.948 35.8454 19.7939C35.2688 18.1642 35.6593 16.3569 36.8841 15.1047L36.8972 15.0915L37.0014 14.9873L37.0064 14.9823C37.3434 14.6434 37.5289 14.1937 37.5286 13.7155C37.5283 13.236 37.3414 12.7853 37.002 12.4463L36.9963 12.4406C36.6577 12.1038 36.2083 11.9185 35.7307 11.9185H35.7296C35.2502 11.9187 34.7994 12.1057 34.4605 12.4449L34.3556 12.5498L34.3423 12.5629C33.008 13.868 31.0436 14.226 29.335 13.4757C27.6732 12.7594 26.5952 11.1286 26.588 9.31839V9.1553C26.588 8.16545 25.7826 7.36006 24.7928 7.36006C23.803 7.36006 22.9976 8.16537 22.9976 9.15522V9.45062C22.9904 11.2706 21.9087 12.9039 20.242 13.6183C20.0985 13.6797 19.9475 13.7208 19.7935 13.7405C18.1637 14.3171 16.3565 13.9266 15.1043 12.7018L15.0911 12.6887L14.9868 12.5845C14.6458 12.2438 14.1953 12.0573 13.716 12.0573H13.715C13.2355 12.0575 12.7848 12.2445 12.4458 12.5837C12.1042 12.9258 11.9176 13.3767 11.918 13.8562C11.9182 14.3357 12.1052 14.7864 12.4444 15.1253L12.5493 15.2303L12.5624 15.2434C13.8572 16.5672 14.2196 18.5111 13.4929 20.21C12.8319 21.946 11.2117 23.0927 9.35047 23.1362C9.33739 23.1365 9.32423 23.1367 9.31116 23.1367H9.15473C8.16496 23.1368 7.35957 23.9421 7.35957 24.9319C7.35957 25.9218 8.16488 26.7272 9.15473 26.7272H9.45013C11.2671 26.7345 12.8979 27.8124 13.6141 29.4743C14.3642 31.1827 14.0064 33.1473 12.7013 34.4815L12.6882 34.4947L12.5876 34.5954L12.5819 34.6011C12.243 34.9404 12.0564 35.3912 12.0568 35.8708C12.0571 36.3487 12.2428 36.798 12.5799 37.1365L12.586 37.1425C13.2864 37.8421 14.4254 37.8414 15.1248 37.1411L15.2298 37.0361L15.2429 37.0232C16.5667 35.7283 18.5108 35.3657 20.2096 36.0927C21.9457 36.7537 23.0923 38.3739 23.1359 40.235L23.1363 40.2558L23.1364 40.2743V40.4306C23.1364 41.4205 23.9417 42.2259 24.9315 42.2259C25.9215 42.2259 26.7268 41.4206 26.7268 40.4306V40.1353C26.7341 38.3185 27.8119 36.6878 29.4736 35.9715C31.182 35.2212 33.1466 35.579 34.4811 36.8842L34.4943 36.8973L34.5985 37.0015C34.9396 37.3422 35.3901 37.5287 35.8693 37.5287H35.8704C36.3499 37.5284 36.8007 37.3415 37.1395 37.0021C37.8419 36.2991 37.8411 35.1602 37.1409 34.4605L37.0361 34.3557ZM24.7927 17.9004C20.9923 17.9004 17.9003 20.9923 17.9003 24.7929C17.9003 28.5934 20.9922 31.6853 24.7927 31.6853C28.5932 31.6853 31.6852 28.5934 31.6852 24.7929C31.6852 20.9923 28.5932 17.9004 24.7927 17.9004ZM21.26 24.7928C21.26 26.7408 22.8448 28.3255 24.7927 28.3255C26.7407 28.3255 28.3254 26.7407 28.3254 24.7928C28.3254 22.8449 26.7407 21.2601 24.7927 21.2601C22.8448 21.2601 21.26 22.8449 21.26 24.7928Z" fill="white"/>
</mask>
<g mask="url(#mask0)">
</g>
</svg>
