<svg width="35" height="35" viewBox="0 0 35 35" fill="none" xmlns="http://www.w3.org/2000/svg">
<path d="M17.5 4.77274C19.1877 4.77274 20.8063 5.44319 21.9997 6.6366C23.1932 7.83001 23.8636 9.44863 23.8636 11.1364C23.8636 12.8241 23.1932 14.4427 21.9997 15.6361C20.8063 16.8296 19.1877 17.5 17.5 17.5C15.8122 17.5 14.1936 16.8296 13.0002 15.6361C11.8068 14.4427 11.1363 12.8241 11.1363 11.1364C11.1363 9.44863 11.8068 7.83001 13.0002 6.6366C14.1936 5.44319 15.8122 4.77274 17.5 4.77274ZM17.5 20.6818C24.5318 20.6818 30.2273 23.5296 30.2273 27.0455V30.2273H4.77271V27.0455C4.77271 23.5296 10.4682 20.6818 17.5 20.6818Z" fill="#0C4E30"/>
<path d="M17.5 4.77274C19.1877 4.77274 20.8063 5.44319 21.9997 6.6366C23.1932 7.83001 23.8636 9.44863 23.8636 11.1364C23.8636 12.8241 23.1932 14.4427 21.9997 15.6361C20.8063 16.8296 19.1877 17.5 17.5 17.5C15.8122 17.5 14.1936 16.8296 13.0002 15.6361C11.8068 14.4427 11.1363 12.8241 11.1363 11.1364C11.1363 9.44863 11.8068 7.83001 13.0002 6.6366C14.1936 5.44319 15.8122 4.77274 17.5 4.77274ZM17.5 20.6818C24.5318 20.6818 30.2273 23.5296 30.2273 27.0455V30.2273H4.77271V27.0455C4.77271 23.5296 10.4682 20.6818 17.5 20.6818Z" stroke="#0C4E30"/>
</svg>
