<svg width="35" height="35" viewBox="0 0 35 35" fill="none" xmlns="http://www.w3.org/2000/svg">
<path d="M17.5 5.77274C18.9225 5.77274 20.2868 6.33783 21.2926 7.34371L21.9825 6.65385L21.2926 7.34371C22.2985 8.34959 22.8636 9.71385 22.8636 11.1364C22.8636 12.5589 22.2985 13.9232 21.2926 14.929C20.2868 15.9349 18.9225 16.5 17.5 16.5C16.0775 16.5 14.7132 15.9349 13.7073 14.929C12.7014 13.9232 12.1363 12.5589 12.1363 11.1364C12.1363 9.71385 12.7014 8.34958 13.7073 7.34371C14.7132 6.33783 16.0775 5.77274 17.5 5.77274ZM17.5 21.6818C20.8944 21.6818 23.9167 22.3713 26.0533 23.4396C28.2495 24.5377 29.2273 25.8701 29.2273 27.0455V29.2273H5.77271V27.0455C5.77271 25.8701 6.75044 24.5377 8.94662 23.4396C11.0833 22.3713 14.1055 21.6818 17.5 21.6818Z" stroke="#0C4E30" stroke-width="2"/>
</svg>
