<svg width="62" height="62" viewBox="0 0 62 62" fill="none" xmlns="http://www.w3.org/2000/svg">
<g clip-path="url(#clip0)">
<path d="M61.9395 28.6387C61.9395 28.4772 61.9193 28.3158 61.8789 28.1543C61.8385 27.9928 61.7881 27.8314 61.7275 27.6699C61.667 27.5085 61.5964 27.3571 61.5156 27.2158C61.4349 27.0745 61.334 26.9434 61.2129 26.8223L61.1523 26.7617C61.0716 26.6406 60.9707 26.5195 60.8496 26.3984L60.4863 26.0352L50.375 15.8633V9.62695C50.375 9.10221 50.1833 8.64811 49.7998 8.26465C49.4163 7.88119 48.9622 7.68945 48.4375 7.68945H42.3223L35.2383 1.63477C34.7943 1.19076 34.2998 0.837565 33.7549 0.575195C33.21 0.312826 32.6348 0.141276 32.0293 0.0605469C31.4238 -0.0201823 30.8184 -0.0201823 30.2129 0.0605469C29.6074 0.141276 29.0322 0.312826 28.4873 0.575195C27.9424 0.837565 27.4479 1.19076 27.0039 1.63477L19.9805 7.68945H13.5625C13.0378 7.68945 12.5837 7.88119 12.2002 8.26465C11.8167 8.64811 11.625 9.10221 11.625 9.62695V15.9844L1.75586 25.8535C0.585286 26.6204 0 27.7103 0 29.123V58.125C0 59.2148 0.383464 60.1331 1.15039 60.8799C1.91732 61.6266 2.82552 62 3.875 62H58.125C58.8112 62 59.457 61.8284 60.0625 61.4854C60.668 61.1423 61.1423 60.668 61.4854 60.0625C61.8284 59.457 62 58.8112 62 58.125V28.9414L61.9395 28.6387ZM16.2871 43.957L3.875 55.4609V32.998L16.2871 43.957ZM20.041 45.7734C20.2832 45.6523 20.5052 45.4707 20.707 45.2285C20.7474 45.1882 20.7878 45.1377 20.8281 45.0771C20.8685 45.0166 20.9089 44.946 20.9492 44.8652L29.3047 37.1152C29.7487 36.752 30.2533 36.5703 30.8184 36.5703C31.3835 36.5703 31.8678 36.7318 32.2715 37.0547L55.5215 58.125H6.66016L20.041 45.7734ZM45.8945 44.1992L58.125 33.3613V55.2188L45.8945 44.1992ZM54.3711 25.248H54.3105L57.6406 28.5781L50.375 35.0566V21.252L54.3711 25.248ZM29.7285 4.35938C30.1322 3.99609 30.5964 3.81445 31.1211 3.81445C31.3633 3.81445 31.6055 3.86491 31.8477 3.96582C32.0898 4.06673 32.3118 4.19792 32.5137 4.35938L36.3887 7.68945H25.8535L29.7285 4.35938ZM46.5 11.5645V38.5078L43.0488 41.5957L34.7539 34.0879C34.5117 33.8861 34.2493 33.7044 33.9668 33.543C33.6842 33.3815 33.4017 33.2503 33.1191 33.1494C32.8366 33.0485 32.5439 32.9577 32.2412 32.877C31.9385 32.7962 31.6257 32.7458 31.3027 32.7256C30.9798 32.7054 30.667 32.7054 30.3643 32.7256C30.0615 32.7458 29.7487 32.7962 29.4258 32.877C29.1029 32.9577 28.8001 33.0586 28.5176 33.1797C28.235 33.3008 27.9424 33.4421 27.6396 33.6035C27.3369 33.765 27.0645 33.9466 26.8223 34.1484L19.1328 41.293L15.5 38.084V11.5645H46.5ZM6.29688 26.8223L11.625 21.4941V34.6328L4.54102 28.3965L6.17578 26.8223H6.29688Z" fill="#3C8363"/>
</g>
<defs>
<clipPath id="clip0">
<rect width="62" height="62" fill="white"/>
</clipPath>
</defs>
</svg>
