<svg width="25" height="25" viewBox="0 0 25 25" fill="none" xmlns="http://www.w3.org/2000/svg">
<mask id="path-1-inside-1" fill="white">
<path d="M13.2439 2.46463C12.9976 2.44644 12.7507 2.43733 12.5037 2.43732V1C12.7862 1.00014 13.0686 1.01069 13.3503 1.03162L13.2439 2.46463ZM16.1245 3.11142C15.6637 2.93363 15.1905 2.78999 14.7086 2.68166L15.0234 1.27884C15.5739 1.40245 16.1158 1.5663 16.6419 1.7704L16.1245 3.11142ZM18.0937 4.13192C17.8882 3.99487 17.6777 3.86543 17.4627 3.74384L18.1713 2.49338C18.6628 2.77184 19.1331 3.08602 19.5785 3.43338L18.6945 4.56743C18.4997 4.4154 18.2993 4.27062 18.0937 4.13336V4.13192ZM20.7299 6.70472C20.4456 6.3008 20.1318 5.9184 19.7913 5.56062L20.832 4.56887C21.22 4.9785 21.5794 5.41688 21.9057 5.87683L20.7299 6.70472ZM21.7993 8.64798C21.705 8.42011 21.6024 8.19574 21.4917 7.97532L22.7753 7.32852C23.0292 7.83314 23.2454 8.35583 23.4221 8.89233L22.0566 9.34221C21.9794 9.10773 21.8935 8.87617 21.7993 8.64798ZM22.5611 12.2513C22.5495 11.7574 22.5015 11.265 22.4174 10.7781L23.8332 10.5337C23.9295 11.0886 23.9856 11.652 24 12.2154L22.5626 12.2513H22.5611ZM22.3728 14.4619C22.4203 14.2176 22.4591 13.9747 22.4893 13.7289L23.9166 13.9057C23.8476 14.4665 23.7371 15.0214 23.586 15.5658L22.2004 15.182C22.2665 14.9449 22.324 14.7048 22.3728 14.4619ZM21.0044 17.8813C21.2689 17.4645 21.5018 17.0276 21.703 16.5762L23.0168 17.1584C22.7868 17.6758 22.5209 18.1731 22.219 18.6503L21.0044 17.8813ZM19.6188 19.6133C19.7941 19.4379 19.9623 19.2568 20.1219 19.07L21.2114 20.0086C21.0269 20.2225 20.8347 20.4296 20.635 20.6295L19.6188 19.6133Z"/>
</mask>
<path d="M13.2439 2.46463C12.9976 2.44644 12.7507 2.43733 12.5037 2.43732V1C12.7862 1.00014 13.0686 1.01069 13.3503 1.03162L13.2439 2.46463ZM16.1245 3.11142C15.6637 2.93363 15.1905 2.78999 14.7086 2.68166L15.0234 1.27884C15.5739 1.40245 16.1158 1.5663 16.6419 1.7704L16.1245 3.11142ZM18.0937 4.13192C17.8882 3.99487 17.6777 3.86543 17.4627 3.74384L18.1713 2.49338C18.6628 2.77184 19.1331 3.08602 19.5785 3.43338L18.6945 4.56743C18.4997 4.4154 18.2993 4.27062 18.0937 4.13336V4.13192ZM20.7299 6.70472C20.4456 6.3008 20.1318 5.9184 19.7913 5.56062L20.832 4.56887C21.22 4.9785 21.5794 5.41688 21.9057 5.87683L20.7299 6.70472ZM21.7993 8.64798C21.705 8.42011 21.6024 8.19574 21.4917 7.97532L22.7753 7.32852C23.0292 7.83314 23.2454 8.35583 23.4221 8.89233L22.0566 9.34221C21.9794 9.10773 21.8935 8.87617 21.7993 8.64798ZM22.5611 12.2513C22.5495 11.7574 22.5015 11.265 22.4174 10.7781L23.8332 10.5337C23.9295 11.0886 23.9856 11.652 24 12.2154L22.5626 12.2513H22.5611ZM22.3728 14.4619C22.4203 14.2176 22.4591 13.9747 22.4893 13.7289L23.9166 13.9057C23.8476 14.4665 23.7371 15.0214 23.586 15.5658L22.2004 15.182C22.2665 14.9449 22.324 14.7048 22.3728 14.4619ZM21.0044 17.8813C21.2689 17.4645 21.5018 17.0276 21.703 16.5762L23.0168 17.1584C22.7868 17.6758 22.5209 18.1731 22.219 18.6503L21.0044 17.8813ZM19.6188 19.6133C19.7941 19.4379 19.9623 19.2568 20.1219 19.07L21.2114 20.0086C21.0269 20.2225 20.8347 20.4296 20.635 20.6295L19.6188 19.6133Z" fill="#3C8363"/>
<path d="M13.2439 2.46463L12.5077 12.4375L22.4766 13.1734L23.2165 3.20485L13.2439 2.46463ZM12.5037 2.43732H2.50366V12.4367L12.5031 12.4373L12.5037 2.43732ZM12.5037 1L12.5085 -9L2.50366 -9.00488V1H12.5037ZM13.3503 1.03162L23.3229 1.77185L24.063 -8.19986L14.0914 -8.94088L13.3503 1.03162ZM14.7086 2.68166L4.95128 0.492139L2.76263 10.2456L12.5152 12.4381L14.7086 2.68166ZM15.0234 1.27884L17.2142 -8.47824L7.45587 -10.6693L5.26607 -0.910685L15.0234 1.27884ZM16.6419 1.7704L25.9715 5.37041L29.5649 -3.94221L20.2588 -7.55258L16.6419 1.7704ZM18.0937 4.13192H28.0937V-1.21901L23.6419 -4.1878L18.0937 4.13192ZM17.4627 3.74384L8.76258 -1.18649L3.8275 7.52201L12.5407 12.4487L17.4627 3.74384ZM18.1713 2.49338L23.101 -6.20709L14.4012 -11.1364L9.47122 -2.43695L18.1713 2.49338ZM19.5785 3.43338L27.4654 9.5813L33.612 1.69612L25.7282 -4.45217L19.5785 3.43338ZM18.6945 4.56743L12.5437 12.452L20.4312 18.6052L26.5814 10.7153L18.6945 4.56743ZM18.0937 4.13336H8.09371V9.48026L12.5403 12.4496L18.0937 4.13336ZM19.7913 5.56062L12.8924 -1.67857L5.6573 5.2164L12.5482 12.4554L19.7913 5.56062ZM20.832 4.56887L28.0913 -2.30878L21.1935 -9.58938L13.9331 -2.67032L20.832 4.56887ZM21.9057 5.87683L27.6629 14.0533L35.8683 8.27573L30.0618 0.0907868L21.9057 5.87683ZM21.4917 7.97532L16.9918 -0.95501L8.0749 3.53814L12.5546 12.4618L21.4917 7.97532ZM22.7753 7.32852L31.7087 2.83469L27.2118 -6.10479L18.2754 -1.6018L22.7753 7.32852ZM23.4221 8.89233L26.5513 18.3902L36.0497 15.2608L32.9198 5.76262L23.4221 8.89233ZM22.0566 9.34221L12.5588 12.4712L15.6878 21.9692L25.1857 18.84L22.0566 9.34221ZM22.5611 12.2513L12.5639 12.4866L12.7937 22.2513H22.5611V12.2513ZM22.4174 10.7781L20.7167 0.923762L10.8615 2.62457L12.5632 12.4796L22.4174 10.7781ZM23.8332 10.5337L33.6859 8.82347L31.9773 -1.01958L22.1326 0.679417L23.8332 10.5337ZM24 12.2154L24.2499 22.2123L34.2519 21.9622L33.9967 11.9604L24 12.2154ZM22.5626 12.2513V22.2513H22.6876L22.8125 22.2482L22.5626 12.2513ZM22.4893 13.7289L23.7185 3.80474L13.7841 2.57426L12.5638 12.5099L22.4893 13.7289ZM23.9166 13.9057L33.8417 15.1276L35.0627 5.20984L25.1458 3.98153L23.9166 13.9057ZM23.586 15.5658L20.9169 25.203L30.5497 27.8709L33.222 18.2394L23.586 15.5658ZM22.2004 15.182L12.5677 12.4964L9.87751 22.1456L19.5313 24.8193L22.2004 15.182ZM21.0044 17.8813L12.5608 12.5237L7.1977 20.9759L15.6553 26.3304L21.0044 17.8813ZM21.703 16.5762L25.754 7.43351L16.6326 3.39199L12.5698 12.5039L21.703 16.5762ZM23.0168 17.1584L32.1548 21.2199L36.2211 12.0713L27.0678 8.01562L23.0168 17.1584ZM22.219 18.6503L16.8699 27.0994L25.3222 32.4505L30.6702 23.9962L22.219 18.6503ZM20.1219 19.07L26.6485 11.4935L19.039 4.93846L12.5171 12.5763L20.1219 19.07ZM21.2114 20.0086L28.7839 26.5399L35.3192 18.9627L27.7381 12.4321L21.2114 20.0086ZM20.635 20.6295L13.5642 27.7007L20.6399 34.7761L27.7107 27.6959L20.635 20.6295ZM13.9802 -7.50823C13.489 -7.54449 12.9967 -7.56265 12.5042 -7.56268L12.5031 12.4373C12.5046 12.4373 12.5061 12.4374 12.5077 12.4375L13.9802 -7.50823ZM22.5037 2.43732V1H2.50366V2.43732H22.5037ZM12.4988 11C12.5356 11 12.5725 11.0014 12.6092 11.0041L14.0914 -8.94088C13.5647 -8.98002 13.0367 -8.99974 12.5085 -9L12.4988 11ZM3.37772 0.291396L3.27136 1.7244L23.2165 3.20485L23.3229 1.77185L3.37772 0.291396ZM19.7244 -6.21814C18.8059 -6.57254 17.8626 -6.85888 16.9021 -7.07482L12.5152 12.4381C12.5184 12.4389 12.5215 12.4398 12.5246 12.441L19.7244 -6.21814ZM24.466 4.87119L24.7808 3.46837L5.26607 -0.910685L4.95128 0.492139L24.466 4.87119ZM12.8327 11.0359C12.9098 11.0532 12.9743 11.0737 13.025 11.0934L20.2588 -7.55258C19.2574 -7.94109 18.2381 -8.24833 17.2142 -8.47824L12.8327 11.0359ZM7.31241 -1.82961L6.79495 -0.488585L25.454 6.71143L25.9715 5.37041L7.31241 -1.82961ZM23.6419 -4.1878C23.2324 -4.46086 22.813 -4.71877 22.3846 -4.96101L12.5407 12.4487C12.5424 12.4496 12.544 12.4506 12.5455 12.4516L23.6419 -4.1878ZM26.1628 8.67417L26.8714 7.42371L9.47122 -2.43695L8.76258 -1.18649L26.1628 8.67417ZM13.2416 11.1938C13.307 11.2309 13.3696 11.2727 13.4289 11.3189L25.7282 -4.45217C24.8966 -5.10068 24.0185 -5.68723 23.101 -6.20709L13.2416 11.1938ZM11.6916 -2.71453L10.8076 -1.58049L26.5814 10.7153L27.4654 9.5813L11.6916 -2.71453ZM24.8454 -3.31716C24.4567 -3.62036 24.057 -3.90913 23.6471 -4.18288L12.5403 12.4496C12.5415 12.4504 12.5426 12.4512 12.5437 12.452L24.8454 -3.31716ZM28.0937 4.13336V4.13192H8.09371V4.13336H28.0937ZM28.9072 0.9487C28.3399 0.14274 27.7139 -0.620284 27.0343 -1.33416L12.5482 12.4554C12.5498 12.4571 12.5513 12.4589 12.5526 12.4607L28.9072 0.9487ZM26.6901 12.7998L27.7308 11.8081L13.9331 -2.67032L12.8924 -1.67857L26.6901 12.7998ZM13.5726 11.4465C13.6317 11.5088 13.6921 11.5818 13.7496 11.6629L30.0618 0.0907868C29.4667 -0.74801 28.8084 -1.55183 28.0913 -2.30878L13.5726 11.4465ZM16.1485 -2.29964L14.9727 -1.47175L26.4871 14.8812L27.6629 14.0533L16.1485 -2.29964ZM31.0387 4.82254C30.8516 4.37074 30.6482 3.92588 30.4288 3.48884L12.5546 12.4618C12.5565 12.4656 12.5583 12.4695 12.5599 12.4734L31.0387 4.82254ZM25.9916 16.9056L27.2752 16.2588L18.2754 -1.6018L16.9918 -0.95501L25.9916 16.9056ZM13.8419 11.8224C13.8743 11.8868 13.9019 11.9535 13.9245 12.022L32.9198 5.76262C32.5888 4.75814 32.184 3.7795 31.7087 2.83469L13.8419 11.8224ZM20.293 -0.605499L18.9275 -0.155618L25.1857 18.84L26.5513 18.3902L20.293 -0.605499ZM31.5545 6.21322C31.4007 5.74645 31.2299 5.28547 31.0423 4.83123L12.5564 12.4647C12.5572 12.4669 12.558 12.469 12.5588 12.4712L31.5545 6.21322ZM32.5584 12.0161C32.5352 11.0305 32.4393 10.048 32.2716 9.07655L12.5632 12.4796C12.5636 12.4819 12.5639 12.4843 12.5639 12.4866L32.5584 12.0161ZM24.1181 20.6324L25.5339 20.3881L22.1326 0.679417L20.7167 0.923762L24.1181 20.6324ZM13.9806 12.244C13.9939 12.3209 14.0014 12.398 14.0032 12.4704L33.9967 11.9604C33.9698 10.906 33.8652 9.85623 33.6859 8.82347L13.9806 12.244ZM23.7501 2.21853L22.3127 2.25447L22.8125 22.2482L24.2499 22.2123L23.7501 2.21853ZM22.5626 2.25134H22.5611V22.2513H22.5626V2.25134ZM32.1896 16.3676C32.2792 15.9059 32.355 15.4339 32.4147 14.9479L12.5638 12.5099C12.5632 12.5155 12.5613 12.5293 12.5561 12.5562L32.1896 16.3676ZM21.2601 23.6531L22.6874 23.8299L25.1458 3.98153L23.7185 3.80474L21.2601 23.6531ZM13.9915 12.6838C13.9829 12.7542 13.969 12.8239 13.95 12.8923L33.222 18.2394C33.5051 17.2188 33.7123 16.1787 33.8417 15.1276L13.9915 12.6838ZM26.2551 5.92858L24.8694 5.54482L19.5313 24.8193L20.9169 25.203L26.2551 5.92858ZM31.833 17.8676C31.9652 17.3934 32.0796 16.9155 32.1764 16.4344L12.5693 12.4895C12.5684 12.4942 12.5678 12.4963 12.5677 12.4964L31.833 17.8676ZM29.4481 23.239C29.9834 22.3953 30.4445 21.5272 30.8362 20.6486L12.5698 12.5039C12.559 12.528 12.5544 12.5337 12.5608 12.5237L29.4481 23.239ZM17.652 25.719L18.9658 26.3011L27.0678 8.01562L25.754 7.43351L17.652 25.719ZM13.8788 13.0968C13.8457 13.1712 13.8092 13.2392 13.7679 13.3044L30.6702 23.9962C31.2326 23.107 31.728 22.1803 32.1548 21.2199L13.8788 13.0968ZM27.5682 10.2012L26.3536 9.43225L15.6553 26.3304L16.8699 27.0994L27.5682 10.2012ZM26.6897 26.6846C27.0385 26.3357 27.3861 25.9625 27.7266 25.5636L12.5171 12.5763C12.5386 12.5512 12.5498 12.5401 12.5479 12.542L26.6897 26.6846ZM13.5952 26.6465L14.6848 27.585L27.7381 12.4321L26.6485 11.4935L13.5952 26.6465ZM13.639 13.4772C13.6135 13.5068 13.5869 13.5354 13.5593 13.5631L27.7107 27.6959C28.0824 27.3238 28.4403 26.9382 28.7839 26.5399L13.639 13.4772ZM27.7059 13.5582L26.6897 12.542L12.5479 26.6846L13.5642 27.7007L27.7059 13.5582Z" fill="#3C8363" mask="url(#path-1-inside-1)"/>
<mask id="path-3-inside-2" fill="white">
<path d="M12.5037 2.43732C10.8491 2.43744 9.22001 2.84559 7.76081 3.62561C6.30161 4.40563 5.0573 5.53345 4.1381 6.90918C3.2189 8.28491 2.65318 9.86608 2.49104 11.5126C2.3289 13.1592 2.57535 14.8204 3.20856 16.3489C3.84178 17.8775 4.8422 19.2263 6.12124 20.276C7.40027 21.3256 8.91843 22.0436 10.5413 22.3664C12.1641 22.6893 13.8415 22.6069 15.4249 22.1267C17.0082 21.6464 18.4488 20.7832 19.6188 19.6133L20.635 20.6295C19.2979 21.9673 17.6514 22.9547 15.8414 23.5041C14.0314 24.0536 12.1138 24.1481 10.2586 23.7793C8.4033 23.4106 6.66764 22.59 5.20536 21.3902C3.74308 20.1903 2.59934 18.6484 1.87546 16.9009C1.15158 15.1534 0.86993 13.2544 1.05545 11.3721C1.24097 9.48976 1.88794 7.68225 2.93904 6.1097C3.99013 4.53715 5.4129 3.24813 7.08128 2.35683C8.74966 1.46554 10.6121 0.999499 12.5037 1V2.43732Z"/>
</mask>
<path d="M12.5037 2.43732C10.8491 2.43744 9.22001 2.84559 7.76081 3.62561C6.30161 4.40563 5.0573 5.53345 4.1381 6.90918C3.2189 8.28491 2.65318 9.86608 2.49104 11.5126C2.3289 13.1592 2.57535 14.8204 3.20856 16.3489C3.84178 17.8775 4.8422 19.2263 6.12124 20.276C7.40027 21.3256 8.91843 22.0436 10.5413 22.3664C12.1641 22.6893 13.8415 22.6069 15.4249 22.1267C17.0082 21.6464 18.4488 20.7832 19.6188 19.6133L20.635 20.6295C19.2979 21.9673 17.6514 22.9547 15.8414 23.5041C14.0314 24.0536 12.1138 24.1481 10.2586 23.7793C8.4033 23.4106 6.66764 22.59 5.20536 21.3902C3.74308 20.1903 2.59934 18.6484 1.87546 16.9009C1.15158 15.1534 0.86993 13.2544 1.05545 11.3721C1.24097 9.48976 1.88794 7.68225 2.93904 6.1097C3.99013 4.53715 5.4129 3.24813 7.08128 2.35683C8.74966 1.46554 10.6121 0.999499 12.5037 1V2.43732Z" fill="#3C8363"/>
<path d="M12.5037 2.43732L12.5044 12.4373L22.5037 12.4366V2.43732H12.5037ZM19.6188 19.6133L26.6897 12.542L19.6192 5.47191L12.5483 12.5417L19.6188 19.6133ZM20.635 20.6295L27.7079 27.6988L34.7756 20.6275L27.7059 13.5582L20.635 20.6295ZM12.5037 1H22.5037V-8.99735L12.5063 -9L12.5037 1ZM12.503 -7.56268C9.20398 -7.56244 5.95595 -6.74868 3.04654 -5.19344L12.4751 12.4447C12.4841 12.4399 12.4941 12.4373 12.5044 12.4373L12.503 -7.56268ZM3.04654 -5.19344C0.137134 -3.63821 -2.34387 -1.38948 -4.17668 1.35361L12.4529 12.4648C12.4585 12.4564 12.4661 12.4495 12.4751 12.4447L3.04654 -5.19344ZM-4.17668 1.35361C-6.00949 4.0967 -7.13753 7.24948 -7.46083 10.5327L12.4429 12.4926C12.4439 12.4827 12.4473 12.4731 12.4529 12.4648L-4.17668 1.35361ZM-7.46083 10.5327C-7.78413 13.8159 -7.29271 17.1281 -6.03012 20.176L12.4472 12.5218C12.4434 12.5126 12.4419 12.5025 12.4429 12.4926L-7.46083 10.5327ZM-6.03012 20.176C-4.76753 23.2239 -2.77275 25.9134 -0.222525 28.0062L12.465 12.5457C12.4572 12.5393 12.4511 12.5311 12.4472 12.5218L-6.03012 20.176ZM-0.222525 28.0062C2.3277 30.099 5.35467 31.5306 8.59025 32.1743L12.4923 12.5586C12.4822 12.5566 12.4728 12.5522 12.465 12.5457L-0.222525 28.0062ZM8.59025 32.1743C11.8258 32.8179 15.1702 32.6537 18.3272 31.6962L12.5225 12.5571C12.5127 12.5601 12.5023 12.5606 12.4923 12.5586L8.59025 32.1743ZM18.3272 31.6962C21.4842 30.7387 24.3564 29.0175 26.6893 26.6849L12.5483 12.5417C12.5411 12.5488 12.5323 12.5542 12.5225 12.5571L18.3272 31.6962ZM12.5479 26.6846L13.5642 27.7007L27.7059 13.5582L26.6897 12.542L12.5479 26.6846ZM13.5622 13.5602C13.3878 13.7347 13.1729 13.8636 12.9367 13.9353L18.7461 33.073C22.1298 32.0458 25.208 30.1999 27.7079 27.6988L13.5622 13.5602ZM12.9367 13.9353C12.7004 14.007 12.4501 14.0193 12.208 13.9712L8.30914 33.5875C11.7775 34.2768 15.3623 34.1001 18.7461 33.073L12.9367 13.9353ZM12.208 13.9712C11.9658 13.9231 11.7393 13.816 11.5485 13.6594L-1.1378 29.1209C1.59597 31.364 4.84078 32.8981 8.30914 33.5875L12.208 13.9712ZM11.5485 13.6594C11.3577 13.5029 11.2086 13.3017 11.1142 13.0739L-7.36324 20.728C-6.00989 23.995 -3.87157 26.8778 -1.1378 29.1209L11.5485 13.6594ZM11.1142 13.0739C11.0198 12.846 10.983 12.5984 11.0072 12.3529L-8.89633 10.3912C-9.24318 13.9105 -8.71659 17.4609 -7.36324 20.728L11.1142 13.0739ZM11.0072 12.3529C11.0314 12.1075 11.1158 11.8718 11.2529 11.6667L-5.37479 0.552706C-7.33989 3.49269 -8.54947 6.87201 -8.89633 10.3912L11.0072 12.3529ZM11.2529 11.6667C11.39 11.4616 11.5756 11.2934 11.7933 11.1771L2.36925 -6.46342C-0.749776 -4.79714 -3.4097 -2.38728 -5.37479 0.552706L11.2529 11.6667ZM11.7933 11.1771C12.011 11.0608 12.2541 10.9999 12.501 11L12.5063 -9C8.97014 -9.00094 5.48828 -8.12969 2.36925 -6.46342L11.7933 11.1771ZM2.50368 1V2.43732H22.5037V1H2.50368Z" fill="#3C8363" mask="url(#path-3-inside-2)"/>
<path d="M16.8076 16.8249L16.8159 16.8105L16.8076 16.8249Z" fill="#3C8363" stroke="#3C8363" stroke-width="3"/>
</svg>
