<svg width="25" height="25" viewBox="0 0 25 25" fill="none" xmlns="http://www.w3.org/2000/svg">
<path d="M21.6042 4.83333H19.5278V6.11111H21.4445V20.1667H3.55556V6.11111H5.47223V4.83333H3.39584C3.24649 4.83582 3.0991 4.86772 2.96208 4.92719C2.82505 4.98665 2.70109 5.07253 2.59727 5.17992C2.49344 5.2873 2.41179 5.41409 2.35697 5.55304C2.30215 5.69198 2.27524 5.84037 2.27778 5.98972V20.2881C2.27524 20.4374 2.30215 20.5858 2.35697 20.7247C2.41179 20.8637 2.49344 20.9905 2.59727 21.0978C2.70109 21.2052 2.82505 21.2911 2.96208 21.3506C3.0991 21.4101 3.24649 21.4419 3.39584 21.4444H21.6042C21.7535 21.4419 21.9009 21.4101 22.0379 21.3506C22.175 21.2911 22.2989 21.2052 22.4027 21.0978C22.5066 20.9905 22.5882 20.8637 22.643 20.7247C22.6979 20.5858 22.7248 20.4374 22.7222 20.2881V5.98972C22.7248 5.84037 22.6979 5.69198 22.643 5.55304C22.5882 5.41409 22.5066 5.2873 22.4027 5.17992C22.2989 5.07253 22.175 4.98665 22.0379 4.92719C21.9009 4.86772 21.7535 4.83582 21.6042 4.83333Z" fill="#3C8363"/>
<path d="M6.11111 9.94444H7.38889V11.2222H6.11111V9.94444Z" fill="#3C8363"/>
<path d="M9.94444 9.94444H11.2222V11.2222H9.94444V9.94444Z" fill="#3C8363"/>
<path d="M13.7778 9.94444H15.0555V11.2222H13.7778V9.94444Z" fill="#3C8363"/>
<path d="M17.6111 9.94444H18.8889V11.2222H17.6111V9.94444Z" fill="#3C8363"/>
<path d="M6.11111 13.1389H7.38889V14.4167H6.11111V13.1389Z" fill="#3C8363"/>
<path d="M9.94444 13.1389H11.2222V14.4167H9.94444V13.1389Z" fill="#3C8363"/>
<path d="M13.7778 13.1389H15.0555V14.4167H13.7778V13.1389Z" fill="#3C8363"/>
<path d="M17.6111 13.1389H18.8889V14.4167H17.6111V13.1389Z" fill="#3C8363"/>
<path d="M6.11111 16.3333H7.38889V17.6111H6.11111V16.3333Z" fill="#3C8363"/>
<path d="M9.94444 16.3333H11.2222V17.6111H9.94444V16.3333Z" fill="#3C8363"/>
<path d="M13.7778 16.3333H15.0555V17.6111H13.7778V16.3333Z" fill="#3C8363"/>
<path d="M17.6111 16.3333H18.8889V17.6111H17.6111V16.3333Z" fill="#3C8363"/>
<path d="M7.38889 7.38888C7.55833 7.38888 7.72084 7.32157 7.84065 7.20176C7.96047 7.08194 8.02778 6.91944 8.02778 6.74999V2.91666C8.02778 2.74722 7.96047 2.58471 7.84065 2.4649C7.72084 2.34508 7.55833 2.27777 7.38889 2.27777C7.21944 2.27777 7.05694 2.34508 6.93713 2.4649C6.81731 2.58471 6.75 2.74722 6.75 2.91666V6.74999C6.75 6.91944 6.81731 7.08194 6.93713 7.20176C7.05694 7.32157 7.21944 7.38888 7.38889 7.38888Z" fill="#3C8363"/>
<path d="M17.6111 7.38888C17.7806 7.38888 17.9431 7.32157 18.0629 7.20176C18.1827 7.08194 18.25 6.91944 18.25 6.74999V2.91666C18.25 2.74722 18.1827 2.58471 18.0629 2.4649C17.9431 2.34508 17.7806 2.27777 17.6111 2.27777C17.4417 2.27777 17.2792 2.34508 17.1594 2.4649C17.0395 2.58471 16.9722 2.74722 16.9722 2.91666V6.74999C16.9722 6.91944 17.0395 7.08194 17.1594 7.20176C17.2792 7.32157 17.4417 7.38888 17.6111 7.38888Z" fill="#3C8363"/>
<path d="M9.30556 4.83333H15.6944V6.11111H9.30556V4.83333Z" fill="#3C8363"/>
</svg>
