<svg width="25" height="25" viewBox="0 0 25 25" fill="none" xmlns="http://www.w3.org/2000/svg">
<path d="M13.9375 13.5C14.7 13.5 15.4313 13.8029 15.9704 14.3421C16.5096 14.8812 16.8125 15.6125 16.8125 16.375V18.5312C16.8125 21.4839 13.811 23.5625 8.90625 23.5625C4.0015 23.5625 1 21.4839 1 18.5312V16.375C1 15.6125 1.3029 14.8812 1.84207 14.3421C2.38123 13.8029 3.1125 13.5 3.875 13.5H13.9375ZM13.9375 14.9375H3.875C3.49375 14.9375 3.12812 15.089 2.85853 15.3585C2.58895 15.6281 2.4375 15.9938 2.4375 16.375V18.5312C2.4375 20.5538 4.70731 22.125 8.90625 22.125C13.1052 22.125 15.375 20.5538 15.375 18.5312V16.375C15.375 15.9938 15.2235 15.6281 14.954 15.3585C14.6844 15.089 14.3187 14.9375 13.9375 14.9375ZM21.125 13.5C21.8875 13.5 22.6188 13.8029 23.1579 14.3421C23.6971 14.8812 24 15.6125 24 16.375V17.0938C24 20.0967 21.746 22.125 17.5312 22.125C17.3286 22.125 17.1287 22.1207 16.9361 22.1106C17.2351 21.7628 17.4853 21.389 17.6865 20.9879L17.8259 20.6818H17.882C21.0905 20.5883 22.5625 19.1925 22.5625 17.0938V16.375C22.5625 15.9938 22.4111 15.6281 22.1415 15.3585C21.8719 15.089 21.5062 14.9375 21.125 14.9375H18.0042C17.8161 14.4072 17.526 13.9189 17.1503 13.5H21.125ZM8.90625 2C9.56696 2 10.2212 2.13014 10.8316 2.38298C11.442 2.63582 11.9967 3.00642 12.4639 3.47362C12.9311 3.94081 13.3017 4.49545 13.5545 5.10587C13.8074 5.71629 13.9375 6.37054 13.9375 7.03125C13.9375 7.69196 13.8074 8.34621 13.5545 8.95663C13.3017 9.56705 12.9311 10.1217 12.4639 10.5889C11.9967 11.0561 11.442 11.4267 10.8316 11.6795C10.2212 11.9324 9.56696 12.0625 8.90625 12.0625C7.57188 12.0625 6.29216 11.5324 5.34862 10.5889C4.40508 9.64534 3.875 8.36562 3.875 7.03125C3.875 5.69688 4.40508 4.41716 5.34862 3.47362C6.29216 2.53008 7.57188 2 8.90625 2ZM18.9688 4.875C19.9219 4.875 20.836 5.25363 21.5099 5.92759C22.1839 6.60154 22.5625 7.51563 22.5625 8.46875C22.5625 9.42187 22.1839 10.336 21.5099 11.0099C20.836 11.6839 19.9219 12.0625 18.9688 12.0625C18.0156 12.0625 17.1015 11.6839 16.4276 11.0099C15.7536 10.336 15.375 9.42187 15.375 8.46875C15.375 7.51563 15.7536 6.60154 16.4276 5.92759C17.1015 5.25363 18.0156 4.875 18.9688 4.875ZM8.90625 3.4375C7.95313 3.4375 7.03904 3.81613 6.36509 4.49009C5.69113 5.16404 5.3125 6.07813 5.3125 7.03125C5.3125 7.98437 5.69113 8.89846 6.36509 9.57241C7.03904 10.2464 7.95313 10.625 8.90625 10.625C9.85937 10.625 10.7735 10.2464 11.4474 9.57241C12.1214 8.89846 12.5 7.98437 12.5 7.03125C12.5 6.07813 12.1214 5.16404 11.4474 4.49009C10.7735 3.81613 9.85937 3.4375 8.90625 3.4375ZM18.9688 6.3125C18.3969 6.3125 17.8484 6.53968 17.444 6.94405C17.0397 7.34843 16.8125 7.89688 16.8125 8.46875C16.8125 9.04062 17.0397 9.58907 17.444 9.99345C17.8484 10.3978 18.3969 10.625 18.9688 10.625C19.5406 10.625 20.0891 10.3978 20.4935 9.99345C20.8978 9.58907 21.125 9.04062 21.125 8.46875C21.125 7.89688 20.8978 7.34843 20.4935 6.94405C20.0891 6.53968 19.5406 6.3125 18.9688 6.3125Z" fill="#3C8363"/>
</svg>
